<?xml version="1.0" encoding="UTF-8"?><svg width="147.902mm" height="51.5938mm" viewBox="0 0 559 195" xmlns="http://www.w3.org/2000/svg" xmlns:xlink="http://www.w3.org/1999/xlink"><g fill="none" stroke="black" stroke-width="1" fill-rule="evenodd" stroke-linecap="square" stroke-linejoin="bevel"><g clip-path="none" fill="#ffffff" fill-opacity="1" opacity="1" stroke="none" stroke-opacity="0" transform="matrix(1,0,0,1,0,0)"><path d="M0,0 L559,0 L559,195 L0,195 L0,0 z" fill-rule="evenodd" vector-effect="none"/></g><defs><clipPath id="clip3"><path d="M-222,-49 L337,-49 L337,146 L-222,146 L-222,-49 z"/></clipPath></defs><g clip-path="url(#clip3)" fill="#ffffff" fill-opacity="1" opacity="1" stroke="none" stroke-opacity="0" transform="matrix(1,0,0,1,222,49)"><path d="M0,0 L135,35 L0,70 L0,0 z" fill-rule="nonzero" vector-effect="none"/></g><defs><clipPath id="clip7"><path d="M0,0 L135,0 L135,70 L0,70 L0,0 z"/></clipPath></defs><g clip-path="url(#clip7)" fill="none" opacity="1" stroke="none" stroke-opacity="0" transform="matrix(1,0,0,1,222,49)"><path d="M0,0 L135,35 L0,70 L0,0 z" fill-rule="nonzero" vector-effect="none"/></g><defs><clipPath id="clip17"><path d="M3,-2 L45,-2 L45,32 L3,32 L3,-2 z"/></clipPath></defs><g clip-path="url(#clip17)" fill="#000000" fill-opacity="1" opacity="1" stroke="none" stroke-opacity="0" transform="matrix(1,0,0,1,261.964,69.9063)"><path d="M6.84375,19.7031 C6.35417,19.0885 5.94271,18.3698 5.60938,17.5469 C5.27604,16.724 5.10938,15.875 5.10938,15 C5.10938,14.2292 5.23438,13.4896 5.48438,12.7812 C5.77604,11.9479 6.22917,11.125 6.84375,10.3125 L7.46875,10.3125 C7.07292,10.9896 6.8125,11.474 6.6875,11.7656 C6.48958,12.2135 6.33333,12.6823 6.21875,13.1719 C6.08333,13.776 6.01562,14.3854 6.01562,15 C6.01562,16.5729 6.5,18.1406 7.46875,19.7031 L6.84375,19.7031 M7.92188,15.7031 L8.79688,15.5938 C8.90104,16.0833 9.07292,16.4401 9.3125,16.6641 C9.55208,16.888 9.84896,17 10.2031,17 C10.6198,17 10.9688,16.8568 11.25,16.5703 C11.5312,16.2839 11.6719,15.9271 11.6719,15.5 C11.6719,15.0938 11.5417,14.7604 11.2812,14.5 C11.0208,14.2396 10.6875,14.1094 10.2812,14.1094 C10.1146,14.1094 9.90625,14.1406 9.65625,14.2031 L9.75,13.4375 C9.8125,13.4375 9.85938,13.4375 9.89062,13.4375 C10.2656,13.4375 10.6042,13.3411 10.9062,13.1484 C11.2083,12.9557 11.3594,12.6562 11.3594,12.25 C11.3594,11.9271 11.25,11.6589 11.0312,11.4453 C10.8125,11.2318 10.5312,11.125 10.1875,11.125 C9.84375,11.125 9.55729,11.2318 9.32812,11.4453 C9.09896,11.6589 8.95312,11.9844 8.89062,12.4219 L8.01562,12.2656 C8.11979,11.6719 8.36198,11.2135 8.74219,10.8906 C9.1224,10.5677 9.59375,10.4062 10.1562,10.4062 C10.5521,10.4062 10.9141,10.4896 11.2422,10.6562 C11.5703,10.8229 11.8203,11.0521 11.9922,11.3438 C12.1641,11.6354 12.25,11.9427 12.25,12.2656 C12.25,12.5781 12.1693,12.8594 12.0078,13.1094 C11.8464,13.3594 11.599,13.5625 11.2656,13.7188 C11.6927,13.8125 12.0234,14.013 12.2578,14.3203 C12.4922,14.6276 12.6094,15.0156 12.6094,15.4844 C12.6094,16.1094 12.3802,16.638 11.9219,17.0703 C11.4635,17.5026 10.8906,17.7188 10.2031,17.7188 C9.56771,17.7188 9.04427,17.5312 8.63281,17.1562 C8.22135,16.7812 7.98438,16.2969 7.92188,15.7031 M13.5,17.7188 L15.5781,10.3125 L16.2812,10.3125 L14.2031,17.7188 L13.5,17.7188 M21.5312,16.75 L21.5312,17.5938 L16.7969,17.5938 C16.7969,17.3854 16.8333,17.1823 16.9062,16.9844 C17.0312,16.6615 17.224,16.3438 17.4844,16.0312 C17.7448,15.7188 18.1302,15.3594 18.6406,14.9531 C19.4115,14.3073 19.9349,13.7995 20.2109,13.4297 C20.487,13.0599 20.625,12.7083 20.625,12.375 C20.625,12.0208 20.5,11.7266 20.25,11.4922 C20,11.2578 19.6771,11.1406 19.2812,11.1406 C18.8542,11.1406 18.513,11.2656 18.2578,11.5156 C18.0026,11.7656 17.875,12.1146 17.875,12.5625 L16.9688,12.4688 C17.0312,11.8021 17.263,11.2917 17.6641,10.9375 C18.0651,10.5833 18.6094,10.4062 19.2969,10.4062 C19.9844,10.4062 20.5286,10.5964 20.9297,10.9766 C21.3307,11.3568 21.5312,11.8281 21.5312,12.3906 C21.5312,12.6823 21.4714,12.9661 21.3516,13.2422 C21.2318,13.5182 21.0365,13.8099 20.7656,14.1172 C20.4948,14.4245 20.0417,14.8438 19.4062,15.375 C18.8854,15.8125 18.5495,16.112 18.3984,16.2734 C18.2474,16.4349 18.125,16.5938 18.0312,16.75 L21.5312,16.75 M23.7344,19.7031 L23.1094,19.7031 C24.0781,18.1406 24.5625,16.5729 24.5625,15 C24.5625,14.3958 24.4948,13.7917 24.3594,13.1875 C24.2448,12.6979 24.0885,12.2292 23.8906,11.7812 C23.7656,11.4896 23.5052,11 23.1094,10.3125 L23.7344,10.3125 C24.349,11.125 24.8021,11.9479 25.0938,12.7812 C25.3438,13.4896 25.4688,14.2292 25.4688,15 C25.4688,15.875 25.2995,16.724 24.9609,17.5469 C24.6224,18.3698 24.2135,19.0885 23.7344,19.7031" fill-rule="nonzero" vector-effect="none"/></g><defs><clipPath id="clip34"><path d="M-222.5,-49.5 L336.5,-49.5 L336.5,145.5 L-222.5,145.5 L-222.5,-49.5 z"/></clipPath></defs><g clip-path="url(#clip34)" fill="none" opacity="1" stroke="#000000" stroke-linecap="butt" stroke-linejoin="miter" stroke-miterlimit="2" stroke-opacity="1" stroke-width="1" transform="matrix(1,0,0,1,222.5,49.5)"><path d="M0,0 L135,35 L0,70 L0,0 z" fill-rule="nonzero" vector-effect="none"/></g><defs><clipPath id="clip40"><path d="M0,0 L31,0 L31,15 L0,15 L0,0 z"/></clipPath></defs><g clip-path="url(#clip40)" fill="none" opacity="1" stroke="#000000" stroke-linecap="square" stroke-linejoin="bevel" stroke-opacity="1" stroke-width="1" transform="matrix(1,0,0,1,273.859,121)"><text fill="#000000" fill-opacity="1" font-family="Arial" font-size="10" font-style="normal" font-weight="400" stroke="none" textLength="28.2813" x="1.5" xml:space="preserve" y="11">Factor</text></g><defs><clipPath id="clip48"><path d="M-107,-26 L452,-26 L452,169 L-107,169 L-107,-26 z"/></clipPath></defs><g clip-path="url(#clip48)" fill="#ffffff" fill-opacity="1" opacity="1" stroke="none" stroke-opacity="0" transform="matrix(1,0,0,1,107,26)"><path d="M0,0 L30,0 L30,31 L0,31 L0,0 z" fill-rule="evenodd" vector-effect="none"/></g><defs><clipPath id="clip52"><path d="M-17,-17 L17,-17 L17,18 L-17,18 L-17,-17 z"/></clipPath></defs><g clip-path="url(#clip52)" fill="none" opacity="1" stroke="#000000" stroke-linecap="butt" stroke-linejoin="miter" stroke-miterlimit="2" stroke-opacity="1" stroke-width="1" transform="matrix(1,0,0,1,122,41)"><text fill="#000000" fill-opacity="1" font-family="Arial" font-size="10" font-style="normal" font-weight="400" stroke="none" textLength="5" x="-2.5" xml:space="preserve" y="3.5">x</text></g><defs><clipPath id="clip57"><path d="M-107.5,-26.5 L451.5,-26.5 L451.5,168.5 L-107.5,168.5 L-107.5,-26.5 z"/></clipPath></defs><g clip-path="url(#clip57)" fill="none" opacity="1" stroke="#000000" stroke-linecap="butt" stroke-linejoin="miter" stroke-miterlimit="2" stroke-opacity="1" stroke-width="1" transform="matrix(1,0,0,1,107.5,26.5)"><path d="M0,0 L30,0 L30,31 L0,31 L0,0 z" fill-rule="evenodd" vector-effect="none"/></g><defs><clipPath id="clip60"><path d="M-107,-111 L452,-111 L452,84 L-107,84 L-107,-111 z"/></clipPath></defs><g clip-path="url(#clip60)" fill="#ffffff" fill-opacity="1" opacity="1" stroke="none" stroke-opacity="0" transform="matrix(1,0,0,1,107,111)"><path d="M0,0 L30,0 L30,31 L0,31 L0,0 z" fill-rule="evenodd" vector-effect="none"/></g><defs><clipPath id="clip64"><path d="M-17,-17 L17,-17 L17,18 L-17,18 L-17,-17 z"/></clipPath></defs><g clip-path="url(#clip64)" fill="none" opacity="1" stroke="#000000" stroke-linecap="butt" stroke-linejoin="miter" stroke-miterlimit="2" stroke-opacity="1" stroke-width="1" transform="matrix(1,0,0,1,122,126)"><text fill="#000000" fill-opacity="1" font-family="Arial" font-size="10" font-style="normal" font-weight="400" stroke="none" textLength="5" x="-2.5" xml:space="preserve" y="3.5">x</text></g><defs><clipPath id="clip69"><path d="M-107.5,-111.5 L451.5,-111.5 L451.5,83.5 L-107.5,83.5 L-107.5,-111.5 z"/></clipPath></defs><g clip-path="url(#clip69)" fill="none" opacity="1" stroke="#000000" stroke-linecap="butt" stroke-linejoin="miter" stroke-miterlimit="2" stroke-opacity="1" stroke-width="1" transform="matrix(1,0,0,1,107.5,111.5)"><path d="M0,0 L30,0 L30,31 L0,31 L0,0 z" fill-rule="evenodd" vector-effect="none"/></g><defs><clipPath id="clip72"><path d="M-157,-74 L402,-74 L402,121 L-157,121 L-157,-74 z"/></clipPath></defs><g clip-path="url(#clip72)" fill="#ffffff" fill-opacity="1" opacity="1" stroke="none" stroke-opacity="0" transform="matrix(1,0,0,1,157,74)"><path d="M20,10 C20,15.5228 15.5228,20 10,20 C4.47715,20 0,15.5228 0,10 C0,4.47715 4.47715,0 10,0 C15.5228,0 20,4.47715 20,10 z" fill-rule="nonzero" vector-effect="none"/></g><defs><clipPath id="clip76"><path d="M-12,-7 L12,-7 L12,17 L-12,17 L-12,-7 z"/></clipPath></defs><g clip-path="url(#clip76)" fill="none" opacity="1" stroke="#000000" stroke-linecap="butt" stroke-linejoin="miter" stroke-miterlimit="2" stroke-opacity="1" stroke-width="1" transform="matrix(1,0,0,1,167,79)"><text fill="#000000" fill-opacity="1" font-family="Arial" font-size="10" font-style="normal" font-weight="400" stroke="none" textLength="5.82813" x="-2.90625" xml:space="preserve" y="3.5">−</text></g><defs><clipPath id="clip77"><path d="M-12,-17 L12,-17 L12,7 L-12,7 L-12,-17 z"/></clipPath></defs><g clip-path="url(#clip77)" fill="none" opacity="1" stroke="#000000" stroke-linecap="butt" stroke-linejoin="miter" stroke-miterlimit="2" stroke-opacity="1" stroke-width="1" transform="matrix(1,0,0,1,167,89)"><text fill="#000000" fill-opacity="1" font-family="Arial" font-size="10" font-style="normal" font-weight="400" stroke="none" textLength="5.82813" x="-2.90625" xml:space="preserve" y="3.5">+</text></g><defs><clipPath id="clip82"><path d="M-157.5,-74.5 L401.5,-74.5 L401.5,120.5 L-157.5,120.5 L-157.5,-74.5 z"/></clipPath></defs><g clip-path="url(#clip82)" fill="none" opacity="1" stroke="#000000" stroke-linecap="butt" stroke-linejoin="miter" stroke-miterlimit="2" stroke-opacity="1" stroke-width="1" transform="matrix(1,0,0,1,157.5,74.5)"><path d="M20,10 C20,15.5228 15.5228,20 10,20 C4.47715,20 0,15.5228 0,10 C0,4.47715 4.47715,0 10,0 C15.5228,0 20,4.47715 20,10 z" fill-rule="nonzero" vector-effect="none"/></g><defs><clipPath id="clip85"><path d="M-437,-76 L122,-76 L122,119 L-437,119 L-437,-76 z"/></clipPath></defs><g clip-path="url(#clip85)" fill="#ffffff" fill-opacity="1" opacity="1" stroke="none" stroke-opacity="0" transform="matrix(1,0,0,1,437,76)"><path d="M0,0 L30,0 L30,31 L0,31 L0,0 z" fill-rule="evenodd" vector-effect="none"/></g><defs><clipPath id="clip89"><path d="M-17,-17 L17,-17 L17,18 L-17,18 L-17,-17 z"/></clipPath></defs><g clip-path="url(#clip89)" fill="none" opacity="1" stroke="#000000" stroke-linecap="butt" stroke-linejoin="miter" stroke-miterlimit="2" stroke-opacity="1" stroke-width="1" transform="matrix(1,0,0,1,452,91)"><text fill="#000000" fill-opacity="1" font-family="Arial" font-size="10" font-style="normal" font-weight="400" stroke="none" textLength="5" x="-2.5" xml:space="preserve" y="3.5">x</text></g><defs><clipPath id="clip94"><path d="M-437.5,-76.5 L121.5,-76.5 L121.5,118.5 L-437.5,118.5 L-437.5,-76.5 z"/></clipPath></defs><g clip-path="url(#clip94)" fill="none" opacity="1" stroke="#000000" stroke-linecap="butt" stroke-linejoin="miter" stroke-miterlimit="2" stroke-opacity="1" stroke-width="1" transform="matrix(1,0,0,1,437.5,76.5)"><path d="M0,0 L30,0 L30,31 L0,31 L0,0 z" fill-rule="evenodd" vector-effect="none"/></g><defs><clipPath id="clip97"><path d="M-2,-2 L557,-2 L557,193 L-2,193 L-2,-2 z"/></clipPath></defs><g clip-path="url(#clip97)" fill="#ffffff" fill-opacity="1" opacity="1" stroke="none" stroke-opacity="0" transform="matrix(1,0,0,1,2,2)"><path d="M7,0 L23,0 C26.866,0 30,3.13401 30,7 C30,10.866 26.866,14 23,14 L7,14 C3.13401,14 0,10.866 0,7 C0,3.13401 3.13401,0 7,0 z" fill-rule="nonzero" vector-effect="none"/></g><defs><clipPath id="clip101"><path d="M-17,-9 L17,-9 L17,9 L-17,9 L-17,-9 z"/></clipPath></defs><g clip-path="url(#clip101)" fill="none" opacity="1" stroke="#000000" stroke-linecap="butt" stroke-linejoin="miter" stroke-miterlimit="2" stroke-opacity="1" stroke-width="1" transform="matrix(1,0,0,1,17,9)"><text fill="#000000" fill-opacity="1" font-family="Arial" font-size="10" font-style="normal" font-weight="400" stroke="none" textLength="5.54688" x="-2.76563" xml:space="preserve" y="3.5">1</text></g><defs><clipPath id="clip106"><path d="M-2.5,-2.5 L556.5,-2.5 L556.5,192.5 L-2.5,192.5 L-2.5,-2.5 z"/></clipPath></defs><g clip-path="url(#clip106)" fill="none" opacity="1" stroke="#000000" stroke-linecap="butt" stroke-linejoin="miter" stroke-miterlimit="2" stroke-opacity="1" stroke-width="1" transform="matrix(1,0,0,1,2.5,2.5)"><path d="M7,0 L23,0 C26.866,0 30,3.13401 30,7 C30,10.866 26.866,14 23,14 L7,14 C3.13401,14 0,10.866 0,7 C0,3.13401 3.13401,0 7,0 z" fill-rule="nonzero" vector-effect="none"/></g><defs><clipPath id="clip112"><path d="M0,0 L16,0 L16,15 L0,15 L0,0 z"/></clipPath></defs><g clip-path="url(#clip112)" fill="none" opacity="1" stroke="#000000" stroke-linecap="square" stroke-linejoin="bevel" stroke-opacity="1" stroke-width="1" transform="matrix(1,0,0,1,9.07031,18)"><text fill="#000000" fill-opacity="1" font-family="Arial" font-size="10" font-style="normal" font-weight="400" stroke="none" textLength="13.8594" x="1" xml:space="preserve" y="11">I_d</text></g><defs><clipPath id="clip120"><path d="M-2,-92 L557,-92 L557,103 L-2,103 L-2,-92 z"/></clipPath></defs><g clip-path="url(#clip120)" fill="#ffffff" fill-opacity="1" opacity="1" stroke="none" stroke-opacity="0" transform="matrix(1,0,0,1,2,92)"><path d="M7,0 L23,0 C26.866,0 30,3.13401 30,7 C30,10.866 26.866,14 23,14 L7,14 C3.13401,14 0,10.866 0,7 C0,3.13401 3.13401,0 7,0 z" fill-rule="nonzero" vector-effect="none"/></g><defs><clipPath id="clip124"><path d="M-17,-9 L17,-9 L17,9 L-17,9 L-17,-9 z"/></clipPath></defs><g clip-path="url(#clip124)" fill="none" opacity="1" stroke="#000000" stroke-linecap="butt" stroke-linejoin="miter" stroke-miterlimit="2" stroke-opacity="1" stroke-width="1" transform="matrix(1,0,0,1,17,99)"><text fill="#000000" fill-opacity="1" font-family="Arial" font-size="10" font-style="normal" font-weight="400" stroke="none" textLength="5.54688" x="-2.76563" xml:space="preserve" y="3.5">2</text></g><defs><clipPath id="clip129"><path d="M-2.5,-92.5 L556.5,-92.5 L556.5,102.5 L-2.5,102.5 L-2.5,-92.5 z"/></clipPath></defs><g clip-path="url(#clip129)" fill="none" opacity="1" stroke="#000000" stroke-linecap="butt" stroke-linejoin="miter" stroke-miterlimit="2" stroke-opacity="1" stroke-width="1" transform="matrix(1,0,0,1,2.5,92.5)"><path d="M7,0 L23,0 C26.866,0 30,3.13401 30,7 C30,10.866 26.866,14 23,14 L7,14 C3.13401,14 0,10.866 0,7 C0,3.13401 3.13401,0 7,0 z" fill-rule="nonzero" vector-effect="none"/></g><defs><clipPath id="clip135"><path d="M0,0 L26,0 L26,15 L0,15 L0,0 z"/></clipPath></defs><g clip-path="url(#clip135)" fill="none" opacity="1" stroke="#000000" stroke-linecap="square" stroke-linejoin="bevel" stroke-opacity="1" stroke-width="1" transform="matrix(1,0,0,1,4.07031,108)"><text fill="#000000" fill-opacity="1" font-family="Arial" font-size="10" font-style="normal" font-weight="400" stroke="none" textLength="23.8594" x="1" xml:space="preserve" y="11">psi_d</text></g><defs><clipPath id="clip143"><path d="M-272,-162 L287,-162 L287,33 L-272,33 L-272,-162 z"/></clipPath></defs><g clip-path="url(#clip143)" fill="#ffffff" fill-opacity="1" opacity="1" stroke="none" stroke-opacity="0" transform="matrix(1,0,0,1,272,162)"><path d="M7,0 L23,0 C26.866,0 30,3.13401 30,7 C30,10.866 26.866,14 23,14 L7,14 C3.13401,14 0,10.866 0,7 C0,3.13401 3.13401,0 7,0 z" fill-rule="nonzero" vector-effect="none"/></g><defs><clipPath id="clip147"><path d="M-17,-9 L17,-9 L17,9 L-17,9 L-17,-9 z"/></clipPath></defs><g clip-path="url(#clip147)" fill="none" opacity="1" stroke="#000000" stroke-linecap="butt" stroke-linejoin="miter" stroke-miterlimit="2" stroke-opacity="1" stroke-width="1" transform="matrix(1,0,0,1,287,169)"><text fill="#000000" fill-opacity="1" font-family="Arial" font-size="10" font-style="normal" font-weight="400" stroke="none" textLength="5.54688" x="-2.76563" xml:space="preserve" y="3.5">4</text></g><defs><clipPath id="clip152"><path d="M-272.5,-162.5 L286.5,-162.5 L286.5,32.5 L-272.5,32.5 L-272.5,-162.5 z"/></clipPath></defs><g clip-path="url(#clip152)" fill="none" opacity="1" stroke="#000000" stroke-linecap="butt" stroke-linejoin="miter" stroke-miterlimit="2" stroke-opacity="1" stroke-width="1" transform="matrix(1,0,0,1,272.5,162.5)"><path d="M7,0 L23,0 C26.866,0 30,3.13401 30,7 C30,10.866 26.866,14 23,14 L7,14 C3.13401,14 0,10.866 0,7 C0,3.13401 3.13401,0 7,0 z" fill-rule="nonzero" vector-effect="none"/></g><defs><clipPath id="clip158"><path d="M0,0 L43,0 L43,15 L0,15 L0,0 z"/></clipPath></defs><g clip-path="url(#clip158)" fill="none" opacity="1" stroke="#000000" stroke-linecap="square" stroke-linejoin="bevel" stroke-opacity="1" stroke-width="1" transform="matrix(1,0,0,1,265.75,178)"><text fill="#000000" fill-opacity="1" font-family="Arial" font-size="10" font-style="normal" font-weight="400" stroke="none" textLength="40.5" x="1" xml:space="preserve" y="11">polepairs</text></g><defs><clipPath id="clip166"><path d="M-2,-42 L557,-42 L557,153 L-2,153 L-2,-42 z"/></clipPath></defs><g clip-path="url(#clip166)" fill="#ffffff" fill-opacity="1" opacity="1" stroke="none" stroke-opacity="0" transform="matrix(1,0,0,1,2,42)"><path d="M7,0 L23,0 C26.866,0 30,3.13401 30,7 C30,10.866 26.866,14 23,14 L7,14 C3.13401,14 0,10.866 0,7 C0,3.13401 3.13401,0 7,0 z" fill-rule="nonzero" vector-effect="none"/></g><defs><clipPath id="clip170"><path d="M-17,-9 L17,-9 L17,9 L-17,9 L-17,-9 z"/></clipPath></defs><g clip-path="url(#clip170)" fill="none" opacity="1" stroke="#000000" stroke-linecap="butt" stroke-linejoin="miter" stroke-miterlimit="2" stroke-opacity="1" stroke-width="1" transform="matrix(1,0,0,1,17,49)"><text fill="#000000" fill-opacity="1" font-family="Arial" font-size="10" font-style="normal" font-weight="400" stroke="none" textLength="5.54688" x="-2.76563" xml:space="preserve" y="3.5">3</text></g><defs><clipPath id="clip175"><path d="M-2.5,-42.5 L556.5,-42.5 L556.5,152.5 L-2.5,152.5 L-2.5,-42.5 z"/></clipPath></defs><g clip-path="url(#clip175)" fill="none" opacity="1" stroke="#000000" stroke-linecap="butt" stroke-linejoin="miter" stroke-miterlimit="2" stroke-opacity="1" stroke-width="1" transform="matrix(1,0,0,1,2.5,42.5)"><path d="M7,0 L23,0 C26.866,0 30,3.13401 30,7 C30,10.866 26.866,14 23,14 L7,14 C3.13401,14 0,10.866 0,7 C0,3.13401 3.13401,0 7,0 z" fill-rule="nonzero" vector-effect="none"/></g><defs><clipPath id="clip181"><path d="M0,0 L26,0 L26,15 L0,15 L0,0 z"/></clipPath></defs><g clip-path="url(#clip181)" fill="none" opacity="1" stroke="#000000" stroke-linecap="square" stroke-linejoin="bevel" stroke-opacity="1" stroke-width="1" transform="matrix(1,0,0,1,4.07031,58)"><text fill="#000000" fill-opacity="1" font-family="Arial" font-size="10" font-style="normal" font-weight="400" stroke="none" textLength="23.8594" x="1" xml:space="preserve" y="11">psi_q</text></g><defs><clipPath id="clip189"><path d="M-2,-127 L557,-127 L557,68 L-2,68 L-2,-127 z"/></clipPath></defs><g clip-path="url(#clip189)" fill="#ffffff" fill-opacity="1" opacity="1" stroke="none" stroke-opacity="0" transform="matrix(1,0,0,1,2,127)"><path d="M7,0 L23,0 C26.866,0 30,3.13401 30,7 C30,10.866 26.866,14 23,14 L7,14 C3.13401,14 0,10.866 0,7 C0,3.13401 3.13401,0 7,0 z" fill-rule="nonzero" vector-effect="none"/></g><defs><clipPath id="clip193"><path d="M-17,-9 L17,-9 L17,9 L-17,9 L-17,-9 z"/></clipPath></defs><g clip-path="url(#clip193)" fill="none" opacity="1" stroke="#000000" stroke-linecap="butt" stroke-linejoin="miter" stroke-miterlimit="2" stroke-opacity="1" stroke-width="1" transform="matrix(1,0,0,1,17,134)"><text fill="#000000" fill-opacity="1" font-family="Arial" font-size="10" font-style="normal" font-weight="400" stroke="none" textLength="5.54688" x="-2.76563" xml:space="preserve" y="3.5">5</text></g><defs><clipPath id="clip198"><path d="M-2.5,-127.5 L556.5,-127.5 L556.5,67.5 L-2.5,67.5 L-2.5,-127.5 z"/></clipPath></defs><g clip-path="url(#clip198)" fill="none" opacity="1" stroke="#000000" stroke-linecap="butt" stroke-linejoin="miter" stroke-miterlimit="2" stroke-opacity="1" stroke-width="1" transform="matrix(1,0,0,1,2.5,127.5)"><path d="M7,0 L23,0 C26.866,0 30,3.13401 30,7 C30,10.866 26.866,14 23,14 L7,14 C3.13401,14 0,10.866 0,7 C0,3.13401 3.13401,0 7,0 z" fill-rule="nonzero" vector-effect="none"/></g><defs><clipPath id="clip204"><path d="M0,0 L16,0 L16,15 L0,15 L0,0 z"/></clipPath></defs><g clip-path="url(#clip204)" fill="none" opacity="1" stroke="#000000" stroke-linecap="square" stroke-linejoin="bevel" stroke-opacity="1" stroke-width="1" transform="matrix(1,0,0,1,9.07031,143)"><text fill="#000000" fill-opacity="1" font-family="Arial" font-size="10" font-style="normal" font-weight="400" stroke="none" textLength="13.8594" x="1" xml:space="preserve" y="11">I_q</text></g><defs><clipPath id="clip212"><path d="M-527,-87 L32,-87 L32,108 L-527,108 L-527,-87 z"/></clipPath></defs><g clip-path="url(#clip212)" fill="#ffffff" fill-opacity="1" opacity="1" stroke="none" stroke-opacity="0" transform="matrix(1,0,0,1,527,87)"><path d="M7,0 L23,0 C26.866,0 30,3.13401 30,7 C30,10.866 26.866,14 23,14 L7,14 C3.13401,14 0,10.866 0,7 C0,3.13401 3.13401,0 7,0 z" fill-rule="nonzero" vector-effect="none"/></g><defs><clipPath id="clip216"><path d="M-17,-9 L17,-9 L17,9 L-17,9 L-17,-9 z"/></clipPath></defs><g clip-path="url(#clip216)" fill="none" opacity="1" stroke="#000000" stroke-linecap="butt" stroke-linejoin="miter" stroke-miterlimit="2" stroke-opacity="1" stroke-width="1" transform="matrix(1,0,0,1,542,94)"><text fill="#000000" fill-opacity="1" font-family="Arial" font-size="10" font-style="normal" font-weight="400" stroke="none" textLength="5.54688" x="-2.76563" xml:space="preserve" y="3.5">1</text></g><defs><clipPath id="clip221"><path d="M-527.5,-87.5 L31.5,-87.5 L31.5,107.5 L-527.5,107.5 L-527.5,-87.5 z"/></clipPath></defs><g clip-path="url(#clip221)" fill="none" opacity="1" stroke="#000000" stroke-linecap="butt" stroke-linejoin="miter" stroke-miterlimit="2" stroke-opacity="1" stroke-width="1" transform="matrix(1,0,0,1,527.5,87.5)"><path d="M7,0 L23,0 C26.866,0 30,3.13401 30,7 C30,10.866 26.866,14 23,14 L7,14 C3.13401,14 0,10.866 0,7 C0,3.13401 3.13401,0 7,0 z" fill-rule="nonzero" vector-effect="none"/></g><defs><clipPath id="clip227"><path d="M0,0 L26,0 L26,15 L0,15 L0,0 z"/></clipPath></defs><g clip-path="url(#clip227)" fill="none" opacity="1" stroke="#000000" stroke-linecap="square" stroke-linejoin="bevel" stroke-opacity="1" stroke-width="1" transform="matrix(1,0,0,1,528.789,103)"><text fill="#000000" fill-opacity="1" font-family="Arial" font-size="10" font-style="normal" font-weight="400" stroke="none" textLength="24.4219" x="1" xml:space="preserve" y="11">M_Mi</text></g><defs><clipPath id="clip235"><path d="M-222,-84 L337,-84 L337,111 L-222,111 L-222,-84 z"/></clipPath></defs><g clip-path="url(#clip235)" fill="#000000" fill-opacity="1" opacity="1" stroke="none" stroke-opacity="0" transform="matrix(1,0,0,1,222,84)"><path d="M0,0 L-8,-4 L-8,4 L0,0 z" fill-rule="nonzero" vector-effect="none"/></g><defs><clipPath id="clip238"><path d="M273,321 L832,321 L832,516 L273,516 L273,321 z"/></clipPath></defs><g clip-path="url(#clip238)" fill="none" opacity="1" stroke="#000000" stroke-linecap="butt" stroke-linejoin="miter" stroke-miterlimit="2" stroke-opacity="1" stroke-width="1" transform="matrix(1,0,0,1,-273,-321)"><path d="M450.5,405.5 L487.5,405.5" fill-rule="evenodd" vector-effect="none"/></g><defs><clipPath id="clip241"><path d="M-74,167 L-74,-392 L121,-392 L121,167 L-74,167 z"/></clipPath></defs><g clip-path="url(#clip241)" fill="#000000" fill-opacity="1" opacity="1" stroke="none" stroke-opacity="0" transform="matrix(6.12323e-17,1,-1,6.12323e-17,167,74)"><path d="M0,0 L-8,-4 L-8,4 L0,0 z" fill-rule="nonzero" vector-effect="none"/></g><defs><clipPath id="clip244"><path d="M273,321 L832,321 L832,516 L273,516 L273,321 z"/></clipPath></defs><g clip-path="url(#clip244)" fill="none" opacity="1" stroke="#000000" stroke-linecap="butt" stroke-linejoin="miter" stroke-miterlimit="2" stroke-opacity="1" stroke-width="1" transform="matrix(1,0,0,1,-273,-321)"><path d="M410.5,365.5 L440.5,365.5 L440.5,387.5" fill-rule="evenodd" vector-effect="none"/></g><defs><clipPath id="clip247"><path d="M94,-167 L94,392 L-101,392 L-101,-167 L94,-167 z"/></clipPath></defs><g clip-path="url(#clip247)" fill="#000000" fill-opacity="1" opacity="1" stroke="none" stroke-opacity="0" transform="matrix(6.12323e-17,-1,1,6.12323e-17,167,94)"><path d="M0,0 L-8,-4 L-8,4 L0,0 z" fill-rule="nonzero" vector-effect="none"/></g><defs><clipPath id="clip250"><path d="M273,321 L832,321 L832,516 L273,516 L273,321 z"/></clipPath></defs><g clip-path="url(#clip250)" fill="none" opacity="1" stroke="#000000" stroke-linecap="butt" stroke-linejoin="miter" stroke-miterlimit="2" stroke-opacity="1" stroke-width="1" transform="matrix(1,0,0,1,-273,-321)"><path d="M410.5,450.5 L440.5,450.5 L440.5,423.5" fill-rule="evenodd" vector-effect="none"/></g><defs><clipPath id="clip253"><path d="M-527,-94 L32,-94 L32,101 L-527,101 L-527,-94 z"/></clipPath></defs><g clip-path="url(#clip253)" fill="#000000" fill-opacity="1" opacity="1" stroke="none" stroke-opacity="0" transform="matrix(1,0,0,1,527,94)"><path d="M0,0 L-8,-4 L-8,4 L0,0 z" fill-rule="nonzero" vector-effect="none"/></g><defs><clipPath id="clip256"><path d="M273,321 L832,321 L832,516 L273,516 L273,321 z"/></clipPath></defs><g clip-path="url(#clip256)" fill="none" opacity="1" stroke="#000000" stroke-linecap="butt" stroke-linejoin="miter" stroke-miterlimit="2" stroke-opacity="1" stroke-width="1" transform="matrix(1,0,0,1,-273,-321)"><path d="M740.5,415.5 L792.5,415.5" fill-rule="evenodd" vector-effect="none"/></g><defs><clipPath id="clip262"><path d="M0,0 L24,0 L24,13 L0,13 L0,0 z"/></clipPath></defs><g clip-path="url(#clip262)" fill="none" opacity="1" stroke="#000000" stroke-linecap="square" stroke-linejoin="bevel" stroke-opacity="1" stroke-width="1" transform="matrix(1,0,0,1,472,95.5)"><text fill="#000000" fill-opacity="1" font-family="Arial" font-size="9" font-style="normal" font-weight="400" stroke="none" textLength="21.9531" x="1" xml:space="preserve" y="10">M_Mi</text></g><defs><clipPath id="clip270"><path d="M-437,-84 L122,-84 L122,111 L-437,111 L-437,-84 z"/></clipPath></defs><g clip-path="url(#clip270)" fill="#000000" fill-opacity="1" opacity="1" stroke="none" stroke-opacity="0" transform="matrix(1,0,0,1,437,84)"><path d="M0,0 L-8,-4 L-8,4 L0,0 z" fill-rule="nonzero" vector-effect="none"/></g><defs><clipPath id="clip273"><path d="M273,321 L832,321 L832,516 L273,516 L273,321 z"/></clipPath></defs><g clip-path="url(#clip273)" fill="none" opacity="1" stroke="#000000" stroke-linecap="butt" stroke-linejoin="miter" stroke-miterlimit="2" stroke-opacity="1" stroke-width="1" transform="matrix(1,0,0,1,-273,-321)"><path d="M630.5,405.5 L702.5,405.5" fill-rule="evenodd" vector-effect="none"/></g><defs><clipPath id="clip279"><path d="M0,0 L24,0 L24,13 L0,13 L0,0 z"/></clipPath></defs><g clip-path="url(#clip279)" fill="none" opacity="1" stroke="#000000" stroke-linecap="square" stroke-linejoin="bevel" stroke-opacity="1" stroke-width="1" transform="matrix(1,0,0,1,362,85.5)"><text fill="#000000" fill-opacity="1" font-family="Arial" font-size="9" font-style="normal" font-weight="400" stroke="none" textLength="21.9531" x="1" xml:space="preserve" y="10">M_Mi</text></g><defs><clipPath id="clip287"><path d="M-107,-34 L452,-34 L452,161 L-107,161 L-107,-34 z"/></clipPath></defs><g clip-path="url(#clip287)" fill="#000000" fill-opacity="1" opacity="1" stroke="none" stroke-opacity="0" transform="matrix(1,0,0,1,107,34)"><path d="M0,0 L-8,-4 L-8,4 L0,0 z" fill-rule="nonzero" vector-effect="none"/></g><defs><clipPath id="clip290"><path d="M273,321 L832,321 L832,516 L273,516 L273,321 z"/></clipPath></defs><g clip-path="url(#clip290)" fill="none" opacity="1" stroke="#000000" stroke-linecap="butt" stroke-linejoin="miter" stroke-miterlimit="2" stroke-opacity="1" stroke-width="1" transform="matrix(1,0,0,1,-273,-321)"><path d="M305.5,330.5 L343.5,330.5 L343.5,355.5 L372.5,355.5" fill-rule="evenodd" vector-effect="none"/></g><defs><clipPath id="clip293"><path d="M-107,-119 L452,-119 L452,76 L-107,76 L-107,-119 z"/></clipPath></defs><g clip-path="url(#clip293)" fill="#000000" fill-opacity="1" opacity="1" stroke="none" stroke-opacity="0" transform="matrix(1,0,0,1,107,119)"><path d="M0,0 L-8,-4 L-8,4 L0,0 z" fill-rule="nonzero" vector-effect="none"/></g><defs><clipPath id="clip296"><path d="M273,321 L832,321 L832,516 L273,516 L273,321 z"/></clipPath></defs><g clip-path="url(#clip296)" fill="none" opacity="1" stroke="#000000" stroke-linecap="butt" stroke-linejoin="miter" stroke-miterlimit="2" stroke-opacity="1" stroke-width="1" transform="matrix(1,0,0,1,-273,-321)"><path d="M305.5,420.5 L343.5,420.5 L343.5,440.5 L372.5,440.5" fill-rule="evenodd" vector-effect="none"/></g><defs><clipPath id="clip299"><path d="M-437,-99 L122,-99 L122,96 L-437,96 L-437,-99 z"/></clipPath></defs><g clip-path="url(#clip299)" fill="#000000" fill-opacity="1" opacity="1" stroke="none" stroke-opacity="0" transform="matrix(1,0,0,1,437,99)"><path d="M0,0 L-8,-4 L-8,4 L0,0 z" fill-rule="nonzero" vector-effect="none"/></g><defs><clipPath id="clip302"><path d="M273,321 L832,321 L832,516 L273,516 L273,321 z"/></clipPath></defs><g clip-path="url(#clip302)" fill="none" opacity="1" stroke="#000000" stroke-linecap="butt" stroke-linejoin="miter" stroke-miterlimit="2" stroke-opacity="1" stroke-width="1" transform="matrix(1,0,0,1,-273,-321)"><path d="M575.5,490.5 L670.5,490.5 L670.5,420.5 L702.5,420.5" fill-rule="evenodd" vector-effect="none"/></g><defs><clipPath id="clip305"><path d="M-107,-49 L452,-49 L452,146 L-107,146 L-107,-49 z"/></clipPath></defs><g clip-path="url(#clip305)" fill="#000000" fill-opacity="1" opacity="1" stroke="none" stroke-opacity="0" transform="matrix(1,0,0,1,107,49)"><path d="M0,0 L-8,-4 L-8,4 L0,0 z" fill-rule="nonzero" vector-effect="none"/></g><defs><clipPath id="clip308"><path d="M273,321 L832,321 L832,516 L273,516 L273,321 z"/></clipPath></defs><g clip-path="url(#clip308)" fill="none" opacity="1" stroke="#000000" stroke-linecap="butt" stroke-linejoin="miter" stroke-miterlimit="2" stroke-opacity="1" stroke-width="1" transform="matrix(1,0,0,1,-273,-321)"><path d="M305.5,370.5 L372.5,370.5" fill-rule="evenodd" vector-effect="none"/></g><defs><clipPath id="clip311"><path d="M-107,-134 L452,-134 L452,61 L-107,61 L-107,-134 z"/></clipPath></defs><g clip-path="url(#clip311)" fill="#000000" fill-opacity="1" opacity="1" stroke="none" stroke-opacity="0" transform="matrix(1,0,0,1,107,134)"><path d="M0,0 L-8,-4 L-8,4 L0,0 z" fill-rule="nonzero" vector-effect="none"/></g><defs><clipPath id="clip314"><path d="M273,321 L832,321 L832,516 L273,516 L273,321 z"/></clipPath></defs><g clip-path="url(#clip314)" fill="none" opacity="1" stroke="#000000" stroke-linecap="butt" stroke-linejoin="miter" stroke-miterlimit="2" stroke-opacity="1" stroke-width="1" transform="matrix(1,0,0,1,-273,-321)"><path d="M305.5,455.5 L372.5,455.5" fill-rule="evenodd" vector-effect="none"/></g></g><!--generated on windows @ 2026-01-22 09:49:15 Mitteleuropäische Zeit--></svg>
