<?xml version="1.0" encoding="UTF-8" standalone="no"?>
<!-- Created with Inkscape (http://www.inkscape.org/) -->

<svg
   version="1.1"
   id="svg2"
   width="754.66669"
   height="246.66667"
   viewBox="0 0 754.66669 246.66667"
   sodipodi:docname="theta_off.eps"
   xmlns:inkscape="http://www.inkscape.org/namespaces/inkscape"
   xmlns:sodipodi="http://sodipodi.sourceforge.net/DTD/sodipodi-0.dtd"
   xmlns="http://www.w3.org/2000/svg"
   xmlns:svg="http://www.w3.org/2000/svg">
  <defs
     id="defs6" />
  <sodipodi:namedview
     id="namedview4"
     pagecolor="#ffffff"
     bordercolor="#000000"
     borderopacity="0.25"
     inkscape:showpageshadow="2"
     inkscape:pageopacity="0.0"
     inkscape:pagecheckerboard="0"
     inkscape:deskcolor="#d1d1d1" />
  <g
     id="g8"
     inkscape:groupmode="layer"
     inkscape:label="ink_ext_XXXXXX"
     transform="matrix(1.3333333,0,0,-1.3333333,0,246.66667)">
    <g
       id="g10"
       transform="scale(0.1)">
      <path
         d="M -520,0 H 6230 V 1875 H -520 Z"
         style="fill:#ffffff;fill-opacity:1;fill-rule:nonzero;stroke:none"
         id="path12" />
      <path
         d="M -520,0 H 6230 V 1875 H -520 Z"
         style="fill:#ffffff;fill-opacity:1;fill-rule:nonzero;stroke:none"
         id="path14" />
      <path
         d="m 357.5,292.5 h 5235 V 1725 h -5235 z"
         style="fill:#ffffff;fill-opacity:1;fill-rule:nonzero;stroke:none"
         id="path16" />
      <path
         d="M 357.5,292.5 V 1725"
         style="fill:none;stroke:#dfdfdf;stroke-width:5.0025;stroke-linecap:butt;stroke-linejoin:round;stroke-miterlimit:10;stroke-dasharray:none;stroke-opacity:1"
         id="path18" />
      <path
         d="M 1230,292.5 V 1725"
         style="fill:none;stroke:#dfdfdf;stroke-width:5.0025;stroke-linecap:butt;stroke-linejoin:round;stroke-miterlimit:10;stroke-dasharray:none;stroke-opacity:1"
         id="path20" />
      <path
         d="M 2102.5,292.5 V 1725"
         style="fill:none;stroke:#dfdfdf;stroke-width:5.0025;stroke-linecap:butt;stroke-linejoin:round;stroke-miterlimit:10;stroke-dasharray:none;stroke-opacity:1"
         id="path22" />
      <path
         d="M 2975,292.5 V 1725"
         style="fill:none;stroke:#dfdfdf;stroke-width:5.0025;stroke-linecap:butt;stroke-linejoin:round;stroke-miterlimit:10;stroke-dasharray:none;stroke-opacity:1"
         id="path24" />
      <path
         d="M 3847.5,292.5 V 1725"
         style="fill:none;stroke:#dfdfdf;stroke-width:5.0025;stroke-linecap:butt;stroke-linejoin:round;stroke-miterlimit:10;stroke-dasharray:none;stroke-opacity:1"
         id="path26" />
      <path
         d="M 4720,292.5 V 1725"
         style="fill:none;stroke:#dfdfdf;stroke-width:5.0025;stroke-linecap:butt;stroke-linejoin:round;stroke-miterlimit:10;stroke-dasharray:none;stroke-opacity:1"
         id="path28" />
      <path
         d="M 5592.5,292.5 V 1725"
         style="fill:none;stroke:#dfdfdf;stroke-width:5.0025;stroke-linecap:butt;stroke-linejoin:round;stroke-miterlimit:10;stroke-dasharray:none;stroke-opacity:1"
         id="path30" />
      <path
         d="M 5592.5,292.5 H 357.5"
         style="fill:none;stroke:#dfdfdf;stroke-width:5.0025;stroke-linecap:butt;stroke-linejoin:round;stroke-miterlimit:10;stroke-dasharray:none;stroke-opacity:1"
         id="path32" />
      <path
         d="M 5592.5,770.004 H 357.5"
         style="fill:none;stroke:#dfdfdf;stroke-width:5.0025;stroke-linecap:butt;stroke-linejoin:round;stroke-miterlimit:10;stroke-dasharray:none;stroke-opacity:1"
         id="path34" />
      <path
         d="M 5592.5,1247.5 H 357.5"
         style="fill:none;stroke:#dfdfdf;stroke-width:5.0025;stroke-linecap:butt;stroke-linejoin:round;stroke-miterlimit:10;stroke-dasharray:none;stroke-opacity:1"
         id="path36" />
      <path
         d="M 5592.5,1725 H 357.5"
         style="fill:none;stroke:#dfdfdf;stroke-width:5.0025;stroke-linecap:butt;stroke-linejoin:round;stroke-miterlimit:10;stroke-dasharray:none;stroke-opacity:1"
         id="path38" />
      <path
         d="m 357.5,292.5 h 5235"
         style="fill:none;stroke:#262626;stroke-width:5.0025;stroke-linecap:square;stroke-linejoin:round;stroke-miterlimit:10;stroke-dasharray:none;stroke-opacity:1"
         id="path40" />
      <path
         d="m 357.5,1725 h 5235"
         style="fill:none;stroke:#262626;stroke-width:5.0025;stroke-linecap:square;stroke-linejoin:round;stroke-miterlimit:10;stroke-dasharray:none;stroke-opacity:1"
         id="path42" />
      <path
         d="m 357.5,292.5 v 52.352"
         style="fill:none;stroke:#262626;stroke-width:5.0025;stroke-linecap:square;stroke-linejoin:round;stroke-miterlimit:10;stroke-dasharray:none;stroke-opacity:1"
         id="path44" />
      <path
         d="m 1230,292.5 v 52.352"
         style="fill:none;stroke:#262626;stroke-width:5.0025;stroke-linecap:square;stroke-linejoin:round;stroke-miterlimit:10;stroke-dasharray:none;stroke-opacity:1"
         id="path46" />
      <path
         d="m 2102.5,292.5 v 52.352"
         style="fill:none;stroke:#262626;stroke-width:5.0025;stroke-linecap:square;stroke-linejoin:round;stroke-miterlimit:10;stroke-dasharray:none;stroke-opacity:1"
         id="path48" />
      <path
         d="m 2975,292.5 v 52.352"
         style="fill:none;stroke:#262626;stroke-width:5.0025;stroke-linecap:square;stroke-linejoin:round;stroke-miterlimit:10;stroke-dasharray:none;stroke-opacity:1"
         id="path50" />
      <path
         d="m 3847.5,292.5 v 52.352"
         style="fill:none;stroke:#262626;stroke-width:5.0025;stroke-linecap:square;stroke-linejoin:round;stroke-miterlimit:10;stroke-dasharray:none;stroke-opacity:1"
         id="path52" />
      <path
         d="m 4720,292.5 v 52.352"
         style="fill:none;stroke:#262626;stroke-width:5.0025;stroke-linecap:square;stroke-linejoin:round;stroke-miterlimit:10;stroke-dasharray:none;stroke-opacity:1"
         id="path54" />
      <path
         d="m 5592.5,292.5 v 52.352"
         style="fill:none;stroke:#262626;stroke-width:5.0025;stroke-linecap:square;stroke-linejoin:round;stroke-miterlimit:10;stroke-dasharray:none;stroke-opacity:1"
         id="path56" />
      <path
         d="m 357.5,1725 v -52.35"
         style="fill:none;stroke:#262626;stroke-width:5.0025;stroke-linecap:square;stroke-linejoin:round;stroke-miterlimit:10;stroke-dasharray:none;stroke-opacity:1"
         id="path58" />
      <path
         d="m 1230,1725 v -52.35"
         style="fill:none;stroke:#262626;stroke-width:5.0025;stroke-linecap:square;stroke-linejoin:round;stroke-miterlimit:10;stroke-dasharray:none;stroke-opacity:1"
         id="path60" />
      <path
         d="m 2102.5,1725 v -52.35"
         style="fill:none;stroke:#262626;stroke-width:5.0025;stroke-linecap:square;stroke-linejoin:round;stroke-miterlimit:10;stroke-dasharray:none;stroke-opacity:1"
         id="path62" />
      <path
         d="m 2975,1725 v -52.35"
         style="fill:none;stroke:#262626;stroke-width:5.0025;stroke-linecap:square;stroke-linejoin:round;stroke-miterlimit:10;stroke-dasharray:none;stroke-opacity:1"
         id="path64" />
      <path
         d="m 3847.5,1725 v -52.35"
         style="fill:none;stroke:#262626;stroke-width:5.0025;stroke-linecap:square;stroke-linejoin:round;stroke-miterlimit:10;stroke-dasharray:none;stroke-opacity:1"
         id="path66" />
      <path
         d="m 4720,1725 v -52.35"
         style="fill:none;stroke:#262626;stroke-width:5.0025;stroke-linecap:square;stroke-linejoin:round;stroke-miterlimit:10;stroke-dasharray:none;stroke-opacity:1"
         id="path68" />
      <path
         d="m 5592.5,1725 v -52.35"
         style="fill:none;stroke:#262626;stroke-width:5.0025;stroke-linecap:square;stroke-linejoin:round;stroke-miterlimit:10;stroke-dasharray:none;stroke-opacity:1"
         id="path70" />
      <g
         id="g72"
         transform="scale(10)">
        <text
           xml:space="preserve"
           transform="matrix(1,0,0,-1,29.0004,16.1004)"
           style="font-variant:normal;font-weight:normal;font-size:9.50025px;font-family:Helvetica;-inkscape-font-specification:Helvetica;writing-mode:lr-tb;fill:#262626;fill-opacity:1;fill-rule:nonzero;stroke:none"
           id="text76"><tspan
             x="0 5.2821388 7.9232087 84.624619 89.906754 92.547829 97.829964 174.50002 179.78217 182.42323 259.12427 264.4064 267.04745 272.32962 348.99966 354.2818 356.92288 433.62503 438.90717 441.54825 446.83038 523.49957 528.78174 531.42279"
             y="0"
             sodipodi:role="line"
             id="tspan74">5.35.355.45.455.55.555.6</tspan></text>
        <text
           xml:space="preserve"
           transform="matrix(1,0,0,-1,256.6254,3)"
           style="font-variant:normal;font-weight:normal;font-size:10.4497px;font-family:Helvetica;-inkscape-font-specification:Helvetica;writing-mode:lr-tb;fill:#262626;fill-opacity:1;fill-rule:nonzero;stroke:none"
           id="text80"><tspan
             x="0 8.1298666 11.034883 13.939899 19.164749 24.974783 27.879799 30.784817 36.594849 42.404884 48.214916 50.534748 56.344784 59.249798 62.729549 66.209297 72.019333 77.829369"
             y="0"
             sodipodi:role="line"
             id="tspan78">Offset angle (rad)</tspan></text>
      </g>
      <path
         d="M 357.5,292.5 V 1725"
         style="fill:none;stroke:#262626;stroke-width:5.0025;stroke-linecap:square;stroke-linejoin:round;stroke-miterlimit:10;stroke-dasharray:none;stroke-opacity:1"
         id="path82" />
      <path
         d="M 5592.5,292.5 V 1725"
         style="fill:none;stroke:#262626;stroke-width:5.0025;stroke-linecap:square;stroke-linejoin:round;stroke-miterlimit:10;stroke-dasharray:none;stroke-opacity:1"
         id="path84" />
      <path
         d="m 357.5,292.5 h 52.352"
         style="fill:none;stroke:#262626;stroke-width:5.0025;stroke-linecap:square;stroke-linejoin:round;stroke-miterlimit:10;stroke-dasharray:none;stroke-opacity:1"
         id="path86" />
      <path
         d="m 357.5,770.004 h 52.352"
         style="fill:none;stroke:#262626;stroke-width:5.0025;stroke-linecap:square;stroke-linejoin:round;stroke-miterlimit:10;stroke-dasharray:none;stroke-opacity:1"
         id="path88" />
      <path
         d="m 357.5,1247.5 h 52.352"
         style="fill:none;stroke:#262626;stroke-width:5.0025;stroke-linecap:square;stroke-linejoin:round;stroke-miterlimit:10;stroke-dasharray:none;stroke-opacity:1"
         id="path90" />
      <path
         d="m 357.5,1725 h 52.352"
         style="fill:none;stroke:#262626;stroke-width:5.0025;stroke-linecap:square;stroke-linejoin:round;stroke-miterlimit:10;stroke-dasharray:none;stroke-opacity:1"
         id="path92" />
      <path
         d="m 5592.5,292.5 h -52.35"
         style="fill:none;stroke:#262626;stroke-width:5.0025;stroke-linecap:square;stroke-linejoin:round;stroke-miterlimit:10;stroke-dasharray:none;stroke-opacity:1"
         id="path94" />
      <path
         d="m 5592.5,770.004 h -52.35"
         style="fill:none;stroke:#262626;stroke-width:5.0025;stroke-linecap:square;stroke-linejoin:round;stroke-miterlimit:10;stroke-dasharray:none;stroke-opacity:1"
         id="path96" />
      <path
         d="m 5592.5,1247.5 h -52.35"
         style="fill:none;stroke:#262626;stroke-width:5.0025;stroke-linecap:square;stroke-linejoin:round;stroke-miterlimit:10;stroke-dasharray:none;stroke-opacity:1"
         id="path98" />
      <path
         d="m 5592.5,1725 h -52.35"
         style="fill:none;stroke:#262626;stroke-width:5.0025;stroke-linecap:square;stroke-linejoin:round;stroke-miterlimit:10;stroke-dasharray:none;stroke-opacity:1"
         id="path100" />
      <g
         id="g102"
         transform="scale(10)">
        <text
           xml:space="preserve"
           transform="matrix(1,0,0,-1,18.8504,25.5004)"
           style="font-variant:normal;font-weight:normal;font-size:9.50025px;font-family:Helvetica;-inkscape-font-specification:Helvetica;writing-mode:lr-tb;fill:#262626;fill-opacity:1;fill-rule:nonzero;stroke:none"
           id="text112"><tspan
             x="0 5.2821388 7.9232087"
             y="0"
             sodipodi:role="line"
             id="tspan104">4.8</tspan><tspan
             x="-5.25 0.032139 2.6732085 7.9553475"
             y="-47.749599"
             sodipodi:role="line"
             id="tspan106">4.85</tspan><tspan
             x="0 5.2821388 7.9232087"
             y="-95.499603"
             sodipodi:role="line"
             id="tspan108">4.9</tspan><tspan
             x="-5.25 0.032139 2.6732085 7.9553475"
             y="-143.2496"
             sodipodi:role="line"
             id="tspan110">4.95</tspan></text>
        <text
           xml:space="preserve"
           transform="matrix(0,1,1,0,8.1,61.875)"
           style="font-variant:normal;font-weight:normal;font-size:10.4497px;font-family:Helvetica;-inkscape-font-specification:Helvetica;writing-mode:lr-tb;fill:#262626;fill-opacity:1;fill-rule:nonzero;stroke:none"
           id="text116"><tspan
             x="0 6.3847666 8.7046003 14.514633 19.739483 22.644501 24.964333 27.284166 33.0942 38.31905 44.129082 49.939117 55.749149 58.654167 62.133915 69.103867 74.328712"
             y="0"
             sodipodi:role="line"
             id="tspan114">Flux linkage (Vs)</tspan></text>
      </g>
      <path
         d="m 371.797,1750.31 c 0,0.47 0.156,0.94 0.469,1.41 l 20.273,20.16 -20.273,20.27 c -0.313,0.31 -0.469,0.74 -0.469,1.29 0,0.47 0.191,0.92 0.582,1.35 0.394,0.43 0.867,0.64 1.41,0.64 0.473,0 0.977,-0.23 1.524,-0.7 l 20.16,-20.16 20.031,20.16 c 0.551,0.47 1.019,0.7 1.41,0.7 0.547,0 1.012,-0.19 1.402,-0.58 0.395,-0.4 0.594,-0.87 0.594,-1.41 0,-0.55 -0.156,-0.98 -0.472,-1.29 l -20.274,-20.27 20.274,-20.16 c 0.316,-0.47 0.472,-0.94 0.472,-1.41 0,-0.54 -0.199,-1.01 -0.594,-1.4 -0.39,-0.39 -0.855,-0.59 -1.402,-0.59 -0.469,0 -0.937,0.23 -1.41,0.7 l -20.031,20.16 -20.16,-20.16 c -0.547,-0.47 -1.051,-0.7 -1.524,-0.7 -0.543,0 -1.016,0.21 -1.41,0.64 -0.391,0.43 -0.582,0.88 -0.582,1.35"
         style="fill:#262626;fill-opacity:1;fill-rule:nonzero;stroke:none"
         id="path118" />
      <g
         id="g120"
         transform="scale(10)">
        <text
           xml:space="preserve"
           transform="matrix(1,0,0,-1,43.25,174.75)"
           style="font-variant:normal;font-weight:normal;font-size:9.50025px;font-family:Helvetica;-inkscape-font-specification:Helvetica;writing-mode:lr-tb;fill:#262626;fill-opacity:1;fill-rule:nonzero;stroke:none"
           id="text124"><tspan
             x="0 5.2821388"
             y="0"
             sodipodi:role="line"
             id="tspan122">10</tspan></text>
        <text
           xml:space="preserve"
           transform="matrix(1,0,0,-1,54.5,179.25)"
           style="font-variant:normal;font-weight:normal;font-size:7.59975px;font-family:Helvetica;-inkscape-font-specification:Helvetica;writing-mode:lr-tb;fill:#262626;fill-opacity:1;fill-rule:nonzero;stroke:none"
           id="text128"><tspan
             x="0 2.5307167"
             y="0"
             sodipodi:role="line"
             id="tspan126">-3</tspan></text>
      </g>
      <path
         d="m 356.879,534.344 0.672,0.429 174.496,350.34 174.504,64.91 174.496,46.098 174.503,107.189 174.52,6.81 174.5,106.31 174.5,39.22 174.5,214.24 174.52,-17.67 174.5,88.35 174.5,-25.63 174.49,113.48 174.53,-12.74 174.49,33.68 174.51,-9.36 174.5,-1.54 174.49,19.35 174.53,17.49 174.49,-82.19 174.51,-21.31 174.49,-51.17 174.52,18.91 174.5,-18.52 174.5,1.94 174.5,-146.06 174.5,-26.97 174.52,-71.11 174.5,28.92 174.5,-75.99 174.5,-4.23"
         style="fill:none;stroke:#ff0000;stroke-width:5.0025;stroke-linecap:butt;stroke-linejoin:bevel;stroke-miterlimit:10;stroke-dasharray:75, 45;stroke-dashoffset:0;stroke-opacity:1"
         id="path130" />
      <path
         d="m 445.387,292.336 86.66,202.387 174.504,84.8 174.496,91.016 174.503,76.617 174.52,71.453 174.5,83.438 174.5,87.066 174.5,139.387 174.52,117.68 174.5,28.73 174.5,86.13 174.49,-6.61 174.53,78.66 174.49,-2.2 174.51,124.73 174.5,-79.2 174.49,73.54 174.53,-13.87 174.49,60.37 174.51,5.53 174.49,48.12 174.52,-8.52 174.5,3 174.5,28.94 174.5,-62.58 174.5,19.32 174.52,-15.45 174.5,-42.04 174.5,-111 174.5,26.16"
         style="fill:none;stroke:#0000ff;stroke-width:5.0025;stroke-linecap:butt;stroke-linejoin:bevel;stroke-miterlimit:10;stroke-dasharray:75, 45;stroke-dashoffset:0;stroke-opacity:1"
         id="path132" />
      <path
         d="M 3673.12,292.336 V 1725.17"
         style="fill:none;stroke:#000000;stroke-width:5.0025;stroke-linecap:butt;stroke-linejoin:round;stroke-miterlimit:10;stroke-dasharray:none;stroke-opacity:1"
         id="path134" />
      <path
         d="m 4985,367.5 h 525 v 315 h -525 z"
         style="fill:#ffffff;fill-opacity:1;fill-rule:nonzero;stroke:none"
         id="path136" />
      <path
         d="m 5357.07,561.441 3.99,15.356 c -2.43,0 -4.75,0.449 -6.98,1.348 -2.22,0.902 -4.04,2.226 -5.45,3.984 -1.4,1.758 -2.11,3.887 -2.11,6.387 0,1.406 0.26,3.007 0.77,4.8 0.5,1.801 1.05,3.481 1.63,5.043 0.59,1.563 1.4,3.594 2.41,6.094 0.7,1.953 1.05,3.594 1.05,4.922 0,1.641 -0.63,2.461 -1.88,2.461 -2.1,0 -3.88,-1.133 -5.33,-3.398 -1.44,-2.266 -2.48,-4.766 -3.1,-7.5 -0.16,-0.309 -0.39,-0.465 -0.7,-0.465 h -0.94 c -0.47,0 -0.7,0.23 -0.7,0.699 v 0.238 c 0.86,3.281 2.2,6.192 4.04,8.731 1.84,2.535 4.16,3.8 6.98,3.8 1.95,0 3.61,-0.64 4.98,-1.925 1.36,-1.289 2.04,-2.914 2.04,-4.868 0,-1.015 -0.23,-2.109 -0.7,-3.277 -1.02,-2.5 -1.8,-4.492 -2.34,-5.98 -0.55,-1.485 -1.07,-3.145 -1.59,-4.977 -0.5,-1.836 -0.76,-3.496 -0.76,-4.98 0,-2.735 0.84,-4.825 2.52,-6.27 1.68,-1.445 3.89,-2.363 6.62,-2.754 l 13.83,55.313 c 0.16,0.308 0.39,0.465 0.71,0.465 h 0.94 c 0.46,0 0.69,-0.235 0.69,-0.704 l -13.82,-55.195 h 0.94 c 2.34,0 4.78,0.684 7.32,2.047 2.54,1.371 4.86,3.168 6.97,5.394 2.11,2.223 3.79,4.606 5.04,7.149 1.25,2.539 1.88,4.941 1.88,7.207 0,1.641 -0.28,2.93 -0.83,3.867 -0.54,0.938 -1.24,1.91 -2.1,2.926 -0.86,1.019 -1.29,1.805 -1.29,2.348 0,1.097 0.45,2.089 1.34,2.984 0.91,0.902 1.9,1.352 2.99,1.352 1.25,0 2.17,-0.606 2.76,-1.817 0.59,-1.207 0.88,-2.598 0.88,-4.16 0,-1.563 -0.16,-3.16 -0.47,-4.801 -0.32,-1.644 -0.75,-3.558 -1.3,-5.746 -1.25,-5 -3.9,-9.492 -7.96,-13.476 -1.33,-1.407 -2.81,-2.676 -4.45,-3.809 -1.64,-1.133 -3.4,-2.027 -5.28,-2.695 -1.87,-0.664 -3.75,-0.996 -5.62,-0.996 h -1.29 l -3.86,-15.473 c -0.08,-0.309 -0.32,-0.465 -0.71,-0.465 h -0.94 c -0.23,0 -0.43,0.078 -0.58,0.234 -0.16,0.153 -0.24,0.348 -0.24,0.582"
         style="fill:#000000;fill-opacity:1;fill-rule:nonzero;stroke:none"
         id="path138" />
      <g
         id="g140"
         transform="scale(10)">
        <text
           xml:space="preserve"
           transform="matrix(1,0,0,-1,539.75,54)"
           style="font-variant:normal;font-weight:normal;font-size:6.84px;font-family:Helvetica;-inkscape-font-specification:Helvetica;writing-mode:lr-tb;fill:#000000;fill-opacity:1;fill-rule:nonzero;stroke:none"
           id="text144"><tspan
             x="0 3.80304"
             y="0"
             sodipodi:role="line"
             id="tspan142">d+</tspan></text>
      </g>
      <path
         d="m 5015,597.262 h 300"
         style="fill:none;stroke:#ff0000;stroke-width:5.0025;stroke-linecap:butt;stroke-linejoin:bevel;stroke-miterlimit:10;stroke-dasharray:75, 45;stroke-dashoffset:0;stroke-opacity:1"
         id="path146" />
      <path
         d="m 5357.07,411.441 3.99,15.356 c -2.43,0 -4.75,0.449 -6.98,1.348 -2.22,0.902 -4.04,2.226 -5.45,3.984 -1.4,1.758 -2.11,3.887 -2.11,6.387 0,1.406 0.26,3.007 0.77,4.8 0.5,1.801 1.05,3.481 1.63,5.043 0.59,1.563 1.4,3.594 2.41,6.094 0.7,1.953 1.05,3.594 1.05,4.922 0,1.641 -0.63,2.461 -1.88,2.461 -2.1,0 -3.88,-1.133 -5.33,-3.398 -1.44,-2.266 -2.48,-4.766 -3.1,-7.5 -0.16,-0.309 -0.39,-0.465 -0.7,-0.465 h -0.94 c -0.47,0 -0.7,0.23 -0.7,0.699 v 0.238 c 0.86,3.281 2.2,6.192 4.04,8.731 1.84,2.535 4.16,3.8 6.98,3.8 1.95,0 3.61,-0.64 4.98,-1.925 1.36,-1.289 2.04,-2.914 2.04,-4.868 0,-1.015 -0.23,-2.109 -0.7,-3.277 -1.02,-2.5 -1.8,-4.492 -2.34,-5.98 -0.55,-1.485 -1.07,-3.145 -1.59,-4.977 -0.5,-1.836 -0.76,-3.496 -0.76,-4.98 0,-2.735 0.84,-4.825 2.52,-6.27 1.68,-1.445 3.89,-2.363 6.62,-2.754 l 13.83,55.313 c 0.16,0.308 0.39,0.465 0.71,0.465 h 0.94 c 0.46,0 0.69,-0.235 0.69,-0.704 l -13.82,-55.195 h 0.94 c 2.34,0 4.78,0.684 7.32,2.047 2.54,1.371 4.86,3.168 6.97,5.394 2.11,2.223 3.79,4.606 5.04,7.149 1.25,2.539 1.88,4.941 1.88,7.207 0,1.641 -0.28,2.93 -0.83,3.867 -0.54,0.938 -1.24,1.91 -2.1,2.926 -0.86,1.019 -1.29,1.805 -1.29,2.348 0,1.097 0.45,2.089 1.34,2.984 0.91,0.902 1.9,1.352 2.99,1.352 1.25,0 2.17,-0.606 2.76,-1.817 0.59,-1.207 0.88,-2.598 0.88,-4.16 0,-1.563 -0.16,-3.16 -0.47,-4.801 -0.32,-1.644 -0.75,-3.558 -1.3,-5.746 -1.25,-5 -3.9,-9.492 -7.96,-13.476 -1.33,-1.407 -2.81,-2.676 -4.45,-3.809 -1.64,-1.133 -3.4,-2.027 -5.28,-2.695 -1.87,-0.664 -3.75,-0.996 -5.62,-0.996 h -1.29 l -3.86,-15.473 c -0.08,-0.309 -0.32,-0.465 -0.71,-0.465 h -0.94 c -0.23,0 -0.43,0.078 -0.58,0.234 -0.16,0.153 -0.24,0.348 -0.24,0.582"
         style="fill:#000000;fill-opacity:1;fill-rule:nonzero;stroke:none"
         id="path148" />
      <g
         id="g150"
         transform="scale(10)">
        <text
           xml:space="preserve"
           transform="matrix(1,0,0,-1,539.75,39)"
           style="font-variant:normal;font-weight:normal;font-size:6.84px;font-family:Helvetica;-inkscape-font-specification:Helvetica;writing-mode:lr-tb;fill:#000000;fill-opacity:1;fill-rule:nonzero;stroke:none"
           id="text154"><tspan
             x="0 3.80304"
             y="0"
             sodipodi:role="line"
             id="tspan152">d-</tspan></text>
      </g>
      <path
         d="m 5015,452.738 h 300"
         style="fill:none;stroke:#0000ff;stroke-width:5.0025;stroke-linecap:butt;stroke-linejoin:bevel;stroke-miterlimit:10;stroke-dasharray:75, 45;stroke-dashoffset:0;stroke-opacity:1"
         id="path156" />
      <path
         d="m 4985,367.5 h 525 v 315 h -525 z"
         style="fill:none;stroke:#262626;stroke-width:5.0025;stroke-linecap:butt;stroke-linejoin:miter;stroke-miterlimit:10;stroke-dasharray:none;stroke-opacity:1"
         id="path158" />
    </g>
  </g>
</svg>
