<?xml version="1.0" encoding="UTF-8" standalone="no"?>
<!-- Created with Inkscape (http://www.inkscape.org/) -->

<svg
   version="1.1"
   id="svg9"
   xml:space="preserve"
   width="256"
   height="256"
   viewBox="0 0 256 256"
   sodipodi:docname="favicon.svg"
   inkscape:version="1.1.2 (b8e25be833, 2022-02-05)"
   inkscape:export-filename="\\nas.ads.mwn.de\ga92wum\Desktop\uz_fav_white_shadow.png"
   inkscape:export-xdpi="99.220001"
   inkscape:export-ydpi="99.220001"
   xmlns:inkscape="http://www.inkscape.org/namespaces/inkscape"
   xmlns:sodipodi="http://sodipodi.sourceforge.net/DTD/sodipodi-0.dtd"
   xmlns="http://www.w3.org/2000/svg"
   xmlns:svg="http://www.w3.org/2000/svg"><defs
   id="defs13" /><sodipodi:namedview
   id="namedview11"
   pagecolor="#ffffff"
   bordercolor="#666666"
   borderopacity="1.0"
   inkscape:pageshadow="2"
   inkscape:pageopacity="0.0"
   inkscape:pagecheckerboard="true"
   showgrid="false"
   inkscape:zoom="5.6568542"
   inkscape:cx="126.74889"
   inkscape:cy="172.71083"
   inkscape:window-width="2954"
   inkscape:window-height="1694"
   inkscape:window-x="3061"
   inkscape:window-y="-11"
   inkscape:window-maximized="1"
   inkscape:current-layer="g15" /><g
   id="g15"
   inkscape:groupmode="layer"
   inkscape:label="Logo_black"
   transform="matrix(1.3333333,0,0,1.3333333,0,2.5462255e-6)"
   style="display:inline"><g
   id="g17"
   transform="translate(3.1132976,62.806681)"
   style="stroke-width:3.75000009;stroke-miterlimit:4;stroke-dasharray:none"><g
     id="g1973"
     style="stroke:#000000;stroke-opacity:1;stroke-width:3.75000009;stroke-miterlimit:4;stroke-dasharray:none"><g
       id="g19"
       style="stroke:#000000;stroke-opacity:1;stroke-width:3.75000009;stroke-miterlimit:4;stroke-dasharray:none"><path
         d="M 50.414,66.012 H 4.508 C 2.223,66.008 0.375,64.156 0.375,61.871 V 2.262 c 0,-0.871 0.707,-1.574 1.574,-1.574 0.867,0.003 1.567,0.707 1.567,1.574 v 58.996 c 0,0.867 0.707,1.57 1.578,1.566 h 45.32 c 0.121,-0.031 0.234,-0.09 0.332,-0.172 L 93.914,4.152 C 94.121,3.879 93.922,3.484 93.578,3.492 H 52.875 c -0.871,0 -1.574,0.703 -1.574,1.574 v 40.411 c 0.004,0.867 -0.699,1.574 -1.567,1.574 -0.871,0 -1.578,-0.703 -1.578,-1.574 V 4.512 c 0,-2.282 1.852,-4.133 4.133,-4.133 h 44.25 c 1.766,-0.113 2.805,1.945 1.664,3.301 L 53.258,64.512 c -0.676,0.902 -1.719,1.453 -2.844,1.5 z"
         style="fill:#000000;fill-opacity:1;fill-rule:nonzero;stroke:#000000;stroke-width:3.75000009;stroke-linecap:butt;stroke-linejoin:miter;stroke-miterlimit:4;stroke-dasharray:none;stroke-opacity:1"
         id="path21" /></g><g
       id="g23"
       style="stroke:#000000;stroke-opacity:1;stroke-width:3.75000009;stroke-miterlimit:4;stroke-dasharray:none"><path
         d="m 183.832,66.012 h -16.828 c -2.285,-0.004 -4.133,-1.856 -4.133,-4.141 V 5.09 c 0,-0.867 -0.703,-1.57 -1.57,-1.574 H 114.906 C 114.039,3.52 113.34,4.223 113.34,5.09 v 56.746 c 0.019,2.293 -1.828,4.168 -4.125,4.176 H 69.188 c -0.872,0 -1.575,-0.707 -1.575,-1.574 0,-0.872 0.703,-1.575 1.575,-1.575 h 39.433 c 0.871,0.004 1.578,-0.699 1.578,-1.57 V 4.512 c 0,-2.282 1.848,-4.133 4.129,-4.133 h 47.551 c 2.285,0 4.133,1.851 4.133,4.133 v 56.754 c 0,0.867 0.707,1.57 1.574,1.566 h 16.246 c 0.867,0.004 1.566,0.707 1.566,1.574 0.02,0.879 -0.687,1.602 -1.566,1.606 z"
         style="fill:#000000;fill-opacity:1;fill-rule:nonzero;stroke:#000000;stroke-width:3.75000009;stroke-linecap:butt;stroke-linejoin:miter;stroke-miterlimit:4;stroke-dasharray:none;stroke-opacity:1"
         id="path25" /></g></g></g>
             
             @media (prefers-color-scheme: dark) {
                  style="display:inline"><g
   id="g20"
   transform="translate(3.1132976,62.806681)"
   style="stroke-width:3.75000009;stroke-miterlimit:4;stroke-dasharray:none;fill:#ffffff;fill-opacity:1"><g
     id="g18"
     style="stroke:#FFFFFF;stroke-opacity:1;stroke-width:3.75000009;stroke-miterlimit:4;stroke-dasharray:none;fill:#ffffff;fill-opacity:1"><g
       id="g12"
       style="stroke:#FFFFFF;stroke-opacity:1;stroke-width:3.75000009;stroke-miterlimit:4;stroke-dasharray:none;fill:#ffffff;fill-opacity:1"><path
         d="M 50.414,66.012 H 4.508 C 2.223,66.008 0.375,64.156 0.375,61.871 V 2.262 c 0,-0.871 0.707,-1.574 1.574,-1.574 0.867,0.003 1.567,0.707 1.567,1.574 v 58.996 c 0,0.867 0.707,1.57 1.578,1.566 h 45.32 c 0.121,-0.031 0.234,-0.09 0.332,-0.172 L 93.914,4.152 C 94.121,3.879 93.922,3.484 93.578,3.492 H 52.875 c -0.871,0 -1.574,0.703 -1.574,1.574 v 40.411 c 0.004,0.867 -0.699,1.574 -1.567,1.574 -0.871,0 -1.578,-0.703 -1.578,-1.574 V 4.512 c 0,-2.282 1.852,-4.133 4.133,-4.133 h 44.25 c 1.766,-0.113 2.805,1.945 1.664,3.301 L 53.258,64.512 c -0.676,0.902 -1.719,1.453 -2.844,1.5 z"
         style="fill:#ffffff;fill-opacity:1;fill-rule:nonzero;stroke:#FFFFFF;stroke-width:3.75000009;stroke-linecap:butt;stroke-linejoin:miter;stroke-miterlimit:4;stroke-dasharray:none;stroke-opacity:1"
         id="path10" /></g><g
       id="g16"
       style="stroke:#FFFFFF;stroke-opacity:1;stroke-width:3.75000009;stroke-miterlimit:4;stroke-dasharray:none;fill:#ffffff;fill-opacity:1"><path
         d="m 183.832,66.012 h -16.828 c -2.285,-0.004 -4.133,-1.856 -4.133,-4.141 V 5.09 c 0,-0.867 -0.703,-1.57 -1.57,-1.574 H 114.906 C 114.039,3.52 113.34,4.223 113.34,5.09 v 56.746 c 0.019,2.293 -1.828,4.168 -4.125,4.176 H 69.188 c -0.872,0 -1.575,-0.707 -1.575,-1.574 0,-0.872 0.703,-1.575 1.575,-1.575 h 39.433 c 0.871,0.004 1.578,-0.699 1.578,-1.57 V 4.512 c 0,-2.282 1.848,-4.133 4.129,-4.133 h 47.551 c 2.285,0 4.133,1.851 4.133,4.133 v 56.754 c 0,0.867 0.707,1.57 1.574,1.566 h 16.246 c 0.867,0.004 1.566,0.707 1.566,1.574 0.02,0.879 -0.687,1.602 -1.566,1.606 z"
         style="fill:#ffffff;fill-opacity:1;fill-rule:nonzero;stroke:#FFFFFF;stroke-width:3.75000009;stroke-linecap:butt;stroke-linejoin:miter;stroke-miterlimit:4;stroke-dasharray:none;stroke-opacity:1"
         id="path14" /></g></g></g>
             }
             </g>
             </svg>
