<?xml version="1.0" encoding="UTF-8" standalone="no"?>
<svg
   xmlns:dc="http://purl.org/dc/elements/1.1/"
   xmlns:cc="http://creativecommons.org/ns#"
   xmlns:rdf="http://www.w3.org/1999/02/22-rdf-syntax-ns#"
   xmlns:svg="http://www.w3.org/2000/svg"
   xmlns="http://www.w3.org/2000/svg"
   version="1.1"
   id="svg2"
   xml:space="preserve"
   width="234.01067"
   height="228.92934"
   viewBox="0 0 234.01067 228.92934"><metadata
     id="metadata8"><rdf:RDF><cc:Work
         rdf:about=""><dc:format>image/svg+xml</dc:format><dc:type
           rdf:resource="http://purl.org/dc/dcmitype/StillImage" /></cc:Work></rdf:RDF></metadata><defs
     id="defs6" /><g
     id="g10"
     transform="matrix(1.3333333,0,0,-1.3333333,110.03066,108.05467)"><g
       id="g12"><g
         id="g14"><path
           d="M 6.2367,0 H 27.92926 M 50.04611,0 H 71.7174"
           style="fill:none;stroke:#000000;stroke-width:0.3985;stroke-linecap:butt;stroke-linejoin:miter;stroke-miterlimit:10;stroke-dasharray:none;stroke-opacity:1"
           id="path16" /><g
           id="g18" /><g
           id="g20" /><g
           id="g22"><g
             id="g24"><path
               d="m 27.52316,-0.15938 c 0,3.05288 1.52053,5.52768 3.39624,5.52768 1.87572,0 3.39624,-2.4748 3.39624,-5.52768 0,-1.52638 -0.61866,-2.76372 -1.38184,-2.76372 -0.76316,0 -1.38184,1.23734 -1.38184,2.76372 0,3.05288 1.52054,5.52768 3.39624,5.52768 1.87571,0 3.39624,-2.4748 3.39624,-5.52768 0,-1.52638 -0.61867,-2.76372 -1.38184,-2.76372 -0.76317,0 -1.38185,1.23734 -1.38185,2.76372 0,3.05288 1.52054,5.52768 3.39625,5.52768 1.8757,0 3.39625,-2.4748 3.39625,-5.52768 0,-1.52638 -0.61869,-2.76372 -1.38185,-2.76372 -0.76317,0 -1.38184,1.23734 -1.38184,2.76372 0,3.05288 1.52052,5.52768 3.39624,5.52768 1.8757,0 3.39624,-2.4748 3.39624,-5.52768 0,-1.52638 -0.61867,-2.76372 -1.38184,-2.76372 -0.76318,0 -1.38185,1.23734 -1.38185,2.76372 0,3.05288 1.52054,5.52768 3.39624,5.52768 1.87572,0 3.39624,-2.4748 3.39624,-5.52768"
               style="fill:none;stroke:#000000;stroke-width:0.797;stroke-linecap:butt;stroke-linejoin:bevel;stroke-miterlimit:10;stroke-dasharray:none;stroke-opacity:1"
               id="path26" /></g><g
             id="g28"
             transform="translate(38.977)"><g
               id="g30" /><g
               id="g32"
               transform="translate(-38.977)" /></g></g><g
           id="g34" /><g
           id="g36" /><g
           id="g38"><g
             id="g40" /><g
             id="g42"
             transform="translate(75.749,-1.467)"><g
               id="g44"><g
                 id="g46"
                 transform="translate(-158.272,-89.189)"><text
                   transform="matrix(1,0,0,-1,158.272,89.189)"
                   style="font-variant:normal;font-weight:normal;font-size:9.9626px;font-family:CMBX10;-inkscape-font-specification:CMBX10;writing-mode:lr-tb;fill:#000000;fill-opacity:1;fill-rule:nonzero;stroke:none"
                   id="text50"><tspan
                     x="0"
                     y="0"
                     id="tspan48">a</tspan></text><text
                   transform="matrix(1,0,0,-1,163.841,87.694)"
                   style="font-variant:normal;font-weight:normal;font-size:6.9738px;font-family:CMBX7;-inkscape-font-specification:CMBX7;writing-mode:lr-tb;fill:#000000;fill-opacity:1;fill-rule:nonzero;stroke:none"
                   id="text54"><tspan
                     x="0"
                     y="0"
                     id="tspan52">1</tspan></text><g
                   id="g56"
                   transform="translate(158.272,89.189)" /></g></g><g
               id="g58"
               transform="translate(-75.749,1.467)" /></g></g><g
           id="g60"><path
             d="m 72.81332,0 c 0,0.60524 -0.49066,1.0959 -1.09592,1.0959 -0.60525,0 -1.09591,-0.49066 -1.09591,-1.0959 0,-0.60524 0.49066,-1.0959 1.09591,-1.0959 0.60526,0 1.09592,0.49066 1.09592,1.0959 z"
             style="fill:#ffffff;fill-opacity:1;fill-rule:nonzero;stroke:#000000;stroke-width:0.3985;stroke-linecap:butt;stroke-linejoin:miter;stroke-miterlimit:10;stroke-dasharray:none;stroke-opacity:1"
             id="path62" /></g><g
           id="g64"><path
             d="m 7.33261,0 c 0,0.60524 -0.49066,1.0959 -1.09591,1.0959 C 5.63144,1.0959 5.14078,0.60524 5.14078,0 c 0,-0.60524 0.49066,-1.0959 1.09592,-1.0959 0.60525,0 1.09591,0.49066 1.09591,1.0959 z"
             style="fill:#ffffff;fill-opacity:1;fill-rule:nonzero;stroke:#000000;stroke-width:0.3985;stroke-linecap:butt;stroke-linejoin:miter;stroke-miterlimit:10;stroke-dasharray:none;stroke-opacity:1"
             id="path66" /></g><path
           d="M -3.11835,5.40073 -13.96458,24.18625 M -25.02301,43.33969 -35.85869,62.10684"
           style="fill:none;stroke:#000000;stroke-width:0.3985;stroke-linecap:butt;stroke-linejoin:miter;stroke-miterlimit:10;stroke-dasharray:none;stroke-opacity:1"
           id="path68" /><g
           id="g70" /><g
           id="g72" /><g
           id="g74"><g
             id="g76"><path
               d="m -13.62352,23.91425 c -2.64383,-1.52646 -5.5473,-1.44704 -6.48517,0.17733 -0.93785,1.62438 0.44509,4.17859 3.08893,5.70504 1.32184,0.76318 2.70273,0.84606 3.0843,0.18516 0.3816,-0.66092 -0.38063,-1.81535 -1.70248,-2.57854 -2.64383,-1.52644 -5.5473,-1.44702 -6.48516,0.17736 -0.93786,1.62437 0.44509,4.17857 3.08892,5.70501 1.32184,0.7632 2.70273,0.84607 3.08432,0.18517 0.38158,-0.6609 -0.38064,-1.81534 -1.70248,-2.57852 -2.64385,-1.52646 -5.54732,-1.44704 -6.48517,0.17734 -0.93785,1.62437 0.44508,4.17858 3.08893,5.70503 1.32183,0.76318 2.70272,0.84607 3.0843,0.18517 0.38159,-0.66093 -0.38064,-1.81536 -1.70248,-2.57854 -2.64384,-1.52645 -5.54731,-1.44703 -6.48517,0.17735 -0.93785,1.62437 0.44508,4.17857 3.08893,5.70502 1.32183,0.76319 2.70272,0.84607 3.08432,0.18516 0.38158,-0.6609 -0.38065,-1.81534 -1.7025,-2.57852 -2.64383,-1.52646 -5.54731,-1.44704 -6.48516,0.17733 -0.93786,1.62438 0.44509,4.1786 3.08892,5.70504"
               style="fill:none;stroke:#000000;stroke-width:0.797;stroke-linecap:butt;stroke-linejoin:bevel;stroke-miterlimit:10;stroke-dasharray:none;stroke-opacity:1"
               id="path78" /></g><g
             id="g80"
             transform="matrix(-0.5,0.86601,-0.86601,-0.5,-19.488,33.753)"><g
               id="g82" /><g
               id="g84"
               transform="translate(19.488,-33.753)" /></g></g><g
           id="g86" /><g
           id="g88" /><g
           id="g90"><g
             id="g92" /><g
             id="g94"
             transform="translate(-46.208,67.467)"><g
               id="g96"><g
                 id="g98"
                 transform="translate(-36.315,-158.123)"><text
                   transform="matrix(1,0,0,-1,36.315,158.123)"
                   style="font-variant:normal;font-weight:normal;font-size:9.9626px;font-family:CMBX10;-inkscape-font-specification:CMBX10;writing-mode:lr-tb;fill:#000000;fill-opacity:1;fill-rule:nonzero;stroke:none"
                   id="text102"><tspan
                     x="0"
                     y="0"
                     id="tspan100">b</tspan></text><text
                   transform="matrix(1,0,0,-1,42.68,156.628)"
                   style="font-variant:normal;font-weight:normal;font-size:6.9738px;font-family:CMBX7;-inkscape-font-specification:CMBX7;writing-mode:lr-tb;fill:#000000;fill-opacity:1;fill-rule:nonzero;stroke:none"
                   id="text106"><tspan
                     x="0"
                     y="0"
                     id="tspan104">1</tspan></text><g
                   id="g108"
                   transform="translate(36.315,158.123)" /></g></g><g
               id="g110"
               transform="translate(46.208,-67.467)" /></g></g><g
           id="g112"><path
             d="m -34.76279,62.10684 c 0,0.60526 -0.49066,1.0959 -1.0959,1.0959 -0.60525,0 -1.09591,-0.49064 -1.09591,-1.0959 0,-0.60525 0.49066,-1.09591 1.09591,-1.09591 0.60524,0 1.0959,0.49066 1.0959,1.09591 z"
             style="fill:#ffffff;fill-opacity:1;fill-rule:nonzero;stroke:#000000;stroke-width:0.3985;stroke-linecap:butt;stroke-linejoin:miter;stroke-miterlimit:10;stroke-dasharray:none;stroke-opacity:1"
             id="path114" /></g><g
           id="g116"><path
             d="m -2.02243,5.40073 c 0,0.60525 -0.49066,1.0959 -1.09592,1.0959 -0.60525,0 -1.0959,-0.49065 -1.0959,-1.0959 0,-0.60526 0.49065,-1.09592 1.0959,-1.09592 0.60526,0 1.09592,0.49066 1.09592,1.09592 z"
             style="fill:#ffffff;fill-opacity:1;fill-rule:nonzero;stroke:#000000;stroke-width:0.3985;stroke-linecap:butt;stroke-linejoin:miter;stroke-miterlimit:10;stroke-dasharray:none;stroke-opacity:1"
             id="path118" /></g><path
           d="M -3.11835,-5.40073 -13.96458,-24.18625 M -25.02301,-43.33969 -35.85869,-62.10684"
           style="fill:none;stroke:#000000;stroke-width:0.3985;stroke-linecap:butt;stroke-linejoin:miter;stroke-miterlimit:10;stroke-dasharray:none;stroke-opacity:1"
           id="path120" /><g
           id="g122" /><g
           id="g124" /><g
           id="g126"><g
             id="g128"><path
               d="m -13.89958,-23.75487 c 2.64383,-1.52644 4.02676,-4.08064 3.08891,-5.70501 -0.93785,-1.62439 -3.84133,-1.7038 -6.48517,-0.17736 -1.32184,0.76319 -2.08406,1.91762 -1.70248,2.57852 0.38159,0.66092 1.76248,0.57804 3.08432,-0.18515 2.64384,-1.52644 4.02678,-4.08065 3.08893,-5.70503 -0.93787,-1.62437 -3.84134,-1.7038 -6.48517,-0.17734 -1.32184,0.76319 -2.08408,1.91762 -1.70249,2.57853 0.38158,0.6609 1.76247,0.57801 3.08431,-0.18517 2.64384,-1.52644 4.02678,-4.08064 3.08892,-5.70502 -0.93784,-1.62439 -3.84132,-1.7038 -6.48516,-0.17735 -1.32184,0.76318 -2.08406,1.91762 -1.70249,2.57852 0.3816,0.66092 1.76247,0.57803 3.08432,-0.18515 2.64383,-1.52644 4.02678,-4.08066 3.08892,-5.70503 -0.93785,-1.62437 -3.84133,-1.70379 -6.48516,-0.17734 -1.32185,0.76319 -2.08407,1.91762 -1.70249,2.57852 0.38159,0.66091 1.76248,0.57802 3.08432,-0.18516 2.64384,-1.52645 4.02677,-4.08064 3.08892,-5.70502 -0.93786,-1.62439 -3.84134,-1.70379 -6.48517,-0.17735"
               style="fill:none;stroke:#000000;stroke-width:0.797;stroke-linecap:butt;stroke-linejoin:bevel;stroke-miterlimit:10;stroke-dasharray:none;stroke-opacity:1"
               id="path130" /></g><g
             id="g132"
             transform="matrix(-0.5,-0.86601,0.86601,-0.5,-19.488,-33.754)"><g
               id="g134" /><g
               id="g136"
               transform="translate(19.488,33.754)" /></g></g><g
           id="g138" /><g
           id="g140" /><g
           id="g142"><g
             id="g144" /><g
             id="g146"
             transform="translate(-45.571,-71.646)"><g
               id="g148"><g
                 id="g150"
                 transform="translate(-36.952,-19.01)"><text
                   transform="matrix(1,0,0,-1,36.952,19.01)"
                   style="font-variant:normal;font-weight:normal;font-size:9.9626px;font-family:CMBX10;-inkscape-font-specification:CMBX10;writing-mode:lr-tb;fill:#000000;fill-opacity:1;fill-rule:nonzero;stroke:none"
                   id="text154"><tspan
                     x="0"
                     y="0"
                     id="tspan152">c</tspan></text><text
                   transform="matrix(1,0,0,-1,42.044,17.515)"
                   style="font-variant:normal;font-weight:normal;font-size:6.9738px;font-family:CMBX7;-inkscape-font-specification:CMBX7;writing-mode:lr-tb;fill:#000000;fill-opacity:1;fill-rule:nonzero;stroke:none"
                   id="text158"><tspan
                     x="0"
                     y="0"
                     id="tspan156">1</tspan></text><g
                   id="g160"
                   transform="translate(36.952,19.01)" /></g></g><g
               id="g162"
               transform="translate(45.571,71.646)" /></g></g><g
           id="g164"><path
             d="m -34.76279,-62.10684 c 0,0.60525 -0.49066,1.09591 -1.0959,1.09591 -0.60525,0 -1.09591,-0.49066 -1.09591,-1.09591 0,-0.60526 0.49066,-1.0959 1.09591,-1.0959 0.60524,0 1.0959,0.49064 1.0959,1.0959 z"
             style="fill:#ffffff;fill-opacity:1;fill-rule:nonzero;stroke:#000000;stroke-width:0.3985;stroke-linecap:butt;stroke-linejoin:miter;stroke-miterlimit:10;stroke-dasharray:none;stroke-opacity:1"
             id="path166" /></g><g
           id="g168"><path
             d="m -2.02243,-5.40073 c 0,0.60526 -0.49066,1.09592 -1.09592,1.09592 -0.60525,0 -1.0959,-0.49066 -1.0959,-1.09592 0,-0.60525 0.49065,-1.0959 1.0959,-1.0959 0.60526,0 1.09592,0.49065 1.09592,1.0959 z"
             style="fill:#ffffff;fill-opacity:1;fill-rule:nonzero;stroke:#000000;stroke-width:0.3985;stroke-linecap:butt;stroke-linejoin:miter;stroke-miterlimit:10;stroke-dasharray:none;stroke-opacity:1"
             id="path170" /></g><g
           id="g172"><path
             d="M 5.40073,3.11835 24.18625,13.96458 M 43.33969,25.02301 62.10684,35.85869"
             style="fill:none;stroke:#0000ff;stroke-width:0.3985;stroke-linecap:butt;stroke-linejoin:miter;stroke-miterlimit:10;stroke-dasharray:none;stroke-opacity:1"
             id="path174" /><g
             id="g176" /><g
             id="g178" /><g
             id="g180"><g
               id="g182"><path
                 d="m 23.91425,13.62352 c -1.52646,2.64383 -1.44704,5.5473 0.17733,6.48517 1.62438,0.93785 4.17859,-0.44509 5.70504,-3.08893 0.76318,-1.32184 0.84606,-2.70273 0.18516,-3.0843 -0.66092,-0.3816 -1.81535,0.38063 -2.57854,1.70248 -1.52644,2.64383 -1.44702,5.5473 0.17736,6.48516 1.62437,0.93786 4.17857,-0.44509 5.70501,-3.08892 0.7632,-1.32184 0.84607,-2.70273 0.18517,-3.08432 -0.6609,-0.38158 -1.81534,0.38064 -2.57852,1.70248 -1.52646,2.64385 -1.44704,5.54732 0.17734,6.48517 1.62437,0.93785 4.17858,-0.44508 5.70503,-3.08893 0.76318,-1.32183 0.84607,-2.70272 0.18517,-3.0843 -0.66093,-0.38159 -1.81536,0.38064 -2.57854,1.70248 -1.52645,2.64384 -1.44703,5.54731 0.17735,6.48517 1.62437,0.93785 4.17857,-0.44508 5.70502,-3.08893 0.76319,-1.32183 0.84607,-2.70272 0.18516,-3.08432 -0.6609,-0.38158 -1.81534,0.38065 -2.57852,1.7025 -1.52646,2.64383 -1.44704,5.54731 0.17733,6.48516 1.62438,0.93786 4.1786,-0.44509 5.70504,-3.08892"
                 style="fill:none;stroke:#0000ff;stroke-width:0.797;stroke-linecap:butt;stroke-linejoin:bevel;stroke-miterlimit:10;stroke-dasharray:none;stroke-opacity:1"
                 id="path184" /></g><g
               id="g186"
               transform="matrix(0.86601,0.5,-0.5,0.86601,33.753,19.488)"><g
                 id="g188" /><g
                 id="g190"
                 transform="translate(-33.753,-19.488)" /></g></g><g
             id="g192" /><g
             id="g194" /></g><g
           id="g196"><g
             id="g198" /><g
             id="g200"
             transform="translate(64.889,39.052)"><g
               id="g202"><g
                 id="g204"
                 transform="translate(-147.412,-129.708)"><text
                   transform="matrix(1,0,0,-1,147.412,129.708)"
                   style="font-variant:normal;font-weight:normal;font-size:9.9626px;font-family:CMBX10;-inkscape-font-specification:CMBX10;writing-mode:lr-tb;fill:#0000ff;fill-opacity:1;fill-rule:nonzero;stroke:none"
                   id="text208"><tspan
                     x="0"
                     y="0"
                     id="tspan206">a</tspan></text><text
                   transform="matrix(1,0,0,-1,152.981,128.214)"
                   style="font-variant:normal;font-weight:normal;font-size:6.9738px;font-family:CMBX7;-inkscape-font-specification:CMBX7;writing-mode:lr-tb;fill:#0000ff;fill-opacity:1;fill-rule:nonzero;stroke:none"
                   id="text212"><tspan
                     x="0"
                     y="0"
                     id="tspan210">2</tspan></text><g
                   id="g214"
                   transform="translate(147.412,129.708)" /></g></g><g
               id="g216"
               transform="translate(-64.889,-39.052)" /></g></g><g
           id="g218"><path
             d="m 63.20274,35.85869 c 0,0.60525 -0.49064,1.09591 -1.0959,1.09591 -0.60525,0 -1.09591,-0.49066 -1.09591,-1.09591 0,-0.60524 0.49066,-1.0959 1.09591,-1.0959 0.60526,0 1.0959,0.49066 1.0959,1.0959 z"
             style="fill:#ffffff;fill-opacity:1;fill-rule:nonzero;stroke:#0000ff;stroke-width:0.3985;stroke-linecap:butt;stroke-linejoin:miter;stroke-miterlimit:10;stroke-dasharray:none;stroke-opacity:1"
             id="path220" /></g><g
           id="g222"><path
             d="m 6.49663,3.11835 c 0,0.60525 -0.49065,1.0959 -1.0959,1.0959 -0.60526,0 -1.09592,-0.49065 -1.09592,-1.0959 0,-0.60526 0.49066,-1.09592 1.09592,-1.09592 0.60525,0 1.0959,0.49066 1.0959,1.09592 z"
             style="fill:#ffffff;fill-opacity:1;fill-rule:nonzero;stroke:#0000ff;stroke-width:0.3985;stroke-linecap:butt;stroke-linejoin:miter;stroke-miterlimit:10;stroke-dasharray:none;stroke-opacity:1"
             id="path224" /></g><g
           id="g226"><path
             d="M -5.40073,3.11835 -24.18625,13.96458 M -43.33969,25.02301 -62.10684,35.85869"
             style="fill:none;stroke:#0000ff;stroke-width:0.3985;stroke-linecap:butt;stroke-linejoin:miter;stroke-miterlimit:10;stroke-dasharray:none;stroke-opacity:1"
             id="path228" /><g
             id="g230" /><g
             id="g232" /><g
             id="g234"><g
               id="g236"><path
                 d="m -23.75487,13.89958 c -1.52644,-2.64383 -4.08064,-4.02676 -5.70501,-3.08891 -1.62439,0.93785 -1.7038,3.84133 -0.17736,6.48517 0.76319,1.32184 1.91762,2.08406 2.57852,1.70248 0.66092,-0.38159 0.57804,-1.76248 -0.18515,-3.08432 -1.52644,-2.64384 -4.08065,-4.02678 -5.70503,-3.08893 -1.62437,0.93787 -1.7038,3.84134 -0.17734,6.48517 0.76319,1.32184 1.91762,2.08408 2.57853,1.70249 0.6609,-0.38158 0.57801,-1.76247 -0.18517,-3.08431 -1.52644,-2.64384 -4.08064,-4.02678 -5.70502,-3.08892 -1.62439,0.93784 -1.7038,3.84132 -0.17735,6.48516 0.76318,1.32184 1.91762,2.08406 2.57852,1.70249 0.66092,-0.3816 0.57803,-1.76247 -0.18515,-3.08432 -1.52644,-2.64383 -4.08066,-4.02678 -5.70503,-3.08892 -1.62437,0.93785 -1.70379,3.84133 -0.17734,6.48516 0.76319,1.32185 1.91762,2.08407 2.57852,1.70249 0.66091,-0.38159 0.57802,-1.76248 -0.18516,-3.08432 -1.52645,-2.64384 -4.08064,-4.02677 -5.70502,-3.08892 -1.62439,0.93786 -1.70379,3.84134 -0.17735,6.48517"
                 style="fill:none;stroke:#0000ff;stroke-width:0.797;stroke-linecap:butt;stroke-linejoin:bevel;stroke-miterlimit:10;stroke-dasharray:none;stroke-opacity:1"
                 id="path238" /></g><g
               id="g240"
               transform="matrix(-0.86601,0.5,-0.5,-0.86601,-33.753,19.488)"><g
                 id="g242" /><g
                 id="g244"
                 transform="translate(33.753,-19.488)" /></g></g><g
             id="g246" /><g
             id="g248" /></g><g
           id="g250"><g
             id="g252" /><g
             id="g254"
             transform="translate(-75.868,37.807)"><g
               id="g256"><g
                 id="g258"
                 transform="translate(-6.655,-128.463)"><text
                   transform="matrix(1,0,0,-1,6.655,128.463)"
                   style="font-variant:normal;font-weight:normal;font-size:9.9626px;font-family:CMBX10;-inkscape-font-specification:CMBX10;writing-mode:lr-tb;fill:#0000ff;fill-opacity:1;fill-rule:nonzero;stroke:none"
                   id="text262"><tspan
                     x="0"
                     y="0"
                     id="tspan260">b</tspan></text><text
                   transform="matrix(1,0,0,-1,13.02,126.969)"
                   style="font-variant:normal;font-weight:normal;font-size:6.9738px;font-family:CMBX7;-inkscape-font-specification:CMBX7;writing-mode:lr-tb;fill:#0000ff;fill-opacity:1;fill-rule:nonzero;stroke:none"
                   id="text266"><tspan
                     x="0"
                     y="0"
                     id="tspan264">2</tspan></text><g
                   id="g268"
                   transform="translate(6.655,128.463)" /></g></g><g
               id="g270"
               transform="translate(75.868,-37.807)" /></g></g><g
           id="g272"><path
             d="m -61.01093,35.85869 c 0,0.60525 -0.49066,1.09591 -1.09591,1.09591 -0.60526,0 -1.0959,-0.49066 -1.0959,-1.09591 0,-0.60524 0.49064,-1.0959 1.0959,-1.0959 0.60525,0 1.09591,0.49066 1.09591,1.0959 z"
             style="fill:#ffffff;fill-opacity:1;fill-rule:nonzero;stroke:#0000ff;stroke-width:0.3985;stroke-linecap:butt;stroke-linejoin:miter;stroke-miterlimit:10;stroke-dasharray:none;stroke-opacity:1"
             id="path274" /></g><g
           id="g276"><path
             d="m -4.30481,3.11835 c 0,0.60525 -0.49066,1.0959 -1.09592,1.0959 -0.60525,0 -1.0959,-0.49065 -1.0959,-1.0959 0,-0.60526 0.49065,-1.09592 1.0959,-1.09592 0.60526,0 1.09592,0.49066 1.09592,1.09592 z"
             style="fill:#ffffff;fill-opacity:1;fill-rule:nonzero;stroke:#0000ff;stroke-width:0.3985;stroke-linecap:butt;stroke-linejoin:miter;stroke-miterlimit:10;stroke-dasharray:none;stroke-opacity:1"
             id="path278" /></g><g
           id="g280"><path
             d="M 0,-6.2367 V -27.92926 M 0,-50.04611 V -71.7174"
             style="fill:none;stroke:#0000ff;stroke-width:0.3985;stroke-linecap:butt;stroke-linejoin:miter;stroke-miterlimit:10;stroke-dasharray:none;stroke-opacity:1"
             id="path282" /><g
             id="g284" /><g
             id="g286" /><g
             id="g288"><g
               id="g290"><path
                 d="m -0.15938,-27.52316 c 3.05288,0 5.52768,-1.52053 5.52768,-3.39624 0,-1.87572 -2.4748,-3.39624 -5.52768,-3.39624 -1.52638,0 -2.76372,0.61866 -2.76372,1.38184 0,0.76316 1.23734,1.38184 2.76372,1.38184 3.05288,0 5.52768,-1.52054 5.52768,-3.39624 0,-1.87571 -2.4748,-3.39624 -5.52768,-3.39624 -1.52638,0 -2.76372,0.61867 -2.76372,1.38184 0,0.76317 1.23734,1.38185 2.76372,1.38185 3.05288,0 5.52768,-1.52054 5.52768,-3.39625 0,-1.8757 -2.4748,-3.39625 -5.52768,-3.39625 -1.52638,0 -2.76372,0.61869 -2.76372,1.38185 0,0.76317 1.23734,1.38184 2.76372,1.38184 3.05288,0 5.52768,-1.52052 5.52768,-3.39624 0,-1.8757 -2.4748,-3.39624 -5.52768,-3.39624 -1.52638,0 -2.76372,0.61867 -2.76372,1.38184 0,0.76318 1.23734,1.38185 2.76372,1.38185 3.05288,0 5.52768,-1.52054 5.52768,-3.39624 0,-1.87572 -2.4748,-3.39624 -5.52768,-3.39624"
                 style="fill:none;stroke:#0000ff;stroke-width:0.797;stroke-linecap:butt;stroke-linejoin:bevel;stroke-miterlimit:10;stroke-dasharray:none;stroke-opacity:1"
                 id="path292" /></g><g
               id="g294"
               transform="rotate(-90,-19.4885,-19.4885)"><g
                 id="g296" /><g
                 id="g298"
                 transform="translate(0,38.977)" /></g></g><g
             id="g300" /><g
             id="g302" /></g><g
           id="g304"><g
             id="g306" /><g
             id="g308"
             transform="translate(-5.052,-82.506)"><g
               id="g310"><g
                 id="g312"
                 transform="translate(-77.471,-8.15)"><text
                   transform="matrix(1,0,0,-1,77.471,8.15)"
                   style="font-variant:normal;font-weight:normal;font-size:9.9626px;font-family:CMBX10;-inkscape-font-specification:CMBX10;writing-mode:lr-tb;fill:#0000ff;fill-opacity:1;fill-rule:nonzero;stroke:none"
                   id="text316"><tspan
                     x="0"
                     y="0"
                     id="tspan314">c</tspan></text><text
                   transform="matrix(1,0,0,-1,82.563,6.655)"
                   style="font-variant:normal;font-weight:normal;font-size:6.9738px;font-family:CMBX7;-inkscape-font-specification:CMBX7;writing-mode:lr-tb;fill:#0000ff;fill-opacity:1;fill-rule:nonzero;stroke:none"
                   id="text320"><tspan
                     x="0"
                     y="0"
                     id="tspan318">2</tspan></text><g
                   id="g322"
                   transform="translate(77.471,8.15)" /></g></g><g
               id="g324"
               transform="translate(5.052,82.506)" /></g></g><g
           id="g326"><path
             d="m 1.0959,-71.7174 c 0,0.60525 -0.49066,1.09591 -1.0959,1.09591 -0.60524,0 -1.0959,-0.49066 -1.0959,-1.09591 0,-0.60526 0.49066,-1.09592 1.0959,-1.09592 0.60524,0 1.0959,0.49066 1.0959,1.09592 z"
             style="fill:#ffffff;fill-opacity:1;fill-rule:nonzero;stroke:#0000ff;stroke-width:0.3985;stroke-linecap:butt;stroke-linejoin:miter;stroke-miterlimit:10;stroke-dasharray:none;stroke-opacity:1"
             id="path328" /></g><g
           id="g330"><path
             d="m 1.0959,-6.2367 c 0,0.60526 -0.49066,1.09592 -1.0959,1.09592 -0.60524,0 -1.0959,-0.49066 -1.0959,-1.09592 0,-0.60525 0.49066,-1.09591 1.0959,-1.09591 0.60524,0 1.0959,0.49066 1.0959,1.09591 z"
             style="fill:#ffffff;fill-opacity:1;fill-rule:nonzero;stroke:#0000ff;stroke-width:0.3985;stroke-linecap:butt;stroke-linejoin:miter;stroke-miterlimit:10;stroke-dasharray:none;stroke-opacity:1"
             id="path332" /></g><path
           d="m 60.95923,0 c -2e-5,9.50014 -2.2227,18.85799 -6.46611,27.3224"
           style="fill:none;stroke:#000000;stroke-width:0.3985;stroke-linecap:butt;stroke-linejoin:miter;stroke-miterlimit:10;stroke-dasharray:none;stroke-opacity:1"
           id="path334" /><g
           id="g336"
           transform="matrix(-0.47137,0.8819,-0.8819,-0.47137,54.48297,27.31665)"><g
             id="g338"><path
               d="M 3.58653,0 C 2.52383,0.19925 0.797,0.797 -0.3985,1.49438 V -1.49438 C 0.797,-0.797 2.52383,-0.19925 3.58653,0"
               style="fill:#000000;fill-opacity:1;fill-rule:nonzero;stroke:none"
               id="path340" /></g></g><g
           id="g342"><g
             id="g344"
             transform="translate(62.401,14.601)"><g
               id="g346"><g
                 id="g348"
                 transform="translate(-144.924,-105.257)"><text
                   transform="matrix(1,0,0,-1,144.924,105.257)"
                   style="font-variant:normal;font-weight:normal;font-size:9.9626px;font-family:CMMI10;-inkscape-font-specification:CMMI10;writing-mode:lr-tb;fill:#000000;fill-opacity:1;fill-rule:nonzero;stroke:none"
                   id="text352"><tspan
                     x="0"
                     y="0"
                     id="tspan350">γ</tspan></text><g
                   id="g354"
                   transform="translate(144.924,105.257)" /></g></g><g
               id="g356"
               transform="translate(-62.401,-14.601)" /></g></g><path
           d="M 17.92932,0 C 17.92932,9.9022 9.9022,17.92932 0,17.92932 c -1.94485,-2e-5 -3.86945,-0.31676 -5.69925,-0.93016"
           style="fill:none;stroke:#000000;stroke-width:0.3985;stroke-linecap:butt;stroke-linejoin:miter;stroke-miterlimit:10;stroke-dasharray:none;stroke-opacity:1"
           id="path358" /><g
           id="g360"
           transform="matrix(-0.91612,-0.40073,0.40073,-0.91612,-5.67896,16.96451)"><g
             id="g362"><path
               d="M 3.58653,0 C 2.52383,0.19925 0.797,0.797 -0.3985,1.49438 V -1.49438 C 0.797,-0.797 2.52383,-0.19925 3.58653,0"
               style="fill:#000000;fill-opacity:1;fill-rule:nonzero;stroke:none"
               id="path364" /></g></g><g
           id="g366"><g
             id="g368"
             transform="translate(6.562,19.047)"><g
               id="g370"><g
                 id="g372"
                 transform="translate(-89.085,-109.703)"><text
                   transform="matrix(1,0,0,-1,89.085,109.703)"
                   style="font-variant:normal;font-weight:normal;font-size:9.9626px;font-family:CMMI10;-inkscape-font-specification:CMMI10;writing-mode:lr-tb;fill:#000000;fill-opacity:1;fill-rule:nonzero;stroke:none"
                   id="text376"><tspan
                     x="0"
                     y="0"
                     id="tspan374">δ</tspan></text><g
                   id="g378"
                   transform="translate(89.085,109.703)" /></g></g><g
               id="g380"
               transform="translate(-6.562,-19.047)" /></g></g><g
           id="g382"><g
             id="g384" /><g
             id="g386"
             transform="translate(5.231,-4.808)"><g
               id="g388" /><g
               id="g390"
               transform="translate(-5.231,4.808)" /></g></g><g
           id="g392"><g
             id="g394"><path
               d="m 5.23106,-4.80731 v 0 0 z"
               style="fill:none;stroke:#ffffff;stroke-width:0.75;stroke-linecap:butt;stroke-linejoin:miter;stroke-miterlimit:10;stroke-dasharray:none;stroke-opacity:1"
               id="path396" /></g><g
             id="g398"
             transform="translate(5.231,-4.808)"><g
               id="g400" /><g
               id="g402"
               transform="translate(-5.231,4.808)" /></g></g></g></g></g></svg>
