<?xml version="1.0" encoding="UTF-8"?><svg width="78.5812mm" height="37.8354mm" viewBox="0 0 297 143" xmlns="http://www.w3.org/2000/svg" xmlns:xlink="http://www.w3.org/1999/xlink"><g fill="none" stroke="black" stroke-width="1" fill-rule="evenodd" stroke-linecap="square" stroke-linejoin="bevel"><g clip-path="none" fill="#ffffff" fill-opacity="1" opacity="1" stroke="none" stroke-opacity="0" transform="matrix(1,0,0,1,0,0)"><path d="M0,0 L297.266,0 L297.266,143 L0,143 L0,0 z" fill-rule="evenodd" vector-effect="none"/></g><defs><clipPath id="clip3"><path d="M-217,-2 L80.2656,-2 L80.2656,141 L-217,141 L-217,-2 z"/></clipPath></defs><g clip-path="url(#clip3)" fill="#ffffff" fill-opacity="1" opacity="1" stroke="none" stroke-opacity="0" transform="matrix(1,0,0,1,217,2)"><path d="M0,0 L54,0 L54,31 L0,31 L0,0 z" fill-rule="evenodd" vector-effect="none"/></g><defs><clipPath id="clip7"><path d="M-27,-15 L27,-15 L27,16 L-27,16 L-27,-15 z"/></clipPath></defs><g clip-path="url(#clip7)" fill="none" opacity="1" stroke="#000000" stroke-linecap="butt" stroke-linejoin="miter" stroke-miterlimit="2" stroke-opacity="1" stroke-width="1" transform="matrix(1,0,0,1,244,17)"><text fill="#000000" fill-opacity="1" font-family="Liberation Sans" font-size="10" font-style="normal" font-weight="400" stroke="none" textLength="40.4844" x="-20.2344" xml:space="preserve" y="3.5">For Each</text></g><defs><clipPath id="clip12"><path d="M-217.5,-2.5 L79.7656,-2.5 L79.7656,140.5 L-217.5,140.5 L-217.5,-2.5 z"/></clipPath></defs><g clip-path="url(#clip12)" fill="none" opacity="1" stroke="#000000" stroke-linecap="butt" stroke-linejoin="miter" stroke-miterlimit="2" stroke-opacity="1" stroke-width="1" transform="matrix(1,0,0,1,217.5,2.5)"><path d="M0,0 L54,0 L54,31 L0,31 L0,0 z" fill-rule="evenodd" vector-effect="none"/></g><defs><clipPath id="clip18"><path d="M0,0 L42,0 L42,15 L0,15 L0,0 z"/></clipPath></defs><g clip-path="url(#clip18)" fill="none" opacity="1" stroke="#000000" stroke-linecap="square" stroke-linejoin="bevel" stroke-opacity="1" stroke-width="1" transform="matrix(1,0,0,1,222.867,35)"><text fill="#000000" fill-opacity="1" font-family="Liberation Sans" font-size="10" font-style="normal" font-weight="400" stroke="none" textLength="40.4844" x="1" xml:space="preserve" y="11">For Each</text></g><defs><clipPath id="clip26"><path d="M-22,-100 L275.266,-100 L275.266,43 L-22,43 L-22,-100 z"/></clipPath></defs><g clip-path="url(#clip26)" fill="#ffffff" fill-opacity="1" opacity="1" stroke="none" stroke-opacity="0" transform="matrix(1,0,0,1,22,100)"><path d="M7,0 L23,0 C26.866,0 30,3.13401 30,7 C30,10.866 26.866,14 23,14 L7,14 C3.13401,14 0,10.866 0,7 C0,3.13401 3.13401,0 7,0 z" fill-rule="nonzero" vector-effect="none"/></g><defs><clipPath id="clip30"><path d="M-11,-7 L19,-7 L19,7 L-11,7 L-11,-7 z"/></clipPath></defs><g clip-path="url(#clip30)" fill="none" opacity="1" stroke="#000000" stroke-linecap="butt" stroke-linejoin="miter" stroke-miterlimit="2" stroke-opacity="1" stroke-width="1" transform="matrix(1,0,0,1,33,107)"><text fill="#000000" fill-opacity="1" font-family="Liberation Sans" font-size="10" font-style="normal" font-weight="400" stroke="none" textLength="5.54688" x="-2.76562" xml:space="preserve" y="3.5">1</text></g><defs><clipPath id="clip38"><path d="M0,0 L70,0 L70,15 L0,15 L0,0 z"/></clipPath></defs><g clip-path="url(#clip38)" fill="none" opacity="1" stroke="#000000" stroke-linecap="square" stroke-linejoin="bevel" stroke-opacity="1" stroke-width="1" transform="matrix(1,0,0,1,2,116)"><text fill="#000000" fill-opacity="1" font-family="Liberation Sans" font-size="10" font-style="normal" font-weight="400" stroke="none" textLength="68.2188" x="1" xml:space="preserve" y="11">gate_delay_out</text></g><defs><clipPath id="clip46"><path d="M-21.65,-100.25 L275.616,-100.25 L275.616,42.75 L-21.65,42.75 L-21.65,-100.25 z"/></clipPath></defs><g clip-path="url(#clip46)" fill="none" opacity="1" stroke="#000000" stroke-linecap="butt" stroke-linejoin="bevel" stroke-opacity="1" stroke-width="0.5" transform="matrix(1,0,0,1,21.65,100.25)"><path d="M21.6,0 L21.6,14 M21.6,7 L30,7 M21.6,0 L28.6,7 L21.6,14 L21.6,0 z" fill-rule="nonzero" vector-effect="none"/></g><defs><clipPath id="clip49"><path d="M-22.5,-100.5 L274.766,-100.5 L274.766,42.5 L-22.5,42.5 L-22.5,-100.5 z"/></clipPath></defs><g clip-path="url(#clip49)" fill="none" opacity="1" stroke="#000000" stroke-linecap="butt" stroke-linejoin="miter" stroke-miterlimit="2" stroke-opacity="1" stroke-width="1" transform="matrix(1,0,0,1,22.5,100.5)"><path d="M7,0 L23,0 C26.866,0 30,3.13401 30,7 C30,10.866 26.866,14 23,14 L7,14 C3.13401,14 0,10.866 0,7 C0,3.13401 3.13401,0 7,0 z" fill-rule="nonzero" vector-effect="none"/></g><defs><clipPath id="clip52"><path d="M-22,-45 L275.266,-45 L275.266,98 L-22,98 L-22,-45 z"/></clipPath></defs><g clip-path="url(#clip52)" fill="#ffffff" fill-opacity="1" opacity="1" stroke="none" stroke-opacity="0" transform="matrix(1,0,0,1,22,45)"><path d="M7,0 L23,0 C26.866,0 30,3.13401 30,7 C30,10.866 26.866,14 23,14 L7,14 C3.13401,14 0,10.866 0,7 C0,3.13401 3.13401,0 7,0 z" fill-rule="nonzero" vector-effect="none"/></g><defs><clipPath id="clip56"><path d="M-15,-7 L15,-7 L15,7 L-15,7 L-15,-7 z"/></clipPath></defs><g clip-path="url(#clip56)" fill="none" opacity="1" stroke="#000000" stroke-linecap="butt" stroke-linejoin="miter" stroke-miterlimit="2" stroke-opacity="1" stroke-width="1" transform="matrix(1,0,0,1,37,52)"><text fill="#000000" fill-opacity="1" font-family="Liberation Sans" font-size="10" font-style="normal" font-weight="400" stroke="none" textLength="5.54688" x="-2.76562" xml:space="preserve" y="3.5">2</text></g><defs><clipPath id="clip61"><path d="M-22.5,-45.5 L274.766,-45.5 L274.766,97.5 L-22.5,97.5 L-22.5,-45.5 z"/></clipPath></defs><g clip-path="url(#clip61)" fill="none" opacity="1" stroke="#000000" stroke-linecap="butt" stroke-linejoin="miter" stroke-miterlimit="2" stroke-opacity="1" stroke-width="1" transform="matrix(1,0,0,1,22.5,45.5)"><path d="M7,0 L23,0 C26.866,0 30,3.13401 30,7 C30,10.866 26.866,14 23,14 L7,14 C3.13401,14 0,10.866 0,7 C0,3.13401 3.13401,0 7,0 z" fill-rule="nonzero" vector-effect="none"/></g><defs><clipPath id="clip67"><path d="M0,0 L32,0 L32,15 L0,15 L0,0 z"/></clipPath></defs><g clip-path="url(#clip67)" fill="none" opacity="1" stroke="#000000" stroke-linecap="square" stroke-linejoin="bevel" stroke-opacity="1" stroke-width="1" transform="matrix(1,0,0,1,21.1328,61)"><text fill="#000000" fill-opacity="1" font-family="Liberation Sans" font-size="10" font-style="normal" font-weight="400" stroke="none" textLength="29.9531" x="1" xml:space="preserve" y="11">enable</text></g><defs><clipPath id="clip75"><path d="M-242,-110 L55.2656,-110 L55.2656,33 L-242,33 L-242,-110 z"/></clipPath></defs><g clip-path="url(#clip75)" fill="#ffffff" fill-opacity="1" opacity="1" stroke="none" stroke-opacity="0" transform="matrix(1,0,0,1,242,110)"><path d="M7,0 L23,0 C26.866,0 30,3.13401 30,7 C30,10.866 26.866,14 23,14 L7,14 C3.13401,14 0,10.866 0,7 C0,3.13401 3.13401,0 7,0 z" fill-rule="nonzero" vector-effect="none"/></g><defs><clipPath id="clip79"><path d="M-19,-7 L11,-7 L11,7 L-19,7 L-19,-7 z"/></clipPath></defs><g clip-path="url(#clip79)" fill="none" opacity="1" stroke="#000000" stroke-linecap="butt" stroke-linejoin="miter" stroke-miterlimit="2" stroke-opacity="1" stroke-width="1" transform="matrix(1,0,0,1,261,117)"><text fill="#000000" fill-opacity="1" font-family="Liberation Sans" font-size="10" font-style="normal" font-weight="400" stroke="none" textLength="5.54688" x="-2.76562" xml:space="preserve" y="3.5">1</text></g><defs><clipPath id="clip87"><path d="M0,0 L76,0 L76,15 L0,15 L0,0 z"/></clipPath></defs><g clip-path="url(#clip87)" fill="none" opacity="1" stroke="#000000" stroke-linecap="square" stroke-linejoin="bevel" stroke-opacity="1" stroke-width="1" transform="matrix(1,0,0,1,218.953,126)"><text fill="#000000" fill-opacity="1" font-family="Liberation Sans" font-size="10" font-style="normal" font-weight="400" stroke="none" textLength="74.3125" x="1" xml:space="preserve" y="11">gate_enable_out</text></g><defs><clipPath id="clip95"><path d="M-242.25,-110.25 L55.0156,-110.25 L55.0156,32.75 L-242.25,32.75 L-242.25,-110.25 z"/></clipPath></defs><g clip-path="url(#clip95)" fill="none" opacity="1" stroke="#000000" stroke-linecap="butt" stroke-linejoin="bevel" stroke-opacity="1" stroke-width="0.5" transform="matrix(1,0,0,1,242.25,110.25)"><path d="M8.4,0 L8.4,14 M8.4,7 L0,7 M8.4,0 L1.4,7 L8.4,14 L8.4,0 z" fill-rule="nonzero" vector-effect="none"/></g><defs><clipPath id="clip98"><path d="M-242.5,-110.5 L54.7656,-110.5 L54.7656,32.5 L-242.5,32.5 L-242.5,-110.5 z"/></clipPath></defs><g clip-path="url(#clip98)" fill="none" opacity="1" stroke="#000000" stroke-linecap="butt" stroke-linejoin="miter" stroke-miterlimit="2" stroke-opacity="1" stroke-width="1" transform="matrix(1,0,0,1,242.5,110.5)"><path d="M7,0 L23,0 C26.866,0 30,3.13401 30,7 C30,10.866 26.866,14 23,14 L7,14 C3.13401,14 0,10.866 0,7 C0,3.13401 3.13401,0 7,0 z" fill-rule="nonzero" vector-effect="none"/></g><defs><clipPath id="clip101"><path d="M-137,-98 L160.266,-98 L160.266,45 L-137,45 L-137,-98 z"/></clipPath></defs><g clip-path="url(#clip101)" fill="#ffffff" fill-opacity="1" opacity="1" stroke="none" stroke-opacity="0" transform="matrix(1,0,0,1,137,98)"><path d="M0,0 L35,0 L35,33 L0,33 L0,0 z" fill-rule="evenodd" vector-effect="none"/></g><defs><clipPath id="clip105"><path d="M0,0 L36,0 L36,34 L0,34 L0,0 z"/></clipPath></defs><g clip-path="url(#clip105)" fill="none" opacity="1" stroke="none" stroke-opacity="0" transform="matrix(1,0,0,1,137.109,98)"><path d="M0,0 L36,0 L36,34 L0,34 L0,0 z" fill-rule="evenodd" vector-effect="none"/></g><defs><clipPath id="clip116"><path d="M-12,-6 L17,-6 L17,10 L-12,10 L-12,-6 z"/></clipPath></defs><g clip-path="url(#clip116)" fill="#000000" fill-opacity="1" opacity="1" stroke="none" stroke-opacity="0" transform="matrix(1,0,0,1,152.109,112)"><path d="M-6.89062,-1.57812 L-8.5,2.76562 L-5.28125,2.76562 L-6.89062,-1.57812 M-7.5625,-2.75 L-6.21875,-2.75 L-2.89062,6 L-4.125,6 L-4.92188,3.75 L-8.85938,3.75 L-9.65625,6 L-10.9062,6 L-7.5625,-2.75 M-1.625,-2.75 L-0.03125,-2.75 L3.85938,4.5625 L3.85938,-2.75 L5,-2.75 L5,6 L3.40625,6 L-0.46875,-1.3125 L-0.46875,6 L-1.625,6 L-1.625,-2.75 M8.53125,-1.78125 L8.53125,5.03125 L9.96875,5.03125 C11.1771,5.03125 12.0599,4.75781 12.6172,4.21094 C13.1745,3.66406 13.4531,2.79688 13.4531,1.60938 C13.4531,0.442708 13.1745,-0.414062 12.6172,-0.960938 C12.0599,-1.50781 11.1771,-1.78125 9.96875,-1.78125 L8.53125,-1.78125 M7.34375,-2.75 L9.78125,-2.75 C11.4792,-2.75 12.724,-2.39844 13.5156,-1.69531 C14.3073,-0.992188 14.7031,0.109375 14.7031,1.60938 C14.7031,3.11979 14.3047,4.22917 13.5078,4.9375 C12.7109,5.64583 11.4688,6 9.78125,6 L7.34375,6 L7.34375,-2.75" fill-rule="nonzero" vector-effect="none"/></g><defs><clipPath id="clip134"><path d="M-137.5,-98.5 L159.766,-98.5 L159.766,44.5 L-137.5,44.5 L-137.5,-98.5 z"/></clipPath></defs><g clip-path="url(#clip134)" fill="none" opacity="1" stroke="#000000" stroke-linecap="butt" stroke-linejoin="miter" stroke-miterlimit="2" stroke-opacity="1" stroke-width="1" transform="matrix(1,0,0,1,137.5,98.5)"><path d="M0,0 L35,0 L35,33 L0,33 L0,0 z" fill-rule="evenodd" vector-effect="none"/></g><defs><clipPath id="clip142"><path d="M-137,-107 L160.266,-107 L160.266,36 L-137,36 L-137,-107 z"/></clipPath></defs><g clip-path="url(#clip142)" fill="#000000" fill-opacity="1" opacity="1" stroke="none" stroke-opacity="0" transform="matrix(1,0,0,1,137,107)"><path d="M0,0 L-8,-4 L-8,4 L0,0 z" fill-rule="nonzero" vector-effect="none"/></g><defs><clipPath id="clip145"><path d="M32.8906,278 L330.156,278 L330.156,421 L32.8906,421 L32.8906,278 z"/></clipPath></defs><g clip-path="url(#clip145)" fill="none" opacity="1" stroke="#000000" stroke-linecap="butt" stroke-linejoin="miter" stroke-miterlimit="2" stroke-opacity="1" stroke-width="1" transform="matrix(1,0,0,1,-32.8906,-278)"><path d="M85.3906,385.5 L162.391,385.5" fill-rule="evenodd" vector-effect="none"/></g><defs><clipPath id="clip148"><path d="M-137,-122 L160.266,-122 L160.266,21 L-137,21 L-137,-122 z"/></clipPath></defs><g clip-path="url(#clip148)" fill="#000000" fill-opacity="1" opacity="1" stroke="none" stroke-opacity="0" transform="matrix(1,0,0,1,137,122)"><path d="M0,0 L-8,-4 L-8,4 L0,0 z" fill-rule="nonzero" vector-effect="none"/></g><defs><clipPath id="clip151"><path d="M32.8906,278 L330.156,278 L330.156,421 L32.8906,421 L32.8906,278 z"/></clipPath></defs><g clip-path="url(#clip151)" fill="none" opacity="1" stroke="#000000" stroke-linecap="butt" stroke-linejoin="miter" stroke-miterlimit="2" stroke-opacity="1" stroke-width="1" transform="matrix(1,0,0,1,-32.8906,-278)"><path d="M85.3906,330.5 L136.391,330.5 L136.391,385 M136.391,386 L136.391,400.5 L162.391,400.5" fill-rule="evenodd" vector-effect="none"/><polyline fill="none" points="136.391,380 136.391,381" vector-effect="none"/></g><defs><clipPath id="clip152"><path d="M32.8906,278 L330.156,278 L330.156,421 L32.8906,421 L32.8906,278 z"/></clipPath></defs><g clip-path="url(#clip152)" fill="none" opacity="1" stroke="#2e2e2e" stroke-linecap="butt" stroke-linejoin="miter" stroke-miterlimit="2" stroke-opacity="1" stroke-width="1" transform="matrix(1,0,0,1,-32.8906,-278)"><polyline fill="none" points="136.391,381 136.391,382" vector-effect="none"/></g><defs><clipPath id="clip153"><path d="M32.8906,278 L330.156,278 L330.156,421 L32.8906,421 L32.8906,278 z"/></clipPath></defs><g clip-path="url(#clip153)" fill="none" opacity="1" stroke="#5d5d5d" stroke-linecap="butt" stroke-linejoin="miter" stroke-miterlimit="2" stroke-opacity="1" stroke-width="1" transform="matrix(1,0,0,1,-32.8906,-278)"><polyline fill="none" points="136.391,382 136.391,383" vector-effect="none"/></g><defs><clipPath id="clip154"><path d="M32.8906,278 L330.156,278 L330.156,421 L32.8906,421 L32.8906,278 z"/></clipPath></defs><g clip-path="url(#clip154)" fill="none" opacity="1" stroke="#8b8b8b" stroke-linecap="butt" stroke-linejoin="miter" stroke-miterlimit="2" stroke-opacity="1" stroke-width="1" transform="matrix(1,0,0,1,-32.8906,-278)"><polyline fill="none" points="136.391,383 136.391,384" vector-effect="none"/></g><defs><clipPath id="clip155"><path d="M32.8906,278 L330.156,278 L330.156,421 L32.8906,421 L32.8906,278 z"/></clipPath></defs><g clip-path="url(#clip155)" fill="none" opacity="1" stroke="#b9b9b9" stroke-linecap="butt" stroke-linejoin="miter" stroke-miterlimit="2" stroke-opacity="1" stroke-width="1" transform="matrix(1,0,0,1,-32.8906,-278)"><polyline fill="none" points="136.391,384 136.391,385" vector-effect="none"/></g><defs><clipPath id="clip156"><path d="M32.8906,278 L330.156,278 L330.156,421 L32.8906,421 L32.8906,278 z"/></clipPath></defs><g clip-path="url(#clip156)" fill="none" opacity="1" stroke="#000000" stroke-linecap="butt" stroke-linejoin="miter" stroke-miterlimit="2" stroke-opacity="1" stroke-width="1" transform="matrix(1,0,0,1,-32.8906,-278)"><polyline fill="none" points="136.391,391 136.391,390" vector-effect="none"/></g><defs><clipPath id="clip157"><path d="M32.8906,278 L330.156,278 L330.156,421 L32.8906,421 L32.8906,278 z"/></clipPath></defs><g clip-path="url(#clip157)" fill="none" opacity="1" stroke="#2e2e2e" stroke-linecap="butt" stroke-linejoin="miter" stroke-miterlimit="2" stroke-opacity="1" stroke-width="1" transform="matrix(1,0,0,1,-32.8906,-278)"><polyline fill="none" points="136.391,390 136.391,389" vector-effect="none"/></g><defs><clipPath id="clip158"><path d="M32.8906,278 L330.156,278 L330.156,421 L32.8906,421 L32.8906,278 z"/></clipPath></defs><g clip-path="url(#clip158)" fill="none" opacity="1" stroke="#5d5d5d" stroke-linecap="butt" stroke-linejoin="miter" stroke-miterlimit="2" stroke-opacity="1" stroke-width="1" transform="matrix(1,0,0,1,-32.8906,-278)"><polyline fill="none" points="136.391,389 136.391,388" vector-effect="none"/></g><defs><clipPath id="clip159"><path d="M32.8906,278 L330.156,278 L330.156,421 L32.8906,421 L32.8906,278 z"/></clipPath></defs><g clip-path="url(#clip159)" fill="none" opacity="1" stroke="#8b8b8b" stroke-linecap="butt" stroke-linejoin="miter" stroke-miterlimit="2" stroke-opacity="1" stroke-width="1" transform="matrix(1,0,0,1,-32.8906,-278)"><polyline fill="none" points="136.391,388 136.391,387" vector-effect="none"/></g><defs><clipPath id="clip160"><path d="M32.8906,278 L330.156,278 L330.156,421 L32.8906,421 L32.8906,278 z"/></clipPath></defs><g clip-path="url(#clip160)" fill="none" opacity="1" stroke="#b9b9b9" stroke-linecap="butt" stroke-linejoin="miter" stroke-miterlimit="2" stroke-opacity="1" stroke-width="1" transform="matrix(1,0,0,1,-32.8906,-278)"><polyline fill="none" points="136.391,387 136.391,386" vector-effect="none"/></g><defs><clipPath id="clip163"><path d="M-242,-117 L55.2656,-117 L55.2656,26 L-242,26 L-242,-117 z"/></clipPath></defs><g clip-path="url(#clip163)" fill="#000000" fill-opacity="1" opacity="1" stroke="none" stroke-opacity="0" transform="matrix(1,0,0,1,242,117)"><path d="M0,0 L-8,-4 L-8,4 L0,0 z" fill-rule="nonzero" vector-effect="none"/></g><defs><clipPath id="clip166"><path d="M32.8906,278 L330.156,278 L330.156,421 L32.8906,421 L32.8906,278 z"/></clipPath></defs><g clip-path="url(#clip166)" fill="none" opacity="1" stroke="#000000" stroke-linecap="butt" stroke-linejoin="miter" stroke-miterlimit="2" stroke-opacity="1" stroke-width="1" transform="matrix(1,0,0,1,-32.8906,-278)"><path d="M205.391,395.5 L267.391,395.5" fill-rule="evenodd" vector-effect="none"/></g></g><!--generated on ubuntu @ 2020-12-15 15:44:45 CET--></svg>
