<?xml version="1.0" encoding="UTF-8"?><svg width="166.423mm" height="62.4417mm" viewBox="0 0 629 236" xmlns="http://www.w3.org/2000/svg" xmlns:xlink="http://www.w3.org/1999/xlink"><g fill="none" stroke="black" stroke-width="1" fill-rule="evenodd" stroke-linecap="square" stroke-linejoin="bevel"><g clip-path="none" fill="#ffffff" fill-opacity="1" opacity="1" stroke="none" stroke-opacity="0" transform="matrix(1,0,0,1,0,0)"><path d="M0,0 L629.109,0 L629.109,236 L0,236 L0,0 z" fill-rule="evenodd" vector-effect="none"/></g><defs><clipPath id="clip3"><path d="M-2,-2 L627.109,-2 L627.109,234 L-2,234 L-2,-2 z"/></clipPath></defs><g clip-path="url(#clip3)" fill="#ffffff" fill-opacity="1" opacity="1" stroke="none" stroke-opacity="0" transform="matrix(1,0,0,1,2,2)"><path d="M0,0 L195,0 L195,28 L0,28 L0,0 z" fill-rule="evenodd" vector-effect="none"/></g><defs><clipPath id="clip7"><path d="M-97,-14 L98,-14 L98,14 L-97,14 L-97,-14 z"/></clipPath></defs><g clip-path="url(#clip7)" fill="none" opacity="1" stroke="#000000" stroke-linecap="butt" stroke-linejoin="miter" stroke-miterlimit="2" stroke-opacity="1" stroke-width="1" transform="matrix(1,0,0,1,99,16)"><text fill="#000000" fill-opacity="1" font-family="Liberation Sans" font-size="10" font-style="normal" font-weight="400" stroke="none" textLength="40.4844" x="-20.2344" xml:space="preserve" y="3.5">For Each</text></g><defs><clipPath id="clip12"><path d="M-2.5,-2.5 L626.609,-2.5 L626.609,233.5 L-2.5,233.5 L-2.5,-2.5 z"/></clipPath></defs><g clip-path="url(#clip12)" fill="none" opacity="1" stroke="#000000" stroke-linecap="butt" stroke-linejoin="miter" stroke-miterlimit="2" stroke-opacity="1" stroke-width="1" transform="matrix(1,0,0,1,2.5,2.5)"><path d="M0,0 L195,0 L195,28 L0,28 L0,0 z" fill-rule="evenodd" vector-effect="none"/></g><defs><clipPath id="clip18"><path d="M0,0 L42,0 L42,15 L0,15 L0,0 z"/></clipPath></defs><g clip-path="url(#clip18)" fill="none" opacity="1" stroke="#000000" stroke-linecap="square" stroke-linejoin="bevel" stroke-opacity="1" stroke-width="1" transform="matrix(1,0,0,1,78.2578,32)"><text fill="#000000" fill-opacity="1" font-family="Liberation Sans" font-size="10" font-style="normal" font-weight="400" stroke="none" textLength="40.4844" x="1" xml:space="preserve" y="11">For Each</text></g><defs><clipPath id="clip26"><path d="M-2,-99 L627.109,-99 L627.109,137 L-2,137 L-2,-99 z"/></clipPath></defs><g clip-path="url(#clip26)" fill="#ffffff" fill-opacity="1" opacity="1" stroke="none" stroke-opacity="0" transform="matrix(1,0,0,1,2,99)"><path d="M7,0 L23,0 C26.866,0 30,3.13401 30,7 C30,10.866 26.866,14 23,14 L7,14 C3.13401,14 0,10.866 0,7 C0,3.13401 3.13401,0 7,0 z" fill-rule="nonzero" vector-effect="none"/></g><defs><clipPath id="clip30"><path d="M-11,-7 L19,-7 L19,7 L-11,7 L-11,-7 z"/></clipPath></defs><g clip-path="url(#clip30)" fill="none" opacity="1" stroke="#000000" stroke-linecap="butt" stroke-linejoin="miter" stroke-miterlimit="2" stroke-opacity="1" stroke-width="1" transform="matrix(1,0,0,1,13,106)"><text fill="#000000" fill-opacity="1" font-family="Liberation Sans" font-size="10" font-style="normal" font-weight="400" stroke="none" textLength="5.54688" x="-2.76562" xml:space="preserve" y="3.5">1</text></g><defs><clipPath id="clip35"><path d="M-1.65,-99.25 L627.459,-99.25 L627.459,136.75 L-1.65,136.75 L-1.65,-99.25 z"/></clipPath></defs><g clip-path="url(#clip35)" fill="none" opacity="1" stroke="#000000" stroke-linecap="butt" stroke-linejoin="bevel" stroke-opacity="1" stroke-width="0.5" transform="matrix(1,0,0,1,1.65,99.25)"><path d="M21.6,0 L21.6,14 M21.6,7 L30,7 M21.6,0 L28.6,7 L21.6,14 L21.6,0 z" fill-rule="nonzero" vector-effect="none"/></g><defs><clipPath id="clip38"><path d="M-2.5,-99.5 L626.609,-99.5 L626.609,136.5 L-2.5,136.5 L-2.5,-99.5 z"/></clipPath></defs><g clip-path="url(#clip38)" fill="none" opacity="1" stroke="#000000" stroke-linecap="butt" stroke-linejoin="miter" stroke-miterlimit="2" stroke-opacity="1" stroke-width="1" transform="matrix(1,0,0,1,2.5,99.5)"><path d="M7,0 L23,0 C26.866,0 30,3.13401 30,7 C30,10.866 26.866,14 23,14 L7,14 C3.13401,14 0,10.866 0,7 C0,3.13401 3.13401,0 7,0 z" fill-rule="nonzero" vector-effect="none"/></g><defs><clipPath id="clip41"><path d="M-577,-114 L52.1094,-114 L52.1094,122 L-577,122 L-577,-114 z"/></clipPath></defs><g clip-path="url(#clip41)" fill="#ffffff" fill-opacity="1" opacity="1" stroke="none" stroke-opacity="0" transform="matrix(1,0,0,1,577,114)"><path d="M7,0 L23,0 C26.866,0 30,3.13401 30,7 C30,10.866 26.866,14 23,14 L7,14 C3.13401,14 0,10.866 0,7 C0,3.13401 3.13401,0 7,0 z" fill-rule="nonzero" vector-effect="none"/></g><defs><clipPath id="clip45"><path d="M-19,-7 L11,-7 L11,7 L-19,7 L-19,-7 z"/></clipPath></defs><g clip-path="url(#clip45)" fill="none" opacity="1" stroke="#000000" stroke-linecap="butt" stroke-linejoin="miter" stroke-miterlimit="2" stroke-opacity="1" stroke-width="1" transform="matrix(1,0,0,1,596,121)"><text fill="#000000" fill-opacity="1" font-family="Liberation Sans" font-size="10" font-style="normal" font-weight="400" stroke="none" textLength="5.54688" x="-2.76562" xml:space="preserve" y="3.5">1</text></g><defs><clipPath id="clip53"><path d="M0,0 L70,0 L70,15 L0,15 L0,0 z"/></clipPath></defs><g clip-path="url(#clip53)" fill="none" opacity="1" stroke="#000000" stroke-linecap="square" stroke-linejoin="bevel" stroke-opacity="1" stroke-width="1" transform="matrix(1,0,0,1,556.891,130)"><text fill="#000000" fill-opacity="1" font-family="Liberation Sans" font-size="10" font-style="normal" font-weight="400" stroke="none" textLength="68.2188" x="1" xml:space="preserve" y="11">gate_delay_out</text></g><defs><clipPath id="clip61"><path d="M-577.25,-114.25 L51.8594,-114.25 L51.8594,121.75 L-577.25,121.75 L-577.25,-114.25 z"/></clipPath></defs><g clip-path="url(#clip61)" fill="none" opacity="1" stroke="#000000" stroke-linecap="butt" stroke-linejoin="bevel" stroke-opacity="1" stroke-width="0.5" transform="matrix(1,0,0,1,577.25,114.25)"><path d="M8.4,0 L8.4,14 M8.4,7 L0,7 M8.4,0 L1.4,7 L8.4,14 L8.4,0 z" fill-rule="nonzero" vector-effect="none"/></g><defs><clipPath id="clip64"><path d="M-577.5,-114.5 L51.6094,-114.5 L51.6094,121.5 L-577.5,121.5 L-577.5,-114.5 z"/></clipPath></defs><g clip-path="url(#clip64)" fill="none" opacity="1" stroke="#000000" stroke-linecap="butt" stroke-linejoin="miter" stroke-miterlimit="2" stroke-opacity="1" stroke-width="1" transform="matrix(1,0,0,1,577.5,114.5)"><path d="M7,0 L23,0 C26.866,0 30,3.13401 30,7 C30,10.866 26.866,14 23,14 L7,14 C3.13401,14 0,10.866 0,7 C0,3.13401 3.13401,0 7,0 z" fill-rule="nonzero" vector-effect="none"/></g><defs><clipPath id="clip67"><path d="M-317,-84 L312.109,-84 L312.109,152 L-317,152 L-317,-84 z"/></clipPath></defs><g clip-path="url(#clip67)" fill="#ffffff" fill-opacity="1" opacity="1" stroke="none" stroke-opacity="0" transform="matrix(1,0,0,1,317,84)"><path d="M0,0 L50,0 L50,49 L0,49 L0,0 z" fill-rule="evenodd" vector-effect="none"/></g><defs><clipPath id="clip71"><path d="M0,0 L51,0 L51,50 L0,50 L0,0 z"/></clipPath></defs><g clip-path="url(#clip71)" fill="none" opacity="1" stroke="none" stroke-opacity="0" transform="matrix(1,0,0,1,317,84)"><path d="M0,0 L51,0 L51,50 L0,50 L0,0 z" fill-rule="evenodd" vector-effect="none"/></g><defs><clipPath id="clip82"><path d="M-12,-6 L17,-6 L17,10 L-12,10 L-12,-6 z"/></clipPath></defs><g clip-path="url(#clip82)" fill="#000000" fill-opacity="1" opacity="1" stroke="none" stroke-opacity="0" transform="matrix(1,0,0,1,339.5,106)"><path d="M-6.89062,-1.57812 L-8.5,2.76562 L-5.28125,2.76562 L-6.89062,-1.57812 M-7.5625,-2.75 L-6.21875,-2.75 L-2.89062,6 L-4.125,6 L-4.92188,3.75 L-8.85938,3.75 L-9.65625,6 L-10.9062,6 L-7.5625,-2.75 M-1.625,-2.75 L-0.03125,-2.75 L3.85938,4.5625 L3.85938,-2.75 L5,-2.75 L5,6 L3.40625,6 L-0.46875,-1.3125 L-0.46875,6 L-1.625,6 L-1.625,-2.75 M8.53125,-1.78125 L8.53125,5.03125 L9.96875,5.03125 C11.1771,5.03125 12.0599,4.75781 12.6172,4.21094 C13.1745,3.66406 13.4531,2.79688 13.4531,1.60938 C13.4531,0.442708 13.1745,-0.414062 12.6172,-0.960938 C12.0599,-1.50781 11.1771,-1.78125 9.96875,-1.78125 L8.53125,-1.78125 M7.34375,-2.75 L9.78125,-2.75 C11.4792,-2.75 12.724,-2.39844 13.5156,-1.69531 C14.3073,-0.992188 14.7031,0.109375 14.7031,1.60938 C14.7031,3.11979 14.3047,4.22917 13.5078,4.9375 C12.7109,5.64583 11.4688,6 9.78125,6 L7.34375,6 L7.34375,-2.75" fill-rule="nonzero" vector-effect="none"/></g><defs><clipPath id="clip100"><path d="M-317.5,-84.5 L311.609,-84.5 L311.609,151.5 L-317.5,151.5 L-317.5,-84.5 z"/></clipPath></defs><g clip-path="url(#clip100)" fill="none" opacity="1" stroke="#000000" stroke-linecap="butt" stroke-linejoin="miter" stroke-miterlimit="2" stroke-opacity="1" stroke-width="1" transform="matrix(1,0,0,1,317.5,84.5)"><path d="M0,0 L50,0 L50,49 L0,49 L0,0 z" fill-rule="evenodd" vector-effect="none"/></g><defs><clipPath id="clip108"><path d="M-317,-184 L312.109,-184 L312.109,52 L-317,52 L-317,-184 z"/></clipPath></defs><g clip-path="url(#clip108)" fill="#ffffff" fill-opacity="1" opacity="1" stroke="none" stroke-opacity="0" transform="matrix(1,0,0,1,317,184)"><path d="M0,0 L50,0 L50,49 L0,49 L0,0 z" fill-rule="evenodd" vector-effect="none"/></g><defs><clipPath id="clip112"><path d="M0,0 L51,0 L51,50 L0,50 L0,0 z"/></clipPath></defs><g clip-path="url(#clip112)" fill="none" opacity="1" stroke="none" stroke-opacity="0" transform="matrix(1,0,0,1,317,184)"><path d="M0,0 L51,0 L51,50 L0,50 L0,0 z" fill-rule="evenodd" vector-effect="none"/></g><defs><clipPath id="clip123"><path d="M-12,-6 L17,-6 L17,10 L-12,10 L-12,-6 z"/></clipPath></defs><g clip-path="url(#clip123)" fill="#000000" fill-opacity="1" opacity="1" stroke="none" stroke-opacity="0" transform="matrix(1,0,0,1,339.5,206)"><path d="M-6.89062,-1.57812 L-8.5,2.76562 L-5.28125,2.76562 L-6.89062,-1.57812 M-7.5625,-2.75 L-6.21875,-2.75 L-2.89062,6 L-4.125,6 L-4.92188,3.75 L-8.85938,3.75 L-9.65625,6 L-10.9062,6 L-7.5625,-2.75 M-1.625,-2.75 L-0.03125,-2.75 L3.85938,4.5625 L3.85938,-2.75 L5,-2.75 L5,6 L3.40625,6 L-0.46875,-1.3125 L-0.46875,6 L-1.625,6 L-1.625,-2.75 M8.53125,-1.78125 L8.53125,5.03125 L9.96875,5.03125 C11.1771,5.03125 12.0599,4.75781 12.6172,4.21094 C13.1745,3.66406 13.4531,2.79688 13.4531,1.60938 C13.4531,0.442708 13.1745,-0.414062 12.6172,-0.960938 C12.0599,-1.50781 11.1771,-1.78125 9.96875,-1.78125 L8.53125,-1.78125 M7.34375,-2.75 L9.78125,-2.75 C11.4792,-2.75 12.724,-2.39844 13.5156,-1.69531 C14.3073,-0.992188 14.7031,0.109375 14.7031,1.60938 C14.7031,3.11979 14.3047,4.22917 13.5078,4.9375 C12.7109,5.64583 11.4688,6 9.78125,6 L7.34375,6 L7.34375,-2.75" fill-rule="nonzero" vector-effect="none"/></g><defs><clipPath id="clip141"><path d="M-317.5,-184.5 L311.609,-184.5 L311.609,51.5 L-317.5,51.5 L-317.5,-184.5 z"/></clipPath></defs><g clip-path="url(#clip141)" fill="none" opacity="1" stroke="#000000" stroke-linecap="butt" stroke-linejoin="miter" stroke-miterlimit="2" stroke-opacity="1" stroke-width="1" transform="matrix(1,0,0,1,317.5,184.5)"><path d="M0,0 L50,0 L50,49 L0,49 L0,0 z" fill-rule="evenodd" vector-effect="none"/></g><defs><clipPath id="clip149"><path d="M-197,-103 L432.109,-103 L432.109,133 L-197,133 L-197,-103 z"/></clipPath></defs><g clip-path="url(#clip149)" fill="#ffffff" fill-opacity="1" opacity="1" stroke="none" stroke-opacity="0" transform="matrix(1,0,0,1,197,103)"><path d="M0,0 L55,0 L55,36 L0,36 L0,0 z" fill-rule="evenodd" vector-effect="none"/></g><defs><clipPath id="clip153"><path d="M0,0 L56,0 L56,37 L0,37 L0,0 z"/></clipPath></defs><g clip-path="url(#clip153)" fill="none" opacity="1" stroke="none" stroke-opacity="0" transform="matrix(1,0,0,1,197,103)"><path d="M0,0 L56,0 L56,37 L0,37 L0,0 z" fill-rule="evenodd" vector-effect="none"/></g><defs><clipPath id="clip164"><path d="M-12,-6 L16,-6 L16,10 L-12,10 L-12,-6 z"/></clipPath></defs><g clip-path="url(#clip164)" fill="#000000" fill-opacity="1" opacity="1" stroke="none" stroke-opacity="0" transform="matrix(1,0,0,1,222,118.5)"><path d="M-9.82812,-2.75 L-8.23438,-2.75 L-4.34375,4.5625 L-4.34375,-2.75 L-3.20312,-2.75 L-3.20312,6 L-4.79688,6 L-8.67188,-1.3125 L-8.67188,6 L-9.82812,6 L-9.82812,-2.75 M2.70312,-1.95312 C1.83854,-1.95312 1.15365,-1.63281 0.648438,-0.992188 C0.143229,-0.351562 -0.109375,0.526042 -0.109375,1.64062 C-0.109375,2.73438 0.143229,3.60156 0.648438,4.24219 C1.15365,4.88281 1.83854,5.20312 2.70312,5.20312 C3.55729,5.20312 4.23698,4.88281 4.74219,4.24219 C5.2474,3.60156 5.5,2.73438 5.5,1.64062 C5.5,0.526042 5.2474,-0.351562 4.74219,-0.992188 C4.23698,-1.63281 3.55729,-1.95312 2.70312,-1.95312 M2.70312,-2.90625 C3.92188,-2.90625 4.89844,-2.49479 5.63281,-1.67188 C6.36719,-0.848958 6.73438,0.255208 6.73438,1.64062 C6.73438,3.01562 6.36719,4.11458 5.63281,4.9375 C4.89844,5.76042 3.92188,6.17188 2.70312,6.17188 C1.47396,6.17188 0.489583,5.76042 -0.25,4.9375 C-0.989583,4.11458 -1.35938,3.01562 -1.35938,1.64062 C-1.35938,0.255208 -0.989583,-0.848958 -0.25,-1.67188 C0.489583,-2.49479 1.47396,-2.90625 2.70312,-2.90625 M7.375,-2.75 L14.7656,-2.75 L14.7656,-1.75 L11.6719,-1.75 L11.6719,6 L10.4844,6 L10.4844,-1.75 L7.375,-1.75 L7.375,-2.75" fill-rule="nonzero" vector-effect="none"/></g><defs><clipPath id="clip182"><path d="M-197.5,-103.5 L431.609,-103.5 L431.609,132.5 L-197.5,132.5 L-197.5,-103.5 z"/></clipPath></defs><g clip-path="url(#clip182)" fill="none" opacity="1" stroke="#000000" stroke-linecap="butt" stroke-linejoin="miter" stroke-miterlimit="2" stroke-opacity="1" stroke-width="1" transform="matrix(1,0,0,1,197.5,103.5)"><path d="M0,0 L55,0 L55,36 L0,36 L0,0 z" fill-rule="evenodd" vector-effect="none"/></g><defs><clipPath id="clip190"><path d="M-197,-178 L432.109,-178 L432.109,58 L-197,58 L-197,-178 z"/></clipPath></defs><g clip-path="url(#clip190)" fill="#ffffff" fill-opacity="1" opacity="1" stroke="none" stroke-opacity="0" transform="matrix(1,0,0,1,197,178)"><path d="M0,0 L55,0 L55,36 L0,36 L0,0 z" fill-rule="evenodd" vector-effect="none"/></g><defs><clipPath id="clip194"><path d="M0,0 L56,0 L56,37 L0,37 L0,0 z"/></clipPath></defs><g clip-path="url(#clip194)" fill="none" opacity="1" stroke="none" stroke-opacity="0" transform="matrix(1,0,0,1,197,178)"><path d="M0,0 L56,0 L56,37 L0,37 L0,0 z" fill-rule="evenodd" vector-effect="none"/></g><defs><clipPath id="clip205"><path d="M-12,-6 L16,-6 L16,10 L-12,10 L-12,-6 z"/></clipPath></defs><g clip-path="url(#clip205)" fill="#000000" fill-opacity="1" opacity="1" stroke="none" stroke-opacity="0" transform="matrix(1,0,0,1,222,193.5)"><path d="M-9.82812,-2.75 L-8.23438,-2.75 L-4.34375,4.5625 L-4.34375,-2.75 L-3.20312,-2.75 L-3.20312,6 L-4.79688,6 L-8.67188,-1.3125 L-8.67188,6 L-9.82812,6 L-9.82812,-2.75 M2.70312,-1.95312 C1.83854,-1.95312 1.15365,-1.63281 0.648438,-0.992188 C0.143229,-0.351562 -0.109375,0.526042 -0.109375,1.64062 C-0.109375,2.73438 0.143229,3.60156 0.648438,4.24219 C1.15365,4.88281 1.83854,5.20312 2.70312,5.20312 C3.55729,5.20312 4.23698,4.88281 4.74219,4.24219 C5.2474,3.60156 5.5,2.73438 5.5,1.64062 C5.5,0.526042 5.2474,-0.351562 4.74219,-0.992188 C4.23698,-1.63281 3.55729,-1.95312 2.70312,-1.95312 M2.70312,-2.90625 C3.92188,-2.90625 4.89844,-2.49479 5.63281,-1.67188 C6.36719,-0.848958 6.73438,0.255208 6.73438,1.64062 C6.73438,3.01562 6.36719,4.11458 5.63281,4.9375 C4.89844,5.76042 3.92188,6.17188 2.70312,6.17188 C1.47396,6.17188 0.489583,5.76042 -0.25,4.9375 C-0.989583,4.11458 -1.35938,3.01562 -1.35938,1.64062 C-1.35938,0.255208 -0.989583,-0.848958 -0.25,-1.67188 C0.489583,-2.49479 1.47396,-2.90625 2.70312,-2.90625 M7.375,-2.75 L14.7656,-2.75 L14.7656,-1.75 L11.6719,-1.75 L11.6719,6 L10.4844,6 L10.4844,-1.75 L7.375,-1.75 L7.375,-2.75" fill-rule="nonzero" vector-effect="none"/></g><defs><clipPath id="clip223"><path d="M-197.5,-178.5 L431.609,-178.5 L431.609,57.5 L-197.5,57.5 L-197.5,-178.5 z"/></clipPath></defs><g clip-path="url(#clip223)" fill="none" opacity="1" stroke="#000000" stroke-linecap="butt" stroke-linejoin="miter" stroke-miterlimit="2" stroke-opacity="1" stroke-width="1" transform="matrix(1,0,0,1,197.5,178.5)"><path d="M0,0 L55,0 L55,36 L0,36 L0,0 z" fill-rule="evenodd" vector-effect="none"/></g><defs><clipPath id="clip231"><path d="M-547,-102 L82.1094,-102 L82.1094,134 L-547,134 L-547,-102 z"/></clipPath></defs><g clip-path="url(#clip231)" fill="#ffffff" fill-opacity="1" opacity="1" stroke="none" stroke-opacity="0" transform="matrix(1,0,0,1,547,102)"><path d="M0,0 L5,0 L5,38 L0,38 L0,0 z" fill-rule="evenodd" vector-effect="none"/></g><defs><clipPath id="clip235"><path d="M730,391 L735,391 L735,429 L730,429 L730,391 z"/></clipPath></defs><g clip-path="url(#clip235)" fill="#000000" fill-opacity="1" opacity="1" stroke="none" stroke-opacity="0" transform="matrix(1,0,0,1,-183,-289)"><path d="M730,391 L735,391 L735,429 L730,429 L730,391 z" fill-rule="evenodd" vector-effect="none"/></g><defs><clipPath id="clip240"><path d="M-547.5,-102.5 L81.6094,-102.5 L81.6094,133.5 L-547.5,133.5 L-547.5,-102.5 z"/></clipPath></defs><g clip-path="url(#clip240)" fill="none" opacity="1" stroke="#000000" stroke-linecap="butt" stroke-linejoin="miter" stroke-miterlimit="2" stroke-opacity="1" stroke-width="1" transform="matrix(1,0,0,1,547.5,102.5)"><path d="M0,0 L5,0 L5,38 L0,38 L0,0 z" fill-rule="evenodd" vector-effect="none"/></g><defs><clipPath id="clip243"><path d="M-87,-87 L542.109,-87 L542.109,149 L-87,149 L-87,-87 z"/></clipPath></defs><g clip-path="url(#clip243)" fill="#ffffff" fill-opacity="1" opacity="1" stroke="none" stroke-opacity="0" transform="matrix(1,0,0,1,87,87)"><path d="M0,0 L5,0 L5,38 L0,38 L0,0 z" fill-rule="evenodd" vector-effect="none"/></g><defs><clipPath id="clip247"><path d="M270,376 L275,376 L275,414 L270,414 L270,376 z"/></clipPath></defs><g clip-path="url(#clip247)" fill="#000000" fill-opacity="1" opacity="1" stroke="none" stroke-opacity="0" transform="matrix(1,0,0,1,-183,-289)"><path d="M270,376 L275,376 L275,414 L270,414 L270,376 z" fill-rule="evenodd" vector-effect="none"/></g><defs><clipPath id="clip252"><path d="M-87.5,-87.5 L541.609,-87.5 L541.609,148.5 L-87.5,148.5 L-87.5,-87.5 z"/></clipPath></defs><g clip-path="url(#clip252)" fill="none" opacity="1" stroke="#000000" stroke-linecap="butt" stroke-linejoin="miter" stroke-miterlimit="2" stroke-opacity="1" stroke-width="1" transform="matrix(1,0,0,1,87.5,87.5)"><path d="M0,0 L5,0 L5,38 L0,38 L0,0 z" fill-rule="evenodd" vector-effect="none"/></g><defs><clipPath id="clip255"><path d="M-197,-121 L432.109,-121 L432.109,115 L-197,115 L-197,-121 z"/></clipPath></defs><g clip-path="url(#clip255)" fill="#000000" fill-opacity="1" opacity="1" stroke="none" stroke-opacity="0" transform="matrix(1,0,0,1,197,121)"><path d="M0,0 L-8,-4 L-8,4 L0,0 z" fill-rule="nonzero" vector-effect="none"/></g><defs><clipPath id="clip258"><path d="M183,289 L812.109,289 L812.109,525 L183,525 L183,289 z"/></clipPath></defs><g clip-path="url(#clip258)" fill="none" opacity="1" stroke="#000000" stroke-linecap="butt" stroke-linejoin="miter" stroke-miterlimit="2" stroke-opacity="1" stroke-width="1" transform="matrix(1,0,0,1,-183,-289)"><path d="M319.5,410.5 L372.5,410.5" fill-rule="evenodd" vector-effect="none"/></g><defs><clipPath id="clip263"><path d="M183,289 L812.109,289 L812.109,525 L183,525 L183,289 z"/></clipPath></defs><g clip-path="url(#clip263)" fill="none" opacity="1" stroke="#000000" stroke-linecap="butt" stroke-linejoin="miter" stroke-miterlimit="2" stroke-opacity="1" stroke-width="1" transform="matrix(1,0,0,1,-183,-289)"><path d="M275.5,405.5 L319.5,405.5 L319.5,410.5" fill-rule="evenodd" vector-effect="none"/></g><defs><clipPath id="clip266"><path d="M-317,-221 L312.109,-221 L312.109,15 L-317,15 L-317,-221 z"/></clipPath></defs><g clip-path="url(#clip266)" fill="#000000" fill-opacity="1" opacity="1" stroke="none" stroke-opacity="0" transform="matrix(1,0,0,1,317,221)"><path d="M0,0 L-8,-4 L-8,4 L0,0 z" fill-rule="nonzero" vector-effect="none"/></g><defs><clipPath id="clip269"><path d="M183,289 L812.109,289 L812.109,525 L183,525 L183,289 z"/></clipPath></defs><g clip-path="url(#clip269)" fill="none" opacity="1" stroke="#000000" stroke-linecap="butt" stroke-linejoin="miter" stroke-miterlimit="2" stroke-opacity="1" stroke-width="1" transform="matrix(1,0,0,1,-183,-289)"><path d="M319.5,410.5 L319.5,510.5 L492.5,510.5" fill-rule="evenodd" vector-effect="none"/></g><defs><clipPath id="clip272"><path d="M-136,-121 L493.109,-121 L493.109,115 L-136,115 L-136,-121 z"/></clipPath></defs><g clip-path="url(#clip272)" fill="#000000" fill-opacity="1" opacity="1" stroke="none" stroke-opacity="0" transform="matrix(1,0,0,1,136,121)"><path d="M3,0.5 C3,1.88071 1.88071,3 0.5,3 C-0.880712,3 -2,1.88071 -2,0.5 C-2,-0.880712 -0.880712,-2 0.5,-2 C1.88071,-2 3,-0.880712 3,0.5 z" fill-rule="evenodd" vector-effect="none"/></g><defs><clipPath id="clip275"><path d="M-317,-121 L312.109,-121 L312.109,115 L-317,115 L-317,-121 z"/></clipPath></defs><g clip-path="url(#clip275)" fill="#000000" fill-opacity="1" opacity="1" stroke="none" stroke-opacity="0" transform="matrix(1,0,0,1,317,121)"><path d="M0,0 L-8,-4 L-8,4 L0,0 z" fill-rule="nonzero" vector-effect="none"/></g><defs><clipPath id="clip278"><path d="M183,289 L812.109,289 L812.109,525 L183,525 L183,289 z"/></clipPath></defs><g clip-path="url(#clip278)" fill="none" opacity="1" stroke="#000000" stroke-linecap="butt" stroke-linejoin="miter" stroke-miterlimit="2" stroke-opacity="1" stroke-width="1" transform="matrix(1,0,0,1,-183,-289)"><path d="M435.5,410.5 L492.5,410.5" fill-rule="evenodd" vector-effect="none"/></g><defs><clipPath id="clip281"><path d="M-317,-196 L312.109,-196 L312.109,40 L-317,40 L-317,-196 z"/></clipPath></defs><g clip-path="url(#clip281)" fill="#000000" fill-opacity="1" opacity="1" stroke="none" stroke-opacity="0" transform="matrix(1,0,0,1,317,196)"><path d="M0,0 L-8,-4 L-8,4 L0,0 z" fill-rule="nonzero" vector-effect="none"/></g><defs><clipPath id="clip284"><path d="M183,289 L812.109,289 L812.109,525 L183,525 L183,289 z"/></clipPath></defs><g clip-path="url(#clip284)" fill="none" opacity="1" stroke="#000000" stroke-linecap="butt" stroke-linejoin="miter" stroke-miterlimit="2" stroke-opacity="1" stroke-width="1" transform="matrix(1,0,0,1,-183,-289)"><path d="M435.5,485.5 L492.5,485.5" fill-rule="evenodd" vector-effect="none"/></g><defs><clipPath id="clip287"><path d="M-547,-111 L82.1094,-111 L82.1094,125 L-547,125 L-547,-111 z"/></clipPath></defs><g clip-path="url(#clip287)" fill="#000000" fill-opacity="1" opacity="1" stroke="none" stroke-opacity="0" transform="matrix(1,0,0,1,547,111)"><path d="M0,0 L-8,-4 L-8,4 L0,0 z" fill-rule="nonzero" vector-effect="none"/></g><defs><clipPath id="clip290"><path d="M183,289 L812.109,289 L812.109,525 L183,525 L183,289 z"/></clipPath></defs><g clip-path="url(#clip290)" fill="none" opacity="1" stroke="#000000" stroke-linecap="butt" stroke-linejoin="miter" stroke-miterlimit="2" stroke-opacity="1" stroke-width="1" transform="matrix(1,0,0,1,-183,-289)"><path d="M550.5,400.5 L722.5,400.5" fill-rule="evenodd" vector-effect="none"/></g><defs><clipPath id="clip296"><path d="M0,0 L63,0 L63,18 L0,18 L0,0 z"/></clipPath></defs><g clip-path="url(#clip296)" fill="none" opacity="1" stroke="#000000" stroke-linecap="square" stroke-linejoin="bevel" stroke-opacity="1" stroke-width="1" transform="matrix(1,0,0,1,420.297,91.5)"><text fill="#000000" fill-opacity="1" font-family="Liberation Sans" font-size="14" font-style="normal" font-weight="400" stroke="none" textLength="61.4062" x="1" xml:space="preserve" y="14">PWM_AH</text></g><defs><clipPath id="clip304"><path d="M-547,-131 L82.1094,-131 L82.1094,105 L-547,105 L-547,-131 z"/></clipPath></defs><g clip-path="url(#clip304)" fill="#000000" fill-opacity="1" opacity="1" stroke="none" stroke-opacity="0" transform="matrix(1,0,0,1,547,131)"><path d="M0,0 L-8,-4 L-8,4 L0,0 z" fill-rule="nonzero" vector-effect="none"/></g><defs><clipPath id="clip307"><path d="M183,289 L812.109,289 L812.109,525 L183,525 L183,289 z"/></clipPath></defs><g clip-path="url(#clip307)" fill="none" opacity="1" stroke="#000000" stroke-linecap="butt" stroke-linejoin="miter" stroke-miterlimit="2" stroke-opacity="1" stroke-width="1" transform="matrix(1,0,0,1,-183,-289)"><path d="M550.5,500.5 L696.5,500.5 L696.5,420.5 L722.5,420.5" fill-rule="evenodd" vector-effect="none"/></g><defs><clipPath id="clip313"><path d="M0,0 L109,0 L109,18 L0,18 L0,0 z"/></clipPath></defs><g clip-path="url(#clip313)" fill="none" opacity="1" stroke="#000000" stroke-linecap="square" stroke-linejoin="bevel" stroke-opacity="1" stroke-width="1" transform="matrix(1,0,0,1,388.234,191.5)"><text fill="#000000" fill-opacity="1" font-family="Liberation Sans" font-size="14" font-style="normal" font-weight="400" stroke="none" textLength="106.531" x="1" xml:space="preserve" y="14">interlock_bot_out</text></g><defs><clipPath id="clip321"><path d="M-577,-121 L52.1094,-121 L52.1094,115 L-577,115 L-577,-121 z"/></clipPath></defs><g clip-path="url(#clip321)" fill="#000000" fill-opacity="1" opacity="1" stroke="none" stroke-opacity="0" transform="matrix(1,0,0,1,577,121)"><path d="M0,0 L-8,-4 L-8,4 L0,0 z" fill-rule="nonzero" vector-effect="none"/></g><defs><clipPath id="clip324"><path d="M183,289 L812.109,289 L812.109,525 L183,525 L183,289 z"/></clipPath></defs><g clip-path="url(#clip324)" fill="none" opacity="1" stroke="#000000" stroke-linecap="butt" stroke-linejoin="miter" stroke-miterlimit="2" stroke-opacity="1" stroke-width="1" transform="matrix(1,0,0,1,-183,-289)"><path d="M735.5,410.5 L752.5,410.5" fill-rule="evenodd" vector-effect="none"/></g><defs><clipPath id="clip327"><path d="M-87,-106 L542.109,-106 L542.109,130 L-87,130 L-87,-106 z"/></clipPath></defs><g clip-path="url(#clip327)" fill="#000000" fill-opacity="1" opacity="1" stroke="none" stroke-opacity="0" transform="matrix(1,0,0,1,87,106)"><path d="M0,0 L-8,-4 L-8,4 L0,0 z" fill-rule="nonzero" vector-effect="none"/></g><defs><clipPath id="clip330"><path d="M183,289 L812.109,289 L812.109,525 L183,525 L183,289 z"/></clipPath></defs><g clip-path="url(#clip330)" fill="none" opacity="1" stroke="#000000" stroke-linecap="butt" stroke-linejoin="miter" stroke-miterlimit="2" stroke-opacity="1" stroke-width="1" transform="matrix(1,0,0,1,-183,-289)"><path d="M215.5,395.5 L262.5,395.5" fill-rule="evenodd" vector-effect="none"/></g><defs><clipPath id="clip335"><path d="M183,289 L812.109,289 L812.109,525 L183,525 L183,289 z"/></clipPath></defs><g clip-path="url(#clip335)" fill="none" opacity="1" stroke="#000000" stroke-linecap="butt" stroke-linejoin="miter" stroke-miterlimit="2" stroke-opacity="1" stroke-width="1" transform="matrix(1,0,0,1,-183,-289)"><path d="M275.5,385.5 L337.5,385.5" fill-rule="evenodd" vector-effect="none"/></g><defs><clipPath id="clip338"><path d="M-317,-96 L312.109,-96 L312.109,140 L-317,140 L-317,-96 z"/></clipPath></defs><g clip-path="url(#clip338)" fill="#000000" fill-opacity="1" opacity="1" stroke="none" stroke-opacity="0" transform="matrix(1,0,0,1,317,96)"><path d="M0,0 L-8,-4 L-8,4 L0,0 z" fill-rule="nonzero" vector-effect="none"/></g><defs><clipPath id="clip341"><path d="M183,289 L812.109,289 L812.109,525 L183,525 L183,289 z"/></clipPath></defs><g clip-path="url(#clip341)" fill="none" opacity="1" stroke="#000000" stroke-linecap="butt" stroke-linejoin="miter" stroke-miterlimit="2" stroke-opacity="1" stroke-width="1" transform="matrix(1,0,0,1,-183,-289)"><path d="M337.5,385.5 L492.5,385.5" fill-rule="evenodd" vector-effect="none"/></g><defs><clipPath id="clip344"><path d="M-197,-196 L432.109,-196 L432.109,40 L-197,40 L-197,-196 z"/></clipPath></defs><g clip-path="url(#clip344)" fill="#000000" fill-opacity="1" opacity="1" stroke="none" stroke-opacity="0" transform="matrix(1,0,0,1,197,196)"><path d="M0,0 L-8,-4 L-8,4 L0,0 z" fill-rule="nonzero" vector-effect="none"/></g><defs><clipPath id="clip347"><path d="M183,289 L812.109,289 L812.109,525 L183,525 L183,289 z"/></clipPath></defs><g clip-path="url(#clip347)" fill="none" opacity="1" stroke="#000000" stroke-linecap="butt" stroke-linejoin="miter" stroke-miterlimit="2" stroke-opacity="1" stroke-width="1" transform="matrix(1,0,0,1,-183,-289)"><path d="M337.5,385.5 L337.5,410 M337.5,411 L337.5,485.5 L372.5,485.5" fill-rule="evenodd" vector-effect="none"/><polyline fill="none" points="337.5,405 337.5,406" vector-effect="none"/></g><defs><clipPath id="clip348"><path d="M183,289 L812.109,289 L812.109,525 L183,525 L183,289 z"/></clipPath></defs><g clip-path="url(#clip348)" fill="none" opacity="1" stroke="#2e2e2e" stroke-linecap="butt" stroke-linejoin="miter" stroke-miterlimit="2" stroke-opacity="1" stroke-width="1" transform="matrix(1,0,0,1,-183,-289)"><polyline fill="none" points="337.5,406 337.5,407" vector-effect="none"/></g><defs><clipPath id="clip349"><path d="M183,289 L812.109,289 L812.109,525 L183,525 L183,289 z"/></clipPath></defs><g clip-path="url(#clip349)" fill="none" opacity="1" stroke="#5d5d5d" stroke-linecap="butt" stroke-linejoin="miter" stroke-miterlimit="2" stroke-opacity="1" stroke-width="1" transform="matrix(1,0,0,1,-183,-289)"><polyline fill="none" points="337.5,407 337.5,408" vector-effect="none"/></g><defs><clipPath id="clip350"><path d="M183,289 L812.109,289 L812.109,525 L183,525 L183,289 z"/></clipPath></defs><g clip-path="url(#clip350)" fill="none" opacity="1" stroke="#8b8b8b" stroke-linecap="butt" stroke-linejoin="miter" stroke-miterlimit="2" stroke-opacity="1" stroke-width="1" transform="matrix(1,0,0,1,-183,-289)"><polyline fill="none" points="337.5,408 337.5,409" vector-effect="none"/></g><defs><clipPath id="clip351"><path d="M183,289 L812.109,289 L812.109,525 L183,525 L183,289 z"/></clipPath></defs><g clip-path="url(#clip351)" fill="none" opacity="1" stroke="#b9b9b9" stroke-linecap="butt" stroke-linejoin="miter" stroke-miterlimit="2" stroke-opacity="1" stroke-width="1" transform="matrix(1,0,0,1,-183,-289)"><polyline fill="none" points="337.5,409 337.5,410" vector-effect="none"/></g><defs><clipPath id="clip352"><path d="M183,289 L812.109,289 L812.109,525 L183,525 L183,289 z"/></clipPath></defs><g clip-path="url(#clip352)" fill="none" opacity="1" stroke="#000000" stroke-linecap="butt" stroke-linejoin="miter" stroke-miterlimit="2" stroke-opacity="1" stroke-width="1" transform="matrix(1,0,0,1,-183,-289)"><polyline fill="none" points="337.5,416 337.5,415" vector-effect="none"/></g><defs><clipPath id="clip353"><path d="M183,289 L812.109,289 L812.109,525 L183,525 L183,289 z"/></clipPath></defs><g clip-path="url(#clip353)" fill="none" opacity="1" stroke="#2e2e2e" stroke-linecap="butt" stroke-linejoin="miter" stroke-miterlimit="2" stroke-opacity="1" stroke-width="1" transform="matrix(1,0,0,1,-183,-289)"><polyline fill="none" points="337.5,415 337.5,414" vector-effect="none"/></g><defs><clipPath id="clip354"><path d="M183,289 L812.109,289 L812.109,525 L183,525 L183,289 z"/></clipPath></defs><g clip-path="url(#clip354)" fill="none" opacity="1" stroke="#5d5d5d" stroke-linecap="butt" stroke-linejoin="miter" stroke-miterlimit="2" stroke-opacity="1" stroke-width="1" transform="matrix(1,0,0,1,-183,-289)"><polyline fill="none" points="337.5,414 337.5,413" vector-effect="none"/></g><defs><clipPath id="clip355"><path d="M183,289 L812.109,289 L812.109,525 L183,525 L183,289 z"/></clipPath></defs><g clip-path="url(#clip355)" fill="none" opacity="1" stroke="#8b8b8b" stroke-linecap="butt" stroke-linejoin="miter" stroke-miterlimit="2" stroke-opacity="1" stroke-width="1" transform="matrix(1,0,0,1,-183,-289)"><polyline fill="none" points="337.5,413 337.5,412" vector-effect="none"/></g><defs><clipPath id="clip356"><path d="M183,289 L812.109,289 L812.109,525 L183,525 L183,289 z"/></clipPath></defs><g clip-path="url(#clip356)" fill="none" opacity="1" stroke="#b9b9b9" stroke-linecap="butt" stroke-linejoin="miter" stroke-miterlimit="2" stroke-opacity="1" stroke-width="1" transform="matrix(1,0,0,1,-183,-289)"><polyline fill="none" points="337.5,412 337.5,411" vector-effect="none"/></g><defs><clipPath id="clip359"><path d="M-154,-96 L475.109,-96 L475.109,140 L-154,140 L-154,-96 z"/></clipPath></defs><g clip-path="url(#clip359)" fill="#000000" fill-opacity="1" opacity="1" stroke="none" stroke-opacity="0" transform="matrix(1,0,0,1,154,96)"><path d="M3,0.5 C3,1.88071 1.88071,3 0.5,3 C-0.880712,3 -2,1.88071 -2,0.5 C-2,-0.880712 -0.880712,-2 0.5,-2 C1.88071,-2 3,-0.880712 3,0.5 z" fill-rule="evenodd" vector-effect="none"/></g></g><!--generated on ubuntu @ 2020-12-15 15:44:45 CET--></svg>
