<?xml version="1.0" encoding="UTF-8"?><svg width="150.548mm" height="45.2437mm" viewBox="0 0 569 171" xmlns="http://www.w3.org/2000/svg" xmlns:xlink="http://www.w3.org/1999/xlink"><g fill="none" stroke="black" stroke-width="1" fill-rule="evenodd" stroke-linecap="square" stroke-linejoin="bevel"><g clip-path="none" fill="#ffffff" fill-opacity="1" opacity="1" stroke="none" stroke-opacity="0" transform="matrix(1,0,0,1,0,0)"><path d="M0,0 L568.922,0 L568.922,171 L0,171 L0,0 z" fill-rule="evenodd" vector-effect="none"/></g><defs><clipPath id="clip3"><path d="M-394,-2 L174.922,-2 L174.922,169 L-394,169 L-394,-2 z"/></clipPath></defs><g clip-path="url(#clip3)" fill="#ffffff" fill-opacity="1" opacity="1" stroke="none" stroke-opacity="0" transform="matrix(1,0,0,1,394,2)"><path d="M0,0 L54,0 L54,31 L0,31 L0,0 z" fill-rule="evenodd" vector-effect="none"/></g><defs><clipPath id="clip7"><path d="M-27,-15 L27,-15 L27,16 L-27,16 L-27,-15 z"/></clipPath></defs><g clip-path="url(#clip7)" fill="none" opacity="1" stroke="#000000" stroke-linecap="butt" stroke-linejoin="miter" stroke-miterlimit="2" stroke-opacity="1" stroke-width="1" transform="matrix(1,0,0,1,421,17)"><text fill="#000000" fill-opacity="1" font-family="Liberation Sans" font-size="10" font-style="normal" font-weight="400" stroke="none" textLength="40.4844" x="-20.2344" xml:space="preserve" y="3.5">For Each</text></g><defs><clipPath id="clip12"><path d="M-393.5,-2.5 L175.422,-2.5 L175.422,168.5 L-393.5,168.5 L-393.5,-2.5 z"/></clipPath></defs><g clip-path="url(#clip12)" fill="none" opacity="1" stroke="#000000" stroke-linecap="butt" stroke-linejoin="miter" stroke-miterlimit="2" stroke-opacity="1" stroke-width="1" transform="matrix(1,0,0,1,393.5,2.5)"><path d="M0,0 L54,0 L54,31 L0,31 L0,0 z" fill-rule="evenodd" vector-effect="none"/></g><defs><clipPath id="clip18"><path d="M0,0 L42,0 L42,15 L0,15 L0,0 z"/></clipPath></defs><g clip-path="url(#clip18)" fill="none" opacity="1" stroke="#000000" stroke-linecap="square" stroke-linejoin="bevel" stroke-opacity="1" stroke-width="1" transform="matrix(1,0,0,1,399.523,35)"><text fill="#000000" fill-opacity="1" font-family="Liberation Sans" font-size="10" font-style="normal" font-weight="400" stroke="none" textLength="40.4844" x="1" xml:space="preserve" y="11">For Each</text></g><defs><clipPath id="clip26"><path d="M-39,-90 L529.922,-90 L529.922,81 L-39,81 L-39,-90 z"/></clipPath></defs><g clip-path="url(#clip26)" fill="#ffffff" fill-opacity="1" opacity="1" stroke="none" stroke-opacity="0" transform="matrix(1,0,0,1,39,90)"><path d="M7,0 L23,0 C26.866,0 30,3.13401 30,7 C30,10.866 26.866,14 23,14 L7,14 C3.13401,14 0,10.866 0,7 C0,3.13401 3.13401,0 7,0 z" fill-rule="nonzero" vector-effect="none"/></g><defs><clipPath id="clip30"><path d="M-11,-7 L19,-7 L19,7 L-11,7 L-11,-7 z"/></clipPath></defs><g clip-path="url(#clip30)" fill="none" opacity="1" stroke="#000000" stroke-linecap="butt" stroke-linejoin="miter" stroke-miterlimit="2" stroke-opacity="1" stroke-width="1" transform="matrix(1,0,0,1,50,97)"><text fill="#000000" fill-opacity="1" font-family="Liberation Sans" font-size="10" font-style="normal" font-weight="400" stroke="none" textLength="5.54688" x="-2.76562" xml:space="preserve" y="3.5">1</text></g><defs><clipPath id="clip38"><path d="M0,0 L70,0 L70,15 L0,15 L0,0 z"/></clipPath></defs><g clip-path="url(#clip38)" fill="none" opacity="1" stroke="#000000" stroke-linecap="square" stroke-linejoin="bevel" stroke-opacity="1" stroke-width="1" transform="matrix(1,0,0,1,18.6562,106)"><text fill="#000000" fill-opacity="1" font-family="Liberation Sans" font-size="10" font-style="normal" font-weight="400" stroke="none" textLength="68.2188" x="1" xml:space="preserve" y="11">gate_delay_out</text></g><defs><clipPath id="clip46"><path d="M-38.65,-90.25 L530.272,-90.25 L530.272,80.75 L-38.65,80.75 L-38.65,-90.25 z"/></clipPath></defs><g clip-path="url(#clip46)" fill="none" opacity="1" stroke="#000000" stroke-linecap="butt" stroke-linejoin="bevel" stroke-opacity="1" stroke-width="0.5" transform="matrix(1,0,0,1,38.65,90.25)"><path d="M21.6,0 L21.6,14 M21.6,7 L30,7 M21.6,0 L28.6,7 L21.6,14 L21.6,0 z" fill-rule="nonzero" vector-effect="none"/></g><defs><clipPath id="clip49"><path d="M-38.5,-90.5 L530.422,-90.5 L530.422,80.5 L-38.5,80.5 L-38.5,-90.5 z"/></clipPath></defs><g clip-path="url(#clip49)" fill="none" opacity="1" stroke="#000000" stroke-linecap="butt" stroke-linejoin="miter" stroke-miterlimit="2" stroke-opacity="1" stroke-width="1" transform="matrix(1,0,0,1,38.5,90.5)"><path d="M7,0 L23,0 C26.866,0 30,3.13401 30,7 C30,10.866 26.866,14 23,14 L7,14 C3.13401,14 0,10.866 0,7 C0,3.13401 3.13401,0 7,0 z" fill-rule="nonzero" vector-effect="none"/></g><defs><clipPath id="clip52"><path d="M-514,-90 L54.9219,-90 L54.9219,81 L-514,81 L-514,-90 z"/></clipPath></defs><g clip-path="url(#clip52)" fill="#ffffff" fill-opacity="1" opacity="1" stroke="none" stroke-opacity="0" transform="matrix(1,0,0,1,514,90)"><path d="M7,0 L23,0 C26.866,0 30,3.13401 30,7 C30,10.866 26.866,14 23,14 L7,14 C3.13401,14 0,10.866 0,7 C0,3.13401 3.13401,0 7,0 z" fill-rule="nonzero" vector-effect="none"/></g><defs><clipPath id="clip56"><path d="M-19,-7 L11,-7 L11,7 L-19,7 L-19,-7 z"/></clipPath></defs><g clip-path="url(#clip56)" fill="none" opacity="1" stroke="#000000" stroke-linecap="butt" stroke-linejoin="miter" stroke-miterlimit="2" stroke-opacity="1" stroke-width="1" transform="matrix(1,0,0,1,533,97)"><text fill="#000000" fill-opacity="1" font-family="Liberation Sans" font-size="10" font-style="normal" font-weight="400" stroke="none" textLength="5.54688" x="-2.76562" xml:space="preserve" y="3.5">1</text></g><defs><clipPath id="clip64"><path d="M0,0 L76,0 L76,15 L0,15 L0,0 z"/></clipPath></defs><g clip-path="url(#clip64)" fill="none" opacity="1" stroke="#000000" stroke-linecap="square" stroke-linejoin="bevel" stroke-opacity="1" stroke-width="1" transform="matrix(1,0,0,1,490.609,106)"><text fill="#000000" fill-opacity="1" font-family="Liberation Sans" font-size="10" font-style="normal" font-weight="400" stroke="none" textLength="74.3125" x="1" xml:space="preserve" y="11">gate_enable_out</text></g><defs><clipPath id="clip72"><path d="M-514.25,-90.25 L54.6719,-90.25 L54.6719,80.75 L-514.25,80.75 L-514.25,-90.25 z"/></clipPath></defs><g clip-path="url(#clip72)" fill="none" opacity="1" stroke="#000000" stroke-linecap="butt" stroke-linejoin="bevel" stroke-opacity="1" stroke-width="0.5" transform="matrix(1,0,0,1,514.25,90.25)"><path d="M8.4,0 L8.4,14 M8.4,7 L0,7 M8.4,0 L1.4,7 L8.4,14 L8.4,0 z" fill-rule="nonzero" vector-effect="none"/></g><defs><clipPath id="clip75"><path d="M-513.5,-90.5 L55.4219,-90.5 L55.4219,80.5 L-513.5,80.5 L-513.5,-90.5 z"/></clipPath></defs><g clip-path="url(#clip75)" fill="none" opacity="1" stroke="#000000" stroke-linecap="butt" stroke-linejoin="miter" stroke-miterlimit="2" stroke-opacity="1" stroke-width="1" transform="matrix(1,0,0,1,513.5,90.5)"><path d="M7,0 L23,0 C26.866,0 30,3.13401 30,7 C30,10.866 26.866,14 23,14 L7,14 C3.13401,14 0,10.866 0,7 C0,3.13401 3.13401,0 7,0 z" fill-rule="nonzero" vector-effect="none"/></g><defs><clipPath id="clip78"><path d="M-204,-136 L364.922,-136 L364.922,35 L-204,35 L-204,-136 z"/></clipPath></defs><g clip-path="url(#clip78)" fill="#ffffff" fill-opacity="1" opacity="1" stroke="none" stroke-opacity="0" transform="matrix(1,0,0,1,204,136)"><path d="M0,0 L30,0 L30,32 L0,32 L0,0 z" fill-rule="evenodd" vector-effect="none"/></g><defs><clipPath id="clip82"><path d="M0,0 L31,0 L31,33 L0,33 L0,0 z"/></clipPath></defs><g clip-path="url(#clip82)" fill="none" opacity="1" stroke="none" stroke-opacity="0" transform="matrix(1,0,0,1,203.766,136)"><path d="M0,0 L31,0 L31,33 L0,33 L0,0 z" fill-rule="evenodd" vector-effect="none"/></g><defs><clipPath id="clip93"><path d="M-12,-6 L16,-6 L16,10 L-12,10 L-12,-6 z"/></clipPath></defs><g clip-path="url(#clip93)" fill="#000000" fill-opacity="1" opacity="1" stroke="none" stroke-opacity="0" transform="matrix(0.7,0,0,0.7,217.266,150.5)"><path d="M-9.82812,-2.75 L-8.23438,-2.75 L-4.34375,4.5625 L-4.34375,-2.75 L-3.20312,-2.75 L-3.20312,6 L-4.79688,6 L-8.67188,-1.3125 L-8.67188,6 L-9.82812,6 L-9.82812,-2.75 M2.70312,-1.95312 C1.83854,-1.95312 1.15365,-1.63281 0.648438,-0.992188 C0.143229,-0.351562 -0.109375,0.526042 -0.109375,1.64062 C-0.109375,2.73438 0.143229,3.60156 0.648438,4.24219 C1.15365,4.88281 1.83854,5.20312 2.70312,5.20312 C3.55729,5.20312 4.23698,4.88281 4.74219,4.24219 C5.2474,3.60156 5.5,2.73438 5.5,1.64062 C5.5,0.526042 5.2474,-0.351562 4.74219,-0.992188 C4.23698,-1.63281 3.55729,-1.95312 2.70312,-1.95312 M2.70312,-2.90625 C3.92188,-2.90625 4.89844,-2.49479 5.63281,-1.67188 C6.36719,-0.848958 6.73438,0.255208 6.73438,1.64062 C6.73438,3.01562 6.36719,4.11458 5.63281,4.9375 C4.89844,5.76042 3.92188,6.17188 2.70312,6.17188 C1.47396,6.17188 0.489583,5.76042 -0.25,4.9375 C-0.989583,4.11458 -1.35938,3.01562 -1.35938,1.64062 C-1.35938,0.255208 -0.989583,-0.848958 -0.25,-1.67188 C0.489583,-2.49479 1.47396,-2.90625 2.70312,-2.90625 M7.375,-2.75 L14.7656,-2.75 L14.7656,-1.75 L11.6719,-1.75 L11.6719,6 L10.4844,6 L10.4844,-1.75 L7.375,-1.75 L7.375,-2.75" fill-rule="nonzero" vector-effect="none"/></g><defs><clipPath id="clip111"><path d="M-203.5,-136.5 L365.422,-136.5 L365.422,34.5 L-203.5,34.5 L-203.5,-136.5 z"/></clipPath></defs><g clip-path="url(#clip111)" fill="none" opacity="1" stroke="#000000" stroke-linecap="butt" stroke-linejoin="miter" stroke-miterlimit="2" stroke-opacity="1" stroke-width="1" transform="matrix(1,0,0,1,203.5,136.5)"><path d="M0,0 L30,0 L30,32 L0,32 L0,0 z" fill-rule="evenodd" vector-effect="none"/></g><defs><clipPath id="clip119"><path d="M-39,-15 L529.922,-15 L529.922,156 L-39,156 L-39,-15 z"/></clipPath></defs><g clip-path="url(#clip119)" fill="#ffffff" fill-opacity="1" opacity="1" stroke="none" stroke-opacity="0" transform="matrix(1,0,0,1,39,15)"><path d="M7,0 L23,0 C26.866,0 30,3.13401 30,7 C30,10.866 26.866,14 23,14 L7,14 C3.13401,14 0,10.866 0,7 C0,3.13401 3.13401,0 7,0 z" fill-rule="nonzero" vector-effect="none"/></g><defs><clipPath id="clip123"><path d="M-15,-7 L15,-7 L15,7 L-15,7 L-15,-7 z"/></clipPath></defs><g clip-path="url(#clip123)" fill="none" opacity="1" stroke="#000000" stroke-linecap="butt" stroke-linejoin="miter" stroke-miterlimit="2" stroke-opacity="1" stroke-width="1" transform="matrix(1,0,0,1,54,22)"><text fill="#000000" fill-opacity="1" font-family="Liberation Sans" font-size="10" font-style="normal" font-weight="400" stroke="none" textLength="5.54688" x="-2.76562" xml:space="preserve" y="3.5">2</text></g><defs><clipPath id="clip128"><path d="M-38.5,-15.5 L530.422,-15.5 L530.422,155.5 L-38.5,155.5 L-38.5,-15.5 z"/></clipPath></defs><g clip-path="url(#clip128)" fill="none" opacity="1" stroke="#000000" stroke-linecap="butt" stroke-linejoin="miter" stroke-miterlimit="2" stroke-opacity="1" stroke-width="1" transform="matrix(1,0,0,1,38.5,15.5)"><path d="M7,0 L23,0 C26.866,0 30,3.13401 30,7 C30,10.866 26.866,14 23,14 L7,14 C3.13401,14 0,10.866 0,7 C0,3.13401 3.13401,0 7,0 z" fill-rule="nonzero" vector-effect="none"/></g><defs><clipPath id="clip134"><path d="M0,0 L104,0 L104,15 L0,15 L0,0 z"/></clipPath></defs><g clip-path="url(#clip134)" fill="none" opacity="1" stroke="#000000" stroke-linecap="square" stroke-linejoin="bevel" stroke-opacity="1" stroke-width="1" transform="matrix(1,0,0,1,2,31)"><text fill="#000000" fill-opacity="1" font-family="Liberation Sans" font-size="10" font-style="normal" font-weight="400" stroke="none" textLength="101.531" x="1" xml:space="preserve" y="11">inverse_bottom_switch</text></g><defs><clipPath id="clip142"><path d="M-204,-5 L364.922,-5 L364.922,166 L-204,166 L-204,-5 z"/></clipPath></defs><g clip-path="url(#clip142)" fill="#ffffff" fill-opacity="1" opacity="1" stroke="none" stroke-opacity="0" transform="matrix(1,0,0,1,204,5)"><path d="M0,0 L35,0 L35,34 L0,34 L0,0 z" fill-rule="evenodd" vector-effect="none"/></g><defs><clipPath id="clip146"><path d="M-11,-17 L24,-17 L24,17 L-11,17 L-11,-17 z"/></clipPath></defs><g clip-path="url(#clip146)" fill="none" opacity="1" stroke="#000000" stroke-linecap="butt" stroke-linejoin="miter" stroke-miterlimit="2" stroke-opacity="1" stroke-width="1" transform="matrix(1,0,0,1,215,22)"><text fill="#000000" fill-opacity="1" font-family="Liberation Sans" font-size="10" font-style="normal" font-weight="400" stroke="none" textLength="6.09375" x="0" xml:space="preserve" y="3.5">Z</text></g><defs><clipPath id="clip147"><path d="M-17,-12 L18,-12 L18,22 L-17,22 L-17,-12 z"/></clipPath></defs><g clip-path="url(#clip147)" fill="none" opacity="1" stroke="#000000" stroke-linecap="butt" stroke-linejoin="miter" stroke-miterlimit="2" stroke-opacity="1" stroke-width="1" transform="matrix(1,0,0,1,221,17)"><text fill="#000000" fill-opacity="1" font-family="Liberation Sans" font-size="10" font-style="normal" font-weight="400" stroke="none" textLength="8.875" x="0" xml:space="preserve" y="3.5">-1</text></g><defs><clipPath id="clip152"><path d="M-203.5,-5.5 L365.422,-5.5 L365.422,165.5 L-203.5,165.5 L-203.5,-5.5 z"/></clipPath></defs><g clip-path="url(#clip152)" fill="none" opacity="1" stroke="#000000" stroke-linecap="butt" stroke-linejoin="miter" stroke-miterlimit="2" stroke-opacity="1" stroke-width="1" transform="matrix(1,0,0,1,203.5,5.5)"><path d="M0,0 L35,0 L35,34 L0,34 L0,0 z" fill-rule="evenodd" vector-effect="none"/></g><defs><clipPath id="clip158"><path d="M0,0 L48,0 L48,15 L0,15 L0,0 z"/></clipPath></defs><g clip-path="url(#clip158)" fill="none" opacity="1" stroke="#000000" stroke-linecap="square" stroke-linejoin="bevel" stroke-opacity="1" stroke-width="1" transform="matrix(1,0,0,1,197.516,41)"><text fill="#000000" fill-opacity="1" font-family="Liberation Sans" font-size="10" font-style="normal" font-weight="400" stroke="none" textLength="45.5" x="1" xml:space="preserve" y="11">PipeDelay</text></g><defs><clipPath id="clip166"><path d="M-329,-103 L239.922,-103 L239.922,68 L-329,68 L-329,-103 z"/></clipPath></defs><g clip-path="url(#clip166)" fill="#ffffff" fill-opacity="1" opacity="1" stroke="none" stroke-opacity="0" transform="matrix(1,0,0,1,329,103)"><path d="M0,0 L40,0 L40,38 L0,38 L0,0 z" fill-rule="evenodd" vector-effect="none"/></g><defs><clipPath id="clip170"><path d="M55,386 L95,386 L95,424 L55,424 L55,386 z"/></clipPath></defs><g clip-path="url(#clip170)" fill="none" opacity="1" stroke="#000000" stroke-linecap="butt" stroke-linejoin="miter" stroke-miterlimit="2" stroke-opacity="1" stroke-width="1" transform="matrix(1,0,0,1,274.5,-282.5)"><polyline fill="none" points="71,415 71,417" vector-effect="none"/></g><defs><clipPath id="clip171"><path d="M55,386 L95,386 L95,424 L55,424 L55,386 z"/></clipPath></defs><g clip-path="url(#clip171)" fill="none" opacity="1" stroke="#000000" stroke-linecap="butt" stroke-linejoin="miter" stroke-miterlimit="2" stroke-opacity="1" stroke-width="1" transform="matrix(1,0,0,1,274.5,-282.5)"><polyline fill="none" points="71,417 73,417" vector-effect="none"/></g><defs><clipPath id="clip172"><path d="M55,386 L95,386 L95,424 L55,424 L55,386 z"/></clipPath></defs><g clip-path="url(#clip172)" fill="none" opacity="1" stroke="#000000" stroke-linecap="butt" stroke-linejoin="miter" stroke-miterlimit="2" stroke-opacity="1" stroke-width="1" transform="matrix(1,0,0,1,274.5,-282.5)"><polyline fill="none" points="73,417 73,413" vector-effect="none"/></g><defs><clipPath id="clip173"><path d="M55,386 L95,386 L95,424 L55,424 L55,386 z"/></clipPath></defs><g clip-path="url(#clip173)" fill="none" opacity="1" stroke="#000000" stroke-linecap="butt" stroke-linejoin="miter" stroke-miterlimit="2" stroke-opacity="1" stroke-width="1" transform="matrix(1,0,0,1,274.5,-282.5)"><polyline fill="none" points="73,413 71,413" vector-effect="none"/></g><defs><clipPath id="clip174"><path d="M55,386 L95,386 L95,424 L55,424 L55,386 z"/></clipPath></defs><g clip-path="url(#clip174)" fill="none" opacity="1" stroke="#000000" stroke-linecap="butt" stroke-linejoin="miter" stroke-miterlimit="2" stroke-opacity="1" stroke-width="1" transform="matrix(1,0,0,1,274.5,-282.5)"><polyline fill="none" points="71,413 71,415" vector-effect="none"/></g><defs><clipPath id="clip175"><path d="M55,386 L95,386 L95,424 L55,424 L55,386 z"/></clipPath></defs><g clip-path="url(#clip175)" fill="none" opacity="1" stroke="#000000" stroke-linecap="butt" stroke-linejoin="miter" stroke-miterlimit="2" stroke-opacity="1" stroke-width="1" transform="matrix(1,0,0,1,274.5,-282.5)"><polyline fill="none" points="71,415 55,415" vector-effect="none"/></g><defs><clipPath id="clip176"><path d="M55,386 L95,386 L95,424 L55,424 L55,386 z"/></clipPath></defs><g clip-path="url(#clip176)" fill="none" opacity="1" stroke="#000000" stroke-linecap="butt" stroke-linejoin="miter" stroke-miterlimit="2" stroke-opacity="1" stroke-width="1" transform="matrix(1,0,0,1,274.5,-282.5)"><polyline fill="none" points="71,405 71,407" vector-effect="none"/></g><defs><clipPath id="clip177"><path d="M55,386 L95,386 L95,424 L55,424 L55,386 z"/></clipPath></defs><g clip-path="url(#clip177)" fill="none" opacity="1" stroke="#000000" stroke-linecap="butt" stroke-linejoin="miter" stroke-miterlimit="2" stroke-opacity="1" stroke-width="1" transform="matrix(1,0,0,1,274.5,-282.5)"><polyline fill="none" points="71,407 73,407" vector-effect="none"/></g><defs><clipPath id="clip178"><path d="M55,386 L95,386 L95,424 L55,424 L55,386 z"/></clipPath></defs><g clip-path="url(#clip178)" fill="none" opacity="1" stroke="#000000" stroke-linecap="butt" stroke-linejoin="miter" stroke-miterlimit="2" stroke-opacity="1" stroke-width="1" transform="matrix(1,0,0,1,274.5,-282.5)"><polyline fill="none" points="73,407 73,403" vector-effect="none"/></g><defs><clipPath id="clip179"><path d="M55,386 L95,386 L95,424 L55,424 L55,386 z"/></clipPath></defs><g clip-path="url(#clip179)" fill="none" opacity="1" stroke="#000000" stroke-linecap="butt" stroke-linejoin="miter" stroke-miterlimit="2" stroke-opacity="1" stroke-width="1" transform="matrix(1,0,0,1,274.5,-282.5)"><polyline fill="none" points="73,403 71,403" vector-effect="none"/></g><defs><clipPath id="clip180"><path d="M55,386 L95,386 L95,424 L55,424 L55,386 z"/></clipPath></defs><g clip-path="url(#clip180)" fill="none" opacity="1" stroke="#000000" stroke-linecap="butt" stroke-linejoin="miter" stroke-miterlimit="2" stroke-opacity="1" stroke-width="1" transform="matrix(1,0,0,1,274.5,-282.5)"><polyline fill="none" points="71,403 71,405" vector-effect="none"/></g><defs><clipPath id="clip181"><path d="M55,386 L95,386 L95,424 L55,424 L55,386 z"/></clipPath></defs><g clip-path="url(#clip181)" fill="none" opacity="1" stroke="#000000" stroke-linecap="butt" stroke-linejoin="miter" stroke-miterlimit="2" stroke-opacity="1" stroke-width="1" transform="matrix(1,0,0,1,274.5,-282.5)"><polyline fill="none" points="71,405 55,405" vector-effect="none"/></g><defs><clipPath id="clip182"><path d="M55,386 L95,386 L95,424 L55,424 L55,386 z"/></clipPath></defs><g clip-path="url(#clip182)" fill="none" opacity="1" stroke="#000000" stroke-linecap="butt" stroke-linejoin="miter" stroke-miterlimit="2" stroke-opacity="1" stroke-width="1" transform="matrix(1,0,0,1,274.5,-282.5)"><polyline fill="none" points="72,405 87,405" vector-effect="none"/></g><defs><clipPath id="clip183"><path d="M55,386 L95,386 L95,424 L55,424 L55,386 z"/></clipPath></defs><g clip-path="url(#clip183)" fill="none" opacity="1" stroke="#000000" stroke-linecap="butt" stroke-linejoin="miter" stroke-miterlimit="2" stroke-opacity="1" stroke-width="1" transform="matrix(1,0,0,1,274.5,-282.5)"><polyline fill="none" points="87,405 95,405" vector-effect="none"/></g><defs><clipPath id="clip184"><path d="M55,386 L95,386 L95,424 L55,424 L55,386 z"/></clipPath></defs><g clip-path="url(#clip184)" fill="none" opacity="1" stroke="#000000" stroke-linecap="butt" stroke-linejoin="miter" stroke-miterlimit="2" stroke-opacity="1" stroke-width="1" transform="matrix(1,0,0,1,274.5,-282.5)"><polyline fill="none" points="67,400 67,390" vector-effect="none"/></g><defs><clipPath id="clip185"><path d="M55,386 L95,386 L95,424 L55,424 L55,386 z"/></clipPath></defs><g clip-path="url(#clip185)" fill="none" opacity="1" stroke="#000000" stroke-linecap="butt" stroke-linejoin="miter" stroke-miterlimit="2" stroke-opacity="1" stroke-width="1" transform="matrix(1,0,0,1,274.5,-282.5)"><polyline fill="none" points="67,390 67,395" vector-effect="none"/></g><defs><clipPath id="clip186"><path d="M55,386 L95,386 L95,424 L55,424 L55,386 z"/></clipPath></defs><g clip-path="url(#clip186)" fill="none" opacity="1" stroke="#000000" stroke-linecap="butt" stroke-linejoin="miter" stroke-miterlimit="2" stroke-opacity="1" stroke-width="1" transform="matrix(1,0,0,1,274.5,-282.5)"><polyline fill="none" points="67,395 55,395" vector-effect="none"/></g><defs><clipPath id="clip191"><path d="M-328.5,-103.5 L240.422,-103.5 L240.422,67.5 L-328.5,67.5 L-328.5,-103.5 z"/></clipPath></defs><g clip-path="url(#clip191)" fill="none" opacity="1" stroke="#000000" stroke-linecap="butt" stroke-linejoin="miter" stroke-miterlimit="2" stroke-opacity="1" stroke-width="1" transform="matrix(1,0,0,1,328.5,103.5)"><path d="M0,0 L40,0 L40,38 L0,38 L0,0 z" fill-rule="evenodd" vector-effect="none"/></g><defs><clipPath id="clip194"><path d="M-444,-78 L124.922,-78 L124.922,93 L-444,93 L-444,-78 z"/></clipPath></defs><g clip-path="url(#clip194)" fill="#ffffff" fill-opacity="1" opacity="1" stroke="none" stroke-opacity="0" transform="matrix(1,0,0,1,444,78)"><path d="M0,0 L5,0 L5,38 L0,38 L0,0 z" fill-rule="evenodd" vector-effect="none"/></g><defs><clipPath id="clip198"><path d="M170,361 L175,361 L175,399 L170,399 L170,361 z"/></clipPath></defs><g clip-path="url(#clip198)" fill="#000000" fill-opacity="1" opacity="1" stroke="none" stroke-opacity="0" transform="matrix(1,0,0,1,274,-283)"><path d="M170,361 L175,361 L175,399 L170,399 L170,361 z" fill-rule="evenodd" vector-effect="none"/></g><defs><clipPath id="clip203"><path d="M-443.5,-78.5 L125.422,-78.5 L125.422,92.5 L-443.5,92.5 L-443.5,-78.5 z"/></clipPath></defs><g clip-path="url(#clip203)" fill="none" opacity="1" stroke="#000000" stroke-linecap="butt" stroke-linejoin="miter" stroke-miterlimit="2" stroke-opacity="1" stroke-width="1" transform="matrix(1,0,0,1,443.5,78.5)"><path d="M0,0 L5,0 L5,38 L0,38 L0,0 z" fill-rule="evenodd" vector-effect="none"/></g><defs><clipPath id="clip206"><path d="M-124,-78 L444.922,-78 L444.922,93 L-124,93 L-124,-78 z"/></clipPath></defs><g clip-path="url(#clip206)" fill="#ffffff" fill-opacity="1" opacity="1" stroke="none" stroke-opacity="0" transform="matrix(1,0,0,1,124,78)"><path d="M0,0 L5,0 L5,38 L0,38 L0,0 z" fill-rule="evenodd" vector-effect="none"/></g><defs><clipPath id="clip210"><path d="M-150,361 L-145,361 L-145,399 L-150,399 L-150,361 z"/></clipPath></defs><g clip-path="url(#clip210)" fill="#000000" fill-opacity="1" opacity="1" stroke="none" stroke-opacity="0" transform="matrix(1,0,0,1,274,-283)"><path d="M-150,361 L-145,361 L-145,399 L-150,399 L-150,361 z" fill-rule="evenodd" vector-effect="none"/></g><defs><clipPath id="clip215"><path d="M-123.5,-78.5 L445.422,-78.5 L445.422,92.5 L-123.5,92.5 L-123.5,-78.5 z"/></clipPath></defs><g clip-path="url(#clip215)" fill="none" opacity="1" stroke="#000000" stroke-linecap="butt" stroke-linejoin="miter" stroke-miterlimit="2" stroke-opacity="1" stroke-width="1" transform="matrix(1,0,0,1,123.5,78.5)"><path d="M0,0 L5,0 L5,38 L0,38 L0,0 z" fill-rule="evenodd" vector-effect="none"/></g><defs><clipPath id="clip218"><path d="M-329,-112 L239.922,-112 L239.922,59 L-329,59 L-329,-112 z"/></clipPath></defs><g clip-path="url(#clip218)" fill="#000000" fill-opacity="1" opacity="1" stroke="none" stroke-opacity="0" transform="matrix(1,0,0,1,329,112)"><path d="M0,0 L-8,-4 L-8,4 L0,0 z" fill-rule="nonzero" vector-effect="none"/></g><defs><clipPath id="clip221"><path d="M-273.766,283 L295.156,283 L295.156,454 L-273.766,454 L-273.766,283 z"/></clipPath></defs><g clip-path="url(#clip221)" fill="none" opacity="1" stroke="#000000" stroke-linecap="butt" stroke-linejoin="miter" stroke-miterlimit="2" stroke-opacity="1" stroke-width="1" transform="matrix(1,0,0,1,273.766,-283)"><path d="M-34.2656,305.5 L11.7344,305.5 L11.7344,370 M11.7344,371 L11.7344,395.5 L47.7344,395.5" fill-rule="evenodd" vector-effect="none"/><polyline fill="none" points="11.7344,365 11.7344,366" vector-effect="none"/></g><defs><clipPath id="clip222"><path d="M-273.766,283 L295.156,283 L295.156,454 L-273.766,454 L-273.766,283 z"/></clipPath></defs><g clip-path="url(#clip222)" fill="none" opacity="1" stroke="#2e2e2e" stroke-linecap="butt" stroke-linejoin="miter" stroke-miterlimit="2" stroke-opacity="1" stroke-width="1" transform="matrix(1,0,0,1,273.766,-283)"><polyline fill="none" points="11.7344,366 11.7344,367" vector-effect="none"/></g><defs><clipPath id="clip223"><path d="M-273.766,283 L295.156,283 L295.156,454 L-273.766,454 L-273.766,283 z"/></clipPath></defs><g clip-path="url(#clip223)" fill="none" opacity="1" stroke="#5d5d5d" stroke-linecap="butt" stroke-linejoin="miter" stroke-miterlimit="2" stroke-opacity="1" stroke-width="1" transform="matrix(1,0,0,1,273.766,-283)"><polyline fill="none" points="11.7344,367 11.7344,368" vector-effect="none"/></g><defs><clipPath id="clip224"><path d="M-273.766,283 L295.156,283 L295.156,454 L-273.766,454 L-273.766,283 z"/></clipPath></defs><g clip-path="url(#clip224)" fill="none" opacity="1" stroke="#8b8b8b" stroke-linecap="butt" stroke-linejoin="miter" stroke-miterlimit="2" stroke-opacity="1" stroke-width="1" transform="matrix(1,0,0,1,273.766,-283)"><polyline fill="none" points="11.7344,368 11.7344,369" vector-effect="none"/></g><defs><clipPath id="clip225"><path d="M-273.766,283 L295.156,283 L295.156,454 L-273.766,454 L-273.766,283 z"/></clipPath></defs><g clip-path="url(#clip225)" fill="none" opacity="1" stroke="#b9b9b9" stroke-linecap="butt" stroke-linejoin="miter" stroke-miterlimit="2" stroke-opacity="1" stroke-width="1" transform="matrix(1,0,0,1,273.766,-283)"><polyline fill="none" points="11.7344,369 11.7344,370" vector-effect="none"/></g><defs><clipPath id="clip226"><path d="M-273.766,283 L295.156,283 L295.156,454 L-273.766,454 L-273.766,283 z"/></clipPath></defs><g clip-path="url(#clip226)" fill="none" opacity="1" stroke="#000000" stroke-linecap="butt" stroke-linejoin="miter" stroke-miterlimit="2" stroke-opacity="1" stroke-width="1" transform="matrix(1,0,0,1,273.766,-283)"><polyline fill="none" points="11.7344,376 11.7344,375" vector-effect="none"/></g><defs><clipPath id="clip227"><path d="M-273.766,283 L295.156,283 L295.156,454 L-273.766,454 L-273.766,283 z"/></clipPath></defs><g clip-path="url(#clip227)" fill="none" opacity="1" stroke="#2e2e2e" stroke-linecap="butt" stroke-linejoin="miter" stroke-miterlimit="2" stroke-opacity="1" stroke-width="1" transform="matrix(1,0,0,1,273.766,-283)"><polyline fill="none" points="11.7344,375 11.7344,374" vector-effect="none"/></g><defs><clipPath id="clip228"><path d="M-273.766,283 L295.156,283 L295.156,454 L-273.766,454 L-273.766,283 z"/></clipPath></defs><g clip-path="url(#clip228)" fill="none" opacity="1" stroke="#5d5d5d" stroke-linecap="butt" stroke-linejoin="miter" stroke-miterlimit="2" stroke-opacity="1" stroke-width="1" transform="matrix(1,0,0,1,273.766,-283)"><polyline fill="none" points="11.7344,374 11.7344,373" vector-effect="none"/></g><defs><clipPath id="clip229"><path d="M-273.766,283 L295.156,283 L295.156,454 L-273.766,454 L-273.766,283 z"/></clipPath></defs><g clip-path="url(#clip229)" fill="none" opacity="1" stroke="#8b8b8b" stroke-linecap="butt" stroke-linejoin="miter" stroke-miterlimit="2" stroke-opacity="1" stroke-width="1" transform="matrix(1,0,0,1,273.766,-283)"><polyline fill="none" points="11.7344,373 11.7344,372" vector-effect="none"/></g><defs><clipPath id="clip230"><path d="M-273.766,283 L295.156,283 L295.156,454 L-273.766,454 L-273.766,283 z"/></clipPath></defs><g clip-path="url(#clip230)" fill="none" opacity="1" stroke="#b9b9b9" stroke-linecap="butt" stroke-linejoin="miter" stroke-miterlimit="2" stroke-opacity="1" stroke-width="1" transform="matrix(1,0,0,1,273.766,-283)"><polyline fill="none" points="11.7344,372 11.7344,371" vector-effect="none"/></g><defs><clipPath id="clip233"><path d="M-204,-152 L364.922,-152 L364.922,19 L-204,19 L-204,-152 z"/></clipPath></defs><g clip-path="url(#clip233)" fill="#000000" fill-opacity="1" opacity="1" stroke="none" stroke-opacity="0" transform="matrix(1,0,0,1,204,152)"><path d="M0,0 L-8,-4 L-8,4 L0,0 z" fill-rule="nonzero" vector-effect="none"/></g><defs><clipPath id="clip236"><path d="M-273.766,283 L295.156,283 L295.156,454 L-273.766,454 L-273.766,283 z"/></clipPath></defs><g clip-path="url(#clip236)" fill="none" opacity="1" stroke="#000000" stroke-linecap="butt" stroke-linejoin="miter" stroke-miterlimit="2" stroke-opacity="1" stroke-width="1" transform="matrix(1,0,0,1,273.766,-283)"><path d="M-89.2656,405.5 L-89.2656,435.5 L-77.2656,435.5" fill-rule="evenodd" vector-effect="none"/></g><defs><clipPath id="clip239"><path d="M-329,-122 L239.922,-122 L239.922,49 L-329,49 L-329,-122 z"/></clipPath></defs><g clip-path="url(#clip239)" fill="#000000" fill-opacity="1" opacity="1" stroke="none" stroke-opacity="0" transform="matrix(1,0,0,1,329,122)"><path d="M0,0 L-8,-4 L-8,4 L0,0 z" fill-rule="nonzero" vector-effect="none"/></g><defs><clipPath id="clip242"><path d="M-273.766,283 L295.156,283 L295.156,454 L-273.766,454 L-273.766,283 z"/></clipPath></defs><g clip-path="url(#clip242)" fill="none" opacity="1" stroke="#000000" stroke-linecap="butt" stroke-linejoin="miter" stroke-miterlimit="2" stroke-opacity="1" stroke-width="1" transform="matrix(1,0,0,1,273.766,-283)"><path d="M-89.2656,405.5 L47.7344,405.5" fill-rule="evenodd" vector-effect="none"/></g><defs><clipPath id="clip247"><path d="M-273.766,283 L295.156,283 L295.156,454 L-273.766,454 L-273.766,283 z"/></clipPath></defs><g clip-path="url(#clip247)" fill="none" opacity="1" stroke="#000000" stroke-linecap="butt" stroke-linejoin="miter" stroke-miterlimit="2" stroke-opacity="1" stroke-width="1" transform="matrix(1,0,0,1,273.766,-283)"><path d="M-144.266,390.5 L-89.2656,390.5 L-89.2656,405.5" fill-rule="evenodd" vector-effect="none"/></g><defs><clipPath id="clip250"><path d="M-183.766,-122 L385.156,-122 L385.156,49 L-183.766,49 L-183.766,-122 z"/></clipPath></defs><g clip-path="url(#clip250)" fill="#000000" fill-opacity="1" opacity="1" stroke="none" stroke-opacity="0" transform="matrix(1,0,0,1,183.766,122)"><path d="M3.23438,0.5 C3.23438,1.88071 2.11509,3 0.734375,3 C-0.646337,3 -1.76562,1.88071 -1.76562,0.5 C-1.76562,-0.880712 -0.646337,-2 0.734375,-2 C2.11509,-2 3.23438,-0.880712 3.23438,0.5 z" fill-rule="evenodd" vector-effect="none"/></g><defs><clipPath id="clip253"><path d="M-204,-22 L364.922,-22 L364.922,149 L-204,149 L-204,-22 z"/></clipPath></defs><g clip-path="url(#clip253)" fill="#000000" fill-opacity="1" opacity="1" stroke="none" stroke-opacity="0" transform="matrix(1,0,0,1,204,22)"><path d="M0,0 L-8,-4 L-8,4 L0,0 z" fill-rule="nonzero" vector-effect="none"/></g><defs><clipPath id="clip256"><path d="M-273.766,283 L295.156,283 L295.156,454 L-273.766,454 L-273.766,283 z"/></clipPath></defs><g clip-path="url(#clip256)" fill="none" opacity="1" stroke="#000000" stroke-linecap="butt" stroke-linejoin="miter" stroke-miterlimit="2" stroke-opacity="1" stroke-width="1" transform="matrix(1,0,0,1,273.766,-283)"><path d="M-204.266,305.5 L-77.2656,305.5" fill-rule="evenodd" vector-effect="none"/></g><defs><clipPath id="clip259"><path d="M-329,-132 L239.922,-132 L239.922,39 L-329,39 L-329,-132 z"/></clipPath></defs><g clip-path="url(#clip259)" fill="#000000" fill-opacity="1" opacity="1" stroke="none" stroke-opacity="0" transform="matrix(1,0,0,1,329,132)"><path d="M0,0 L-8,-4 L-8,4 L0,0 z" fill-rule="nonzero" vector-effect="none"/></g><defs><clipPath id="clip262"><path d="M-273.766,283 L295.156,283 L295.156,454 L-273.766,454 L-273.766,283 z"/></clipPath></defs><g clip-path="url(#clip262)" fill="none" opacity="1" stroke="#000000" stroke-linecap="butt" stroke-linejoin="miter" stroke-miterlimit="2" stroke-opacity="1" stroke-width="1" transform="matrix(1,0,0,1,273.766,-283)"><path d="M-39.2656,435.5 L8.73438,435.5 L8.73438,415.5 L47.7344,415.5" fill-rule="evenodd" vector-effect="none"/></g><defs><clipPath id="clip265"><path d="M-514,-97 L54.9219,-97 L54.9219,74 L-514,74 L-514,-97 z"/></clipPath></defs><g clip-path="url(#clip265)" fill="#000000" fill-opacity="1" opacity="1" stroke="none" stroke-opacity="0" transform="matrix(1,0,0,1,514,97)"><path d="M0,0 L-8,-4 L-8,4 L0,0 z" fill-rule="nonzero" vector-effect="none"/></g><defs><clipPath id="clip268"><path d="M-273.766,283 L295.156,283 L295.156,454 L-273.766,454 L-273.766,283 z"/></clipPath></defs><g clip-path="url(#clip268)" fill="none" opacity="1" stroke="#000000" stroke-linecap="butt" stroke-linejoin="miter" stroke-miterlimit="2" stroke-opacity="1" stroke-width="1" transform="matrix(1,0,0,1,273.766,-283)"><path d="M175.734,380.5 L232.734,380.5" fill-rule="evenodd" vector-effect="none"/></g><defs><clipPath id="clip271"><path d="M-444,-107 L124.922,-107 L124.922,64 L-444,64 L-444,-107 z"/></clipPath></defs><g clip-path="url(#clip271)" fill="#000000" fill-opacity="1" opacity="1" stroke="none" stroke-opacity="0" transform="matrix(1,0,0,1,444,107)"><path d="M0,0 L-8,-4 L-8,4 L0,0 z" fill-rule="nonzero" vector-effect="none"/></g><defs><clipPath id="clip274"><path d="M-273.766,283 L295.156,283 L295.156,454 L-273.766,454 L-273.766,283 z"/></clipPath></defs><g clip-path="url(#clip274)" fill="none" opacity="1" stroke="#000000" stroke-linecap="butt" stroke-linejoin="miter" stroke-miterlimit="2" stroke-opacity="1" stroke-width="1" transform="matrix(1,0,0,1,273.766,-283)"><path d="M95.7344,405.5 L137.734,405.5 L137.734,390.5 L162.734,390.5" fill-rule="evenodd" vector-effect="none"/></g><defs><clipPath id="clip277"><path d="M-444,-87 L124.922,-87 L124.922,84 L-444,84 L-444,-87 z"/></clipPath></defs><g clip-path="url(#clip277)" fill="#000000" fill-opacity="1" opacity="1" stroke="none" stroke-opacity="0" transform="matrix(1,0,0,1,444,87)"><path d="M0,0 L-8,-4 L-8,4 L0,0 z" fill-rule="nonzero" vector-effect="none"/></g><defs><clipPath id="clip280"><path d="M-273.766,283 L295.156,283 L295.156,454 L-273.766,454 L-273.766,283 z"/></clipPath></defs><g clip-path="url(#clip280)" fill="none" opacity="1" stroke="#000000" stroke-linecap="butt" stroke-linejoin="miter" stroke-miterlimit="2" stroke-opacity="1" stroke-width="1" transform="matrix(1,0,0,1,273.766,-283)"><path d="M-144.266,370.5 L162.734,370.5" fill-rule="evenodd" vector-effect="none"/></g><defs><clipPath id="clip283"><path d="M-124,-97 L444.922,-97 L444.922,74 L-124,74 L-124,-97 z"/></clipPath></defs><g clip-path="url(#clip283)" fill="#000000" fill-opacity="1" opacity="1" stroke="none" stroke-opacity="0" transform="matrix(1,0,0,1,124,97)"><path d="M0,0 L-8,-4 L-8,4 L0,0 z" fill-rule="nonzero" vector-effect="none"/></g><defs><clipPath id="clip286"><path d="M-273.766,283 L295.156,283 L295.156,454 L-273.766,454 L-273.766,283 z"/></clipPath></defs><g clip-path="url(#clip286)" fill="none" opacity="1" stroke="#000000" stroke-linecap="butt" stroke-linejoin="miter" stroke-miterlimit="2" stroke-opacity="1" stroke-width="1" transform="matrix(1,0,0,1,273.766,-283)"><path d="M-204.266,380.5 L-157.266,380.5" fill-rule="evenodd" vector-effect="none"/></g></g><!--generated on ubuntu @ 2020-12-15 15:44:45 CET--></svg>
