<?xml version="1.0" encoding="UTF-8"?><svg width="147.902mm" height="51.5938mm" viewBox="0 0 559 195" xmlns="http://www.w3.org/2000/svg" xmlns:xlink="http://www.w3.org/1999/xlink"><g fill="none" stroke="black" stroke-width="1" fill-rule="evenodd" stroke-linecap="square" stroke-linejoin="bevel"><g clip-path="none" fill="#ffffff" fill-opacity="1" opacity="1" stroke="none" stroke-opacity="0" transform="matrix(1,0,0,1,0,0)"><path d="M0,0 L559,0 L559,195 L0,195 L0,0 z" fill-rule="evenodd" vector-effect="none"/></g><defs><clipPath id="clip3"><path d="M-222,-49 L337,-49 L337,146 L-222,146 L-222,-49 z"/></clipPath></defs><g clip-path="url(#clip3)" fill="#ffffff" fill-opacity="1" opacity="1" stroke="none" stroke-opacity="0" transform="matrix(1,0,0,1,222,49)"><path d="M0,0 L135,35 L0,70 L0,0 z" fill-rule="nonzero" vector-effect="none"/></g><defs><clipPath id="clip7"><path d="M0,0 L135,0 L135,70 L0,70 L0,0 z"/></clipPath></defs><g clip-path="url(#clip7)" fill="none" opacity="1" stroke="none" stroke-opacity="0" transform="matrix(1,0,0,1,222,49)"><path d="M0,0 L135,35 L0,70 L0,0 z" fill-rule="nonzero" vector-effect="none"/></g><defs><clipPath id="clip17"><path d="M2,-2 L45,-2 L45,32 L2,32 L2,-2 z"/></clipPath></defs><g clip-path="url(#clip17)" fill="#000000" fill-opacity="1" opacity="1" stroke="none" stroke-opacity="0" transform="matrix(1,0,0,1,261.964,69.5)"><path d="M6.15625,10.4062 C5.72917,11.1562 5.40885,11.8984 5.19531,12.6328 C4.98177,13.3672 4.875,14.1094 4.875,14.8594 C4.875,15.6094 4.98177,16.3542 5.19531,17.0938 C5.40885,17.8333 5.72917,18.5729 6.15625,19.3125 L5.375,19.3125 C4.89583,18.5521 4.53385,17.8021 4.28906,17.0625 C4.04427,16.3229 3.92188,15.5885 3.92188,14.8594 C3.92188,14.1302 4.04167,13.3984 4.28125,12.6641 C4.52083,11.9297 4.88542,11.1771 5.375,10.4062 L6.15625,10.4062 M11.0156,14.0625 C11.4844,14.1667 11.8516,14.3776 12.1172,14.6953 C12.3828,15.013 12.5156,15.4062 12.5156,15.875 C12.5156,16.5938 12.2682,17.151 11.7734,17.5469 C11.2786,17.9427 10.5729,18.1406 9.65625,18.1406 C9.35417,18.1406 9.04167,18.1094 8.71875,18.0469 C8.39583,17.9844 8.0625,17.8958 7.71875,17.7812 L7.71875,16.8281 C7.98958,16.9844 8.28906,17.1042 8.61719,17.1875 C8.94531,17.2708 9.28646,17.3125 9.64062,17.3125 C10.2552,17.3125 10.724,17.1901 11.0469,16.9453 C11.3698,16.7005 11.5312,16.3438 11.5312,15.875 C11.5312,15.4479 11.3802,15.1146 11.0781,14.875 C10.776,14.6354 10.3594,14.5156 9.82812,14.5156 L8.96875,14.5156 L8.96875,13.7031 L9.85938,13.7031 C10.349,13.7031 10.7214,13.6042 10.9766,13.4062 C11.2318,13.2083 11.3594,12.9271 11.3594,12.5625 C11.3594,12.1979 11.2266,11.9141 10.9609,11.7109 C10.6953,11.5078 10.3177,11.4062 9.82812,11.4062 C9.55729,11.4062 9.26562,11.4349 8.95312,11.4922 C8.64062,11.5495 8.30208,11.6406 7.9375,11.7656 L7.9375,10.8906 C8.3125,10.7865 8.66406,10.7083 8.99219,10.6562 C9.32031,10.6042 9.625,10.5781 9.90625,10.5781 C10.6562,10.5781 11.25,10.7474 11.6875,11.0859 C12.125,11.4245 12.3438,11.8854 12.3438,12.4688 C12.3438,12.875 12.2292,13.2161 12,13.4922 C11.7708,13.7682 11.4427,13.9583 11.0156,14.0625 M15.8594,10.7031 L16.6875,10.7031 L14.1406,18.9219 L13.3125,18.9219 L15.8594,10.7031 M18.5938,17.1719 L22.0312,17.1719 L22.0312,18 L17.4062,18 L17.4062,17.1719 C17.7812,16.7865 18.2917,16.2656 18.9375,15.6094 C19.5833,14.9531 19.9896,14.5312 20.1562,14.3438 C20.4688,13.9896 20.6875,13.6901 20.8125,13.4453 C20.9375,13.2005 21,12.9583 21,12.7188 C21,12.3333 20.8646,12.0182 20.5938,11.7734 C20.3229,11.5286 19.9688,11.4062 19.5312,11.4062 C19.2188,11.4062 18.8932,11.4609 18.5547,11.5703 C18.2161,11.6797 17.849,11.8438 17.4531,12.0625 L17.4531,11.0625 C17.849,10.9062 18.2188,10.7865 18.5625,10.7031 C18.9062,10.6198 19.224,10.5781 19.5156,10.5781 C20.2656,10.5781 20.8672,10.7656 21.3203,11.1406 C21.7734,11.5156 22,12.0208 22,12.6562 C22,12.9583 21.9427,13.2422 21.8281,13.5078 C21.7135,13.7734 21.5104,14.0885 21.2188,14.4531 C21.1354,14.5469 20.875,14.8203 20.4375,15.2734 C20,15.7266 19.3854,16.3594 18.5938,17.1719 M23.8281,10.4062 L24.6094,10.4062 C25.099,11.1771 25.4661,11.9297 25.7109,12.6641 C25.9557,13.3984 26.0781,14.1302 26.0781,14.8594 C26.0781,15.5885 25.9557,16.3229 25.7109,17.0625 C25.4661,17.8021 25.099,18.5521 24.6094,19.3125 L23.8281,19.3125 C24.2656,18.5729 24.5911,17.8333 24.8047,17.0938 C25.0182,16.3542 25.125,15.6094 25.125,14.8594 C25.125,14.1094 25.0182,13.3672 24.8047,12.6328 C24.5911,11.8984 24.2656,11.1562 23.8281,10.4062" fill-rule="nonzero" vector-effect="none"/></g><defs><clipPath id="clip37"><path d="M-222.5,-49.5 L336.5,-49.5 L336.5,145.5 L-222.5,145.5 L-222.5,-49.5 z"/></clipPath></defs><g clip-path="url(#clip37)" fill="none" opacity="1" stroke="#000000" stroke-linecap="butt" stroke-linejoin="miter" stroke-miterlimit="2" stroke-opacity="1" stroke-width="1" transform="matrix(1,0,0,1,222.5,49.5)"><path d="M0,0 L135,35 L0,70 L0,0 z" fill-rule="nonzero" vector-effect="none"/></g><defs><clipPath id="clip43"><path d="M0,0 L31,0 L31,15 L0,15 L0,0 z"/></clipPath></defs><g clip-path="url(#clip43)" fill="none" opacity="1" stroke="#000000" stroke-linecap="square" stroke-linejoin="bevel" stroke-opacity="1" stroke-width="1" transform="matrix(1,0,0,1,273.859,121)"><text fill="#000000" fill-opacity="1" font-family="Liberation Sans" font-size="10" font-style="normal" font-weight="400" stroke="none" textLength="28.2812" x="1.5" xml:space="preserve" y="11">Factor</text></g><defs><clipPath id="clip51"><path d="M-107,-26 L452,-26 L452,169 L-107,169 L-107,-26 z"/></clipPath></defs><g clip-path="url(#clip51)" fill="#ffffff" fill-opacity="1" opacity="1" stroke="none" stroke-opacity="0" transform="matrix(1,0,0,1,107,26)"><path d="M0,0 L30,0 L30,31 L0,31 L0,0 z" fill-rule="evenodd" vector-effect="none"/></g><defs><clipPath id="clip55"><path d="M-15,-15 L15,-15 L15,16 L-15,16 L-15,-15 z"/></clipPath></defs><g clip-path="url(#clip55)" fill="none" opacity="1" stroke="#000000" stroke-linecap="butt" stroke-linejoin="miter" stroke-miterlimit="2" stroke-opacity="1" stroke-width="1" transform="matrix(1,0,0,1,122,41)"><text fill="#000000" fill-opacity="1" font-family="Liberation Sans" font-size="10" font-style="normal" font-weight="400" stroke="none" textLength="5" x="-2.5" xml:space="preserve" y="3.5">x</text></g><defs><clipPath id="clip60"><path d="M-107.5,-26.5 L451.5,-26.5 L451.5,168.5 L-107.5,168.5 L-107.5,-26.5 z"/></clipPath></defs><g clip-path="url(#clip60)" fill="none" opacity="1" stroke="#000000" stroke-linecap="butt" stroke-linejoin="miter" stroke-miterlimit="2" stroke-opacity="1" stroke-width="1" transform="matrix(1,0,0,1,107.5,26.5)"><path d="M0,0 L30,0 L30,31 L0,31 L0,0 z" fill-rule="evenodd" vector-effect="none"/></g><defs><clipPath id="clip63"><path d="M-107,-111 L452,-111 L452,84 L-107,84 L-107,-111 z"/></clipPath></defs><g clip-path="url(#clip63)" fill="#ffffff" fill-opacity="1" opacity="1" stroke="none" stroke-opacity="0" transform="matrix(1,0,0,1,107,111)"><path d="M0,0 L30,0 L30,31 L0,31 L0,0 z" fill-rule="evenodd" vector-effect="none"/></g><defs><clipPath id="clip67"><path d="M-15,-15 L15,-15 L15,16 L-15,16 L-15,-15 z"/></clipPath></defs><g clip-path="url(#clip67)" fill="none" opacity="1" stroke="#000000" stroke-linecap="butt" stroke-linejoin="miter" stroke-miterlimit="2" stroke-opacity="1" stroke-width="1" transform="matrix(1,0,0,1,122,126)"><text fill="#000000" fill-opacity="1" font-family="Liberation Sans" font-size="10" font-style="normal" font-weight="400" stroke="none" textLength="5" x="-2.5" xml:space="preserve" y="3.5">x</text></g><defs><clipPath id="clip72"><path d="M-107.5,-111.5 L451.5,-111.5 L451.5,83.5 L-107.5,83.5 L-107.5,-111.5 z"/></clipPath></defs><g clip-path="url(#clip72)" fill="none" opacity="1" stroke="#000000" stroke-linecap="butt" stroke-linejoin="miter" stroke-miterlimit="2" stroke-opacity="1" stroke-width="1" transform="matrix(1,0,0,1,107.5,111.5)"><path d="M0,0 L30,0 L30,31 L0,31 L0,0 z" fill-rule="evenodd" vector-effect="none"/></g><defs><clipPath id="clip75"><path d="M-157,-74 L402,-74 L402,121 L-157,121 L-157,-74 z"/></clipPath></defs><g clip-path="url(#clip75)" fill="#ffffff" fill-opacity="1" opacity="1" stroke="none" stroke-opacity="0" transform="matrix(1,0,0,1,157,74)"><path d="M20,10 C20,15.5228 15.5228,20 10,20 C4.47715,20 0,15.5228 0,10 C0,4.47715 4.47715,0 10,0 C15.5228,0 20,4.47715 20,10 z" fill-rule="nonzero" vector-effect="none"/></g><defs><clipPath id="clip79"><path d="M-10,-5 L10,-5 L10,15 L-10,15 L-10,-5 z"/></clipPath></defs><g clip-path="url(#clip79)" fill="none" opacity="1" stroke="#000000" stroke-linecap="butt" stroke-linejoin="miter" stroke-miterlimit="2" stroke-opacity="1" stroke-width="1" transform="matrix(1,0,0,1,167,79)"><text fill="#000000" fill-opacity="1" font-family="Liberation Sans" font-size="10" font-style="normal" font-weight="400" stroke="none" textLength="5.82812" x="-2.90625" xml:space="preserve" y="3.5">−</text></g><defs><clipPath id="clip80"><path d="M-10,-15 L10,-15 L10,5 L-10,5 L-10,-15 z"/></clipPath></defs><g clip-path="url(#clip80)" fill="none" opacity="1" stroke="#000000" stroke-linecap="butt" stroke-linejoin="miter" stroke-miterlimit="2" stroke-opacity="1" stroke-width="1" transform="matrix(1,0,0,1,167,89)"><text fill="#000000" fill-opacity="1" font-family="Liberation Sans" font-size="10" font-style="normal" font-weight="400" stroke="none" textLength="5.82812" x="-2.90625" xml:space="preserve" y="3.5">+</text></g><defs><clipPath id="clip85"><path d="M-157.5,-74.5 L401.5,-74.5 L401.5,120.5 L-157.5,120.5 L-157.5,-74.5 z"/></clipPath></defs><g clip-path="url(#clip85)" fill="none" opacity="1" stroke="#000000" stroke-linecap="butt" stroke-linejoin="miter" stroke-miterlimit="2" stroke-opacity="1" stroke-width="1" transform="matrix(1,0,0,1,157.5,74.5)"><path d="M20,10 C20,15.5228 15.5228,20 10,20 C4.47715,20 0,15.5228 0,10 C0,4.47715 4.47715,0 10,0 C15.5228,0 20,4.47715 20,10 z" fill-rule="nonzero" vector-effect="none"/></g><defs><clipPath id="clip88"><path d="M-437,-76 L122,-76 L122,119 L-437,119 L-437,-76 z"/></clipPath></defs><g clip-path="url(#clip88)" fill="#ffffff" fill-opacity="1" opacity="1" stroke="none" stroke-opacity="0" transform="matrix(1,0,0,1,437,76)"><path d="M0,0 L30,0 L30,31 L0,31 L0,0 z" fill-rule="evenodd" vector-effect="none"/></g><defs><clipPath id="clip92"><path d="M-15,-15 L15,-15 L15,16 L-15,16 L-15,-15 z"/></clipPath></defs><g clip-path="url(#clip92)" fill="none" opacity="1" stroke="#000000" stroke-linecap="butt" stroke-linejoin="miter" stroke-miterlimit="2" stroke-opacity="1" stroke-width="1" transform="matrix(1,0,0,1,452,91)"><text fill="#000000" fill-opacity="1" font-family="Liberation Sans" font-size="10" font-style="normal" font-weight="400" stroke="none" textLength="5" x="-2.5" xml:space="preserve" y="3.5">x</text></g><defs><clipPath id="clip97"><path d="M-437.5,-76.5 L121.5,-76.5 L121.5,118.5 L-437.5,118.5 L-437.5,-76.5 z"/></clipPath></defs><g clip-path="url(#clip97)" fill="none" opacity="1" stroke="#000000" stroke-linecap="butt" stroke-linejoin="miter" stroke-miterlimit="2" stroke-opacity="1" stroke-width="1" transform="matrix(1,0,0,1,437.5,76.5)"><path d="M0,0 L30,0 L30,31 L0,31 L0,0 z" fill-rule="evenodd" vector-effect="none"/></g><defs><clipPath id="clip100"><path d="M-2,-2 L557,-2 L557,193 L-2,193 L-2,-2 z"/></clipPath></defs><g clip-path="url(#clip100)" fill="#ffffff" fill-opacity="1" opacity="1" stroke="none" stroke-opacity="0" transform="matrix(1,0,0,1,2,2)"><path d="M7,0 L23,0 C26.866,0 30,3.13401 30,7 C30,10.866 26.866,14 23,14 L7,14 C3.13401,14 0,10.866 0,7 C0,3.13401 3.13401,0 7,0 z" fill-rule="nonzero" vector-effect="none"/></g><defs><clipPath id="clip104"><path d="M-15,-7 L15,-7 L15,7 L-15,7 L-15,-7 z"/></clipPath></defs><g clip-path="url(#clip104)" fill="none" opacity="1" stroke="#000000" stroke-linecap="butt" stroke-linejoin="miter" stroke-miterlimit="2" stroke-opacity="1" stroke-width="1" transform="matrix(1,0,0,1,17,9)"><text fill="#000000" fill-opacity="1" font-family="Liberation Sans" font-size="10" font-style="normal" font-weight="400" stroke="none" textLength="5.54688" x="-2.76562" xml:space="preserve" y="3.5">1</text></g><defs><clipPath id="clip112"><path d="M0,0 L16,0 L16,15 L0,15 L0,0 z"/></clipPath></defs><g clip-path="url(#clip112)" fill="none" opacity="1" stroke="#000000" stroke-linecap="square" stroke-linejoin="bevel" stroke-opacity="1" stroke-width="1" transform="matrix(1,0,0,1,9.07031,18)"><text fill="#000000" fill-opacity="1" font-family="Liberation Sans" font-size="10" font-style="normal" font-weight="400" stroke="none" textLength="13.8594" x="1" xml:space="preserve" y="11">I_d</text></g><defs><clipPath id="clip122"><path d="M-2.5,-2.5 L556.5,-2.5 L556.5,192.5 L-2.5,192.5 L-2.5,-2.5 z"/></clipPath></defs><g clip-path="url(#clip122)" fill="none" opacity="1" stroke="#000000" stroke-linecap="butt" stroke-linejoin="miter" stroke-miterlimit="2" stroke-opacity="1" stroke-width="1" transform="matrix(1,0,0,1,2.5,2.5)"><path d="M7,0 L23,0 C26.866,0 30,3.13401 30,7 C30,10.866 26.866,14 23,14 L7,14 C3.13401,14 0,10.866 0,7 C0,3.13401 3.13401,0 7,0 z" fill-rule="nonzero" vector-effect="none"/></g><defs><clipPath id="clip125"><path d="M-2,-92 L557,-92 L557,103 L-2,103 L-2,-92 z"/></clipPath></defs><g clip-path="url(#clip125)" fill="#ffffff" fill-opacity="1" opacity="1" stroke="none" stroke-opacity="0" transform="matrix(1,0,0,1,2,92)"><path d="M7,0 L23,0 C26.866,0 30,3.13401 30,7 C30,10.866 26.866,14 23,14 L7,14 C3.13401,14 0,10.866 0,7 C0,3.13401 3.13401,0 7,0 z" fill-rule="nonzero" vector-effect="none"/></g><defs><clipPath id="clip129"><path d="M-15,-7 L15,-7 L15,7 L-15,7 L-15,-7 z"/></clipPath></defs><g clip-path="url(#clip129)" fill="none" opacity="1" stroke="#000000" stroke-linecap="butt" stroke-linejoin="miter" stroke-miterlimit="2" stroke-opacity="1" stroke-width="1" transform="matrix(1,0,0,1,17,99)"><text fill="#000000" fill-opacity="1" font-family="Liberation Sans" font-size="10" font-style="normal" font-weight="400" stroke="none" textLength="5.54688" x="-2.76562" xml:space="preserve" y="3.5">2</text></g><defs><clipPath id="clip137"><path d="M0,0 L26,0 L26,15 L0,15 L0,0 z"/></clipPath></defs><g clip-path="url(#clip137)" fill="none" opacity="1" stroke="#000000" stroke-linecap="square" stroke-linejoin="bevel" stroke-opacity="1" stroke-width="1" transform="matrix(1,0,0,1,4.07031,108)"><text fill="#000000" fill-opacity="1" font-family="Liberation Sans" font-size="10" font-style="normal" font-weight="400" stroke="none" textLength="23.8594" x="1" xml:space="preserve" y="11">psi_d</text></g><defs><clipPath id="clip147"><path d="M-2.5,-92.5 L556.5,-92.5 L556.5,102.5 L-2.5,102.5 L-2.5,-92.5 z"/></clipPath></defs><g clip-path="url(#clip147)" fill="none" opacity="1" stroke="#000000" stroke-linecap="butt" stroke-linejoin="miter" stroke-miterlimit="2" stroke-opacity="1" stroke-width="1" transform="matrix(1,0,0,1,2.5,92.5)"><path d="M7,0 L23,0 C26.866,0 30,3.13401 30,7 C30,10.866 26.866,14 23,14 L7,14 C3.13401,14 0,10.866 0,7 C0,3.13401 3.13401,0 7,0 z" fill-rule="nonzero" vector-effect="none"/></g><defs><clipPath id="clip150"><path d="M-272,-162 L287,-162 L287,33 L-272,33 L-272,-162 z"/></clipPath></defs><g clip-path="url(#clip150)" fill="#ffffff" fill-opacity="1" opacity="1" stroke="none" stroke-opacity="0" transform="matrix(1,0,0,1,272,162)"><path d="M7,0 L23,0 C26.866,0 30,3.13401 30,7 C30,10.866 26.866,14 23,14 L7,14 C3.13401,14 0,10.866 0,7 C0,3.13401 3.13401,0 7,0 z" fill-rule="nonzero" vector-effect="none"/></g><defs><clipPath id="clip154"><path d="M-15,-7 L15,-7 L15,7 L-15,7 L-15,-7 z"/></clipPath></defs><g clip-path="url(#clip154)" fill="none" opacity="1" stroke="#000000" stroke-linecap="butt" stroke-linejoin="miter" stroke-miterlimit="2" stroke-opacity="1" stroke-width="1" transform="matrix(1,0,0,1,287,169)"><text fill="#000000" fill-opacity="1" font-family="Liberation Sans" font-size="10" font-style="normal" font-weight="400" stroke="none" textLength="5.54688" x="-2.76562" xml:space="preserve" y="3.5">4</text></g><defs><clipPath id="clip162"><path d="M0,0 L43,0 L43,15 L0,15 L0,0 z"/></clipPath></defs><g clip-path="url(#clip162)" fill="none" opacity="1" stroke="#000000" stroke-linecap="square" stroke-linejoin="bevel" stroke-opacity="1" stroke-width="1" transform="matrix(1,0,0,1,265.75,178)"><text fill="#000000" fill-opacity="1" font-family="Liberation Sans" font-size="10" font-style="normal" font-weight="400" stroke="none" textLength="40.5" x="1" xml:space="preserve" y="11">polepairs</text></g><defs><clipPath id="clip172"><path d="M-272.5,-162.5 L286.5,-162.5 L286.5,32.5 L-272.5,32.5 L-272.5,-162.5 z"/></clipPath></defs><g clip-path="url(#clip172)" fill="none" opacity="1" stroke="#000000" stroke-linecap="butt" stroke-linejoin="miter" stroke-miterlimit="2" stroke-opacity="1" stroke-width="1" transform="matrix(1,0,0,1,272.5,162.5)"><path d="M7,0 L23,0 C26.866,0 30,3.13401 30,7 C30,10.866 26.866,14 23,14 L7,14 C3.13401,14 0,10.866 0,7 C0,3.13401 3.13401,0 7,0 z" fill-rule="nonzero" vector-effect="none"/></g><defs><clipPath id="clip175"><path d="M-2,-42 L557,-42 L557,153 L-2,153 L-2,-42 z"/></clipPath></defs><g clip-path="url(#clip175)" fill="#ffffff" fill-opacity="1" opacity="1" stroke="none" stroke-opacity="0" transform="matrix(1,0,0,1,2,42)"><path d="M7,0 L23,0 C26.866,0 30,3.13401 30,7 C30,10.866 26.866,14 23,14 L7,14 C3.13401,14 0,10.866 0,7 C0,3.13401 3.13401,0 7,0 z" fill-rule="nonzero" vector-effect="none"/></g><defs><clipPath id="clip179"><path d="M-15,-7 L15,-7 L15,7 L-15,7 L-15,-7 z"/></clipPath></defs><g clip-path="url(#clip179)" fill="none" opacity="1" stroke="#000000" stroke-linecap="butt" stroke-linejoin="miter" stroke-miterlimit="2" stroke-opacity="1" stroke-width="1" transform="matrix(1,0,0,1,17,49)"><text fill="#000000" fill-opacity="1" font-family="Liberation Sans" font-size="10" font-style="normal" font-weight="400" stroke="none" textLength="5.54688" x="-2.76562" xml:space="preserve" y="3.5">3</text></g><defs><clipPath id="clip187"><path d="M0,0 L26,0 L26,15 L0,15 L0,0 z"/></clipPath></defs><g clip-path="url(#clip187)" fill="none" opacity="1" stroke="#000000" stroke-linecap="square" stroke-linejoin="bevel" stroke-opacity="1" stroke-width="1" transform="matrix(1,0,0,1,4.07031,58)"><text fill="#000000" fill-opacity="1" font-family="Liberation Sans" font-size="10" font-style="normal" font-weight="400" stroke="none" textLength="23.8594" x="1" xml:space="preserve" y="11">psi_q</text></g><defs><clipPath id="clip197"><path d="M-2.5,-42.5 L556.5,-42.5 L556.5,152.5 L-2.5,152.5 L-2.5,-42.5 z"/></clipPath></defs><g clip-path="url(#clip197)" fill="none" opacity="1" stroke="#000000" stroke-linecap="butt" stroke-linejoin="miter" stroke-miterlimit="2" stroke-opacity="1" stroke-width="1" transform="matrix(1,0,0,1,2.5,42.5)"><path d="M7,0 L23,0 C26.866,0 30,3.13401 30,7 C30,10.866 26.866,14 23,14 L7,14 C3.13401,14 0,10.866 0,7 C0,3.13401 3.13401,0 7,0 z" fill-rule="nonzero" vector-effect="none"/></g><defs><clipPath id="clip200"><path d="M-2,-127 L557,-127 L557,68 L-2,68 L-2,-127 z"/></clipPath></defs><g clip-path="url(#clip200)" fill="#ffffff" fill-opacity="1" opacity="1" stroke="none" stroke-opacity="0" transform="matrix(1,0,0,1,2,127)"><path d="M7,0 L23,0 C26.866,0 30,3.13401 30,7 C30,10.866 26.866,14 23,14 L7,14 C3.13401,14 0,10.866 0,7 C0,3.13401 3.13401,0 7,0 z" fill-rule="nonzero" vector-effect="none"/></g><defs><clipPath id="clip204"><path d="M-15,-7 L15,-7 L15,7 L-15,7 L-15,-7 z"/></clipPath></defs><g clip-path="url(#clip204)" fill="none" opacity="1" stroke="#000000" stroke-linecap="butt" stroke-linejoin="miter" stroke-miterlimit="2" stroke-opacity="1" stroke-width="1" transform="matrix(1,0,0,1,17,134)"><text fill="#000000" fill-opacity="1" font-family="Liberation Sans" font-size="10" font-style="normal" font-weight="400" stroke="none" textLength="5.54688" x="-2.76562" xml:space="preserve" y="3.5">5</text></g><defs><clipPath id="clip212"><path d="M0,0 L16,0 L16,15 L0,15 L0,0 z"/></clipPath></defs><g clip-path="url(#clip212)" fill="none" opacity="1" stroke="#000000" stroke-linecap="square" stroke-linejoin="bevel" stroke-opacity="1" stroke-width="1" transform="matrix(1,0,0,1,9.07031,143)"><text fill="#000000" fill-opacity="1" font-family="Liberation Sans" font-size="10" font-style="normal" font-weight="400" stroke="none" textLength="13.8594" x="1" xml:space="preserve" y="11">I_q</text></g><defs><clipPath id="clip222"><path d="M-2.5,-127.5 L556.5,-127.5 L556.5,67.5 L-2.5,67.5 L-2.5,-127.5 z"/></clipPath></defs><g clip-path="url(#clip222)" fill="none" opacity="1" stroke="#000000" stroke-linecap="butt" stroke-linejoin="miter" stroke-miterlimit="2" stroke-opacity="1" stroke-width="1" transform="matrix(1,0,0,1,2.5,127.5)"><path d="M7,0 L23,0 C26.866,0 30,3.13401 30,7 C30,10.866 26.866,14 23,14 L7,14 C3.13401,14 0,10.866 0,7 C0,3.13401 3.13401,0 7,0 z" fill-rule="nonzero" vector-effect="none"/></g><defs><clipPath id="clip225"><path d="M-527,-87 L32,-87 L32,108 L-527,108 L-527,-87 z"/></clipPath></defs><g clip-path="url(#clip225)" fill="#ffffff" fill-opacity="1" opacity="1" stroke="none" stroke-opacity="0" transform="matrix(1,0,0,1,527,87)"><path d="M7,0 L23,0 C26.866,0 30,3.13401 30,7 C30,10.866 26.866,14 23,14 L7,14 C3.13401,14 0,10.866 0,7 C0,3.13401 3.13401,0 7,0 z" fill-rule="nonzero" vector-effect="none"/></g><defs><clipPath id="clip229"><path d="M-15,-7 L15,-7 L15,7 L-15,7 L-15,-7 z"/></clipPath></defs><g clip-path="url(#clip229)" fill="none" opacity="1" stroke="#000000" stroke-linecap="butt" stroke-linejoin="miter" stroke-miterlimit="2" stroke-opacity="1" stroke-width="1" transform="matrix(1,0,0,1,542,94)"><text fill="#000000" fill-opacity="1" font-family="Liberation Sans" font-size="10" font-style="normal" font-weight="400" stroke="none" textLength="5.54688" x="-2.76562" xml:space="preserve" y="3.5">1</text></g><defs><clipPath id="clip237"><path d="M0,0 L26,0 L26,15 L0,15 L0,0 z"/></clipPath></defs><g clip-path="url(#clip237)" fill="none" opacity="1" stroke="#000000" stroke-linecap="square" stroke-linejoin="bevel" stroke-opacity="1" stroke-width="1" transform="matrix(1,0,0,1,528.789,103)"><text fill="#000000" fill-opacity="1" font-family="Liberation Sans" font-size="10" font-style="normal" font-weight="400" stroke="none" textLength="24.4219" x="1" xml:space="preserve" y="11">M_Mi</text></g><defs><clipPath id="clip247"><path d="M-527.5,-87.5 L31.5,-87.5 L31.5,107.5 L-527.5,107.5 L-527.5,-87.5 z"/></clipPath></defs><g clip-path="url(#clip247)" fill="none" opacity="1" stroke="#000000" stroke-linecap="butt" stroke-linejoin="miter" stroke-miterlimit="2" stroke-opacity="1" stroke-width="1" transform="matrix(1,0,0,1,527.5,87.5)"><path d="M7,0 L23,0 C26.866,0 30,3.13401 30,7 C30,10.866 26.866,14 23,14 L7,14 C3.13401,14 0,10.866 0,7 C0,3.13401 3.13401,0 7,0 z" fill-rule="nonzero" vector-effect="none"/></g><defs><clipPath id="clip250"><path d="M-222,-84 L337,-84 L337,111 L-222,111 L-222,-84 z"/></clipPath></defs><g clip-path="url(#clip250)" fill="#000000" fill-opacity="1" opacity="1" stroke="none" stroke-opacity="0" transform="matrix(1,0,0,1,222,84)"><path d="M0,0 L-8,-4 L-8,4 L0,0 z" fill-rule="nonzero" vector-effect="none"/></g><defs><clipPath id="clip253"><path d="M273,321 L832,321 L832,516 L273,516 L273,321 z"/></clipPath></defs><g clip-path="url(#clip253)" fill="none" opacity="1" stroke="#000000" stroke-linecap="butt" stroke-linejoin="miter" stroke-miterlimit="2" stroke-opacity="1" stroke-width="1" transform="matrix(1,0,0,1,-273,-321)"><path d="M450.5,405.5 L487.5,405.5" fill-rule="evenodd" vector-effect="none"/></g><defs><clipPath id="clip256"><path d="M-74,167 L-74,-392 L121,-392 L121,167 L-74,167 z"/></clipPath></defs><g clip-path="url(#clip256)" fill="#000000" fill-opacity="1" opacity="1" stroke="none" stroke-opacity="0" transform="matrix(6.12323e-17,1,-1,6.12323e-17,167,74)"><path d="M0,0 L-8,-4 L-8,4 L0,0 z" fill-rule="nonzero" vector-effect="none"/></g><defs><clipPath id="clip259"><path d="M273,321 L832,321 L832,516 L273,516 L273,321 z"/></clipPath></defs><g clip-path="url(#clip259)" fill="none" opacity="1" stroke="#000000" stroke-linecap="butt" stroke-linejoin="miter" stroke-miterlimit="2" stroke-opacity="1" stroke-width="1" transform="matrix(1,0,0,1,-273,-321)"><path d="M410.5,365.5 L440.5,365.5 L440.5,387.5" fill-rule="evenodd" vector-effect="none"/></g><defs><clipPath id="clip262"><path d="M94,-167 L94,392 L-101,392 L-101,-167 L94,-167 z"/></clipPath></defs><g clip-path="url(#clip262)" fill="#000000" fill-opacity="1" opacity="1" stroke="none" stroke-opacity="0" transform="matrix(6.12323e-17,-1,1,6.12323e-17,167,94)"><path d="M0,0 L-8,-4 L-8,4 L0,0 z" fill-rule="nonzero" vector-effect="none"/></g><defs><clipPath id="clip265"><path d="M273,321 L832,321 L832,516 L273,516 L273,321 z"/></clipPath></defs><g clip-path="url(#clip265)" fill="none" opacity="1" stroke="#000000" stroke-linecap="butt" stroke-linejoin="miter" stroke-miterlimit="2" stroke-opacity="1" stroke-width="1" transform="matrix(1,0,0,1,-273,-321)"><path d="M410.5,450.5 L440.5,450.5 L440.5,423.5" fill-rule="evenodd" vector-effect="none"/></g><defs><clipPath id="clip268"><path d="M-527,-94 L32,-94 L32,101 L-527,101 L-527,-94 z"/></clipPath></defs><g clip-path="url(#clip268)" fill="#000000" fill-opacity="1" opacity="1" stroke="none" stroke-opacity="0" transform="matrix(1,0,0,1,527,94)"><path d="M0,0 L-8,-4 L-8,4 L0,0 z" fill-rule="nonzero" vector-effect="none"/></g><defs><clipPath id="clip271"><path d="M273,321 L832,321 L832,516 L273,516 L273,321 z"/></clipPath></defs><g clip-path="url(#clip271)" fill="none" opacity="1" stroke="#000000" stroke-linecap="butt" stroke-linejoin="miter" stroke-miterlimit="2" stroke-opacity="1" stroke-width="1" transform="matrix(1,0,0,1,-273,-321)"><path d="M740.5,415.5 L792.5,415.5" fill-rule="evenodd" vector-effect="none"/></g><defs><clipPath id="clip277"><path d="M0,0 L24,0 L24,13 L0,13 L0,0 z"/></clipPath></defs><g clip-path="url(#clip277)" fill="none" opacity="1" stroke="#000000" stroke-linecap="square" stroke-linejoin="bevel" stroke-opacity="1" stroke-width="1" transform="matrix(1,0,0,1,472,95.5)"><text fill="#000000" fill-opacity="1" font-family="Liberation Sans" font-size="9" font-style="normal" font-weight="400" stroke="none" textLength="21.9531" x="1" xml:space="preserve" y="10">M_Mi</text></g><defs><clipPath id="clip285"><path d="M-437,-84 L122,-84 L122,111 L-437,111 L-437,-84 z"/></clipPath></defs><g clip-path="url(#clip285)" fill="#000000" fill-opacity="1" opacity="1" stroke="none" stroke-opacity="0" transform="matrix(1,0,0,1,437,84)"><path d="M0,0 L-8,-4 L-8,4 L0,0 z" fill-rule="nonzero" vector-effect="none"/></g><defs><clipPath id="clip288"><path d="M273,321 L832,321 L832,516 L273,516 L273,321 z"/></clipPath></defs><g clip-path="url(#clip288)" fill="none" opacity="1" stroke="#000000" stroke-linecap="butt" stroke-linejoin="miter" stroke-miterlimit="2" stroke-opacity="1" stroke-width="1" transform="matrix(1,0,0,1,-273,-321)"><path d="M630.5,405.5 L702.5,405.5" fill-rule="evenodd" vector-effect="none"/></g><defs><clipPath id="clip294"><path d="M0,0 L24,0 L24,13 L0,13 L0,0 z"/></clipPath></defs><g clip-path="url(#clip294)" fill="none" opacity="1" stroke="#000000" stroke-linecap="square" stroke-linejoin="bevel" stroke-opacity="1" stroke-width="1" transform="matrix(1,0,0,1,362,85.5)"><text fill="#000000" fill-opacity="1" font-family="Liberation Sans" font-size="9" font-style="normal" font-weight="400" stroke="none" textLength="21.9531" x="1" xml:space="preserve" y="10">M_Mi</text></g><defs><clipPath id="clip302"><path d="M-107,-34 L452,-34 L452,161 L-107,161 L-107,-34 z"/></clipPath></defs><g clip-path="url(#clip302)" fill="#000000" fill-opacity="1" opacity="1" stroke="none" stroke-opacity="0" transform="matrix(1,0,0,1,107,34)"><path d="M0,0 L-8,-4 L-8,4 L0,0 z" fill-rule="nonzero" vector-effect="none"/></g><defs><clipPath id="clip305"><path d="M273,321 L832,321 L832,516 L273,516 L273,321 z"/></clipPath></defs><g clip-path="url(#clip305)" fill="none" opacity="1" stroke="#000000" stroke-linecap="butt" stroke-linejoin="miter" stroke-miterlimit="2" stroke-opacity="1" stroke-width="1" transform="matrix(1,0,0,1,-273,-321)"><path d="M305.5,330.5 L343.5,330.5 L343.5,355.5 L372.5,355.5" fill-rule="evenodd" vector-effect="none"/></g><defs><clipPath id="clip308"><path d="M-107,-119 L452,-119 L452,76 L-107,76 L-107,-119 z"/></clipPath></defs><g clip-path="url(#clip308)" fill="#000000" fill-opacity="1" opacity="1" stroke="none" stroke-opacity="0" transform="matrix(1,0,0,1,107,119)"><path d="M0,0 L-8,-4 L-8,4 L0,0 z" fill-rule="nonzero" vector-effect="none"/></g><defs><clipPath id="clip311"><path d="M273,321 L832,321 L832,516 L273,516 L273,321 z"/></clipPath></defs><g clip-path="url(#clip311)" fill="none" opacity="1" stroke="#000000" stroke-linecap="butt" stroke-linejoin="miter" stroke-miterlimit="2" stroke-opacity="1" stroke-width="1" transform="matrix(1,0,0,1,-273,-321)"><path d="M305.5,420.5 L343.5,420.5 L343.5,440.5 L372.5,440.5" fill-rule="evenodd" vector-effect="none"/></g><defs><clipPath id="clip314"><path d="M-437,-99 L122,-99 L122,96 L-437,96 L-437,-99 z"/></clipPath></defs><g clip-path="url(#clip314)" fill="#000000" fill-opacity="1" opacity="1" stroke="none" stroke-opacity="0" transform="matrix(1,0,0,1,437,99)"><path d="M0,0 L-8,-4 L-8,4 L0,0 z" fill-rule="nonzero" vector-effect="none"/></g><defs><clipPath id="clip317"><path d="M273,321 L832,321 L832,516 L273,516 L273,321 z"/></clipPath></defs><g clip-path="url(#clip317)" fill="none" opacity="1" stroke="#000000" stroke-linecap="butt" stroke-linejoin="miter" stroke-miterlimit="2" stroke-opacity="1" stroke-width="1" transform="matrix(1,0,0,1,-273,-321)"><path d="M575.5,490.5 L670.5,490.5 L670.5,420.5 L702.5,420.5" fill-rule="evenodd" vector-effect="none"/></g><defs><clipPath id="clip320"><path d="M-107,-49 L452,-49 L452,146 L-107,146 L-107,-49 z"/></clipPath></defs><g clip-path="url(#clip320)" fill="#000000" fill-opacity="1" opacity="1" stroke="none" stroke-opacity="0" transform="matrix(1,0,0,1,107,49)"><path d="M0,0 L-8,-4 L-8,4 L0,0 z" fill-rule="nonzero" vector-effect="none"/></g><defs><clipPath id="clip323"><path d="M273,321 L832,321 L832,516 L273,516 L273,321 z"/></clipPath></defs><g clip-path="url(#clip323)" fill="none" opacity="1" stroke="#000000" stroke-linecap="butt" stroke-linejoin="miter" stroke-miterlimit="2" stroke-opacity="1" stroke-width="1" transform="matrix(1,0,0,1,-273,-321)"><path d="M305.5,370.5 L372.5,370.5" fill-rule="evenodd" vector-effect="none"/></g><defs><clipPath id="clip326"><path d="M-107,-134 L452,-134 L452,61 L-107,61 L-107,-134 z"/></clipPath></defs><g clip-path="url(#clip326)" fill="#000000" fill-opacity="1" opacity="1" stroke="none" stroke-opacity="0" transform="matrix(1,0,0,1,107,134)"><path d="M0,0 L-8,-4 L-8,4 L0,0 z" fill-rule="nonzero" vector-effect="none"/></g><defs><clipPath id="clip329"><path d="M273,321 L832,321 L832,516 L273,516 L273,321 z"/></clipPath></defs><g clip-path="url(#clip329)" fill="none" opacity="1" stroke="#000000" stroke-linecap="butt" stroke-linejoin="miter" stroke-miterlimit="2" stroke-opacity="1" stroke-width="1" transform="matrix(1,0,0,1,-273,-321)"><path d="M305.5,455.5 L372.5,455.5" fill-rule="evenodd" vector-effect="none"/></g></g><!--generated on ubuntu @ 2021-07-30 09:53:24 CEST--></svg>
