<svg xmlns="http://www.w3.org/2000/svg" xmlns:xlink="http://www.w3.org/1999/xlink" viewBox="0 0 16 16"><defs><style>.cls-1{fill:url(#Paper_Fill);}.cls-2{fill:url(#Paper_Fill-2);}.cls-3{opacity:0.9;fill:url(#linear-gradient);}.cls-4{fill:#4d4d4d;}.cls-5{fill:#333;opacity:0;}</style><radialGradient id="Paper_Fill" cx="7.75" cy="7.75" r="6.13" gradientUnits="userSpaceOnUse"><stop offset="0.28" stop-color="#fff"/><stop offset="0.4" stop-color="#f9fafc"/><stop offset="0.56" stop-color="#e8eef2"/><stop offset="0.75" stop-color="#ccd9e2"/><stop offset="0.95" stop-color="#a5bccc"/><stop offset="0.95" stop-color="#a4bbcb"/></radialGradient><radialGradient id="Paper_Fill-2" cx="2.24" cy="2.69" r="21.33" xlink:href="#Paper_Fill"/><linearGradient id="linear-gradient" x1="8" y1="0.89" x2="8" y2="14.44" gradientUnits="userSpaceOnUse"><stop offset="0.28" stop-color="#7a7a7a"/><stop offset="0.85" stop-color="#4d4d4d"/></linearGradient></defs><g id="Layer_2" data-name="Layer 2"><g id="Icons"><g id="references_16"><rect class="cls-1" x="0.5" y="2.99" width="14.5" height="9.51"/><polygon class="cls-2" points="0.5 13.5 0.5 1.5 5.5 1.5 5.5 4.5 15.5 4.5 15.5 13.5 0.5 13.5"/><path class="cls-3" d="M6,2V1H0V14H16V4H15V2Zm9,11H1V2H5V5H15v8ZM6,4V3h8V4Z"/><polygon class="cls-4" points="0 14 0.08 13.46 5 8 6 9 0.58 14 0 14"/><polygon class="cls-4" points="6 8 6 12 5 12 5 9 2 9 2 8 6 8"/><rect class="cls-5" width="16" height="16"/></g></g></g></svg>